<?xml version="1.0" encoding="UTF-8"?>
<svg id="Layer_1" data-name="Layer 1" xmlns="http://www.w3.org/2000/svg" viewBox="0 0 200 200">
  <circle cx="100" cy="100" r="100" fill="#eed78c"/>
  <g>
    <path d="M102.82,160.68c-1.57.77-3.5.92-5.12.21-9.66-4.22-20.3-10.26-28.45-16.94-5.99-4.91-10.94-10.81-14.59-17.65-3.57-6.69-5.48-13.95-5.82-21.57v-39.81c0-3.54,2.68-5.98,5.99-6.51,9.18-1.49,17.94-4.44,26.23-8.67,5.41-2.76,10.53-5.9,15.23-9.68,2.15-1.73,4.84-1.95,7.05-.23,7.13,5.55,15,10.02,23.4,13.42,6.22,2.52,12.55,4.18,19.12,5.35,3.13.56,5.29,3.31,5.29,6.46l-.02,38.25c-.01,18.25-10.28,33.78-24.79,44.12-4.4,3.14-8.9,5.88-13.66,8.41l-9.87,4.84ZM120.77,144.02c4.01-2.68,7.59-5.51,10.87-8.93,3.45-3.6,6.38-7.53,8.67-11.98,3.19-6.19,5-12.95,5.01-19.96l.05-37.6c0-.51-.24-.87-.61-1.07-4.79-.92-9.49-1.82-14.16-3.36-11.06-3.64-21.3-9.13-30.59-16.27-9.4,7.3-19.88,12.97-31.24,16.53-4.32,1.36-8.64,2.17-13.06,3.01-.65.03-1.08.47-1.08,1.17l.07,37.66c.03,15.22,8.5,28.89,20.51,37.82,7.69,5.72,16.02,10.43,24.81,14.34,7.28-3.25,14.16-6.94,20.77-11.36Z"/>
    <path d="M89.63,118.69l-14.87-14.85c-1.13-1.13-.77-3.08.18-4.09.97-1.03,3.04-1.44,4.21-.28l12.72,12.6,18.8-19.05,11.95-11.99c1.23-1.23,3.36-.66,4.25.4,1.19,1.42.89,3.15-.36,4.42l-17.89,18.13-14.05,14.22c-1.26,1.27-3.46,1.97-4.94.48Z"/>
  </g>
</svg>