<?xml version="1.0" encoding="UTF-8"?>
<svg id="Layer_1" data-name="Layer 1" xmlns="http://www.w3.org/2000/svg" viewBox="0 0 200 200">
  <path d="M146.88,137.64c1.46,0,2.33.81,2.44,2.1.09,1.01-.71,2.32-2.04,2.32H52.33c-1.35,0-2.22-1.06-2.21-2.18,0-1.31.99-2.24,2.35-2.24h17.1c4-11.48,10.41-23.45,18.91-32.09l12.92-13.12,31.73-31.97c2.21-2.23,5.59-2.92,8.71-2.28,2.65.54,5.16,2.29,6.68,4.97,2.06,3.63,1.9,8.86-1.18,11.99l-26.19,26.54,1.17,2.56c.57,1.26.1,2.32-.81,3.23l-17.12,17.19c-5.53,5.56-12.23,9.61-19.46,12.98h61.95ZM125.79,90.7l18.2-18.42c1.76-1.78,1.81-4.63.8-6.73-.86-1.79-2.51-2.86-4.21-3.13-2.07-.33-3.77.5-5.18,1.92l-25.19,25.46,8.28,8.31,7.3-7.41ZM100.71,122.17l17.05-17.18-1.29-2.74-9.34-9.38-16.59,16.81c-7.05,7.76-12.23,17.02-15.94,26.98,9.75-2.81,18.54-7.76,26.1-14.5Z"/>
  <path d="M111.41,134.44c-.62.78-1.47,1.05-2.31.51-.44-.21-1.12-1.52-.5-2.15l8.08-8.15c.66-.66,1.53-.77,2.27-.16.57.47.83,1.58.15,2.26l-7.68,7.7Z"/>
  <path d="M121.45,135.17l-4.78.16c-.76.03-1.12-.98-1.01-1.51.14-.67.65-1.14,1.41-1.18l4.55-.27c.8-.05,1.3.79,1.27,1.4-.04.76-.57,1.36-1.43,1.39Z"/>
</svg>