<?xml version="1.0" encoding="UTF-8"?>
<svg id="Layer_1" data-name="Layer 1" xmlns="http://www.w3.org/2000/svg" viewBox="0 0 200 200">
  <path d="M100.53,158.22c-10.21.09-19.92-3.3-27.6-9.79-8.89-7.5-14.04-18.26-14.24-29.96-.13-7.81,1.53-15.45,4.69-22.62,2.51-5.68,5.51-11.01,8.78-16.3,4.1-6.62,8.4-12.99,12.85-19.38l11.28-16.17c.95-1.36,2.14-2.21,3.75-2.22,1.71,0,2.81.98,3.78,2.38l16.19,23.31c4.14,5.96,7.97,12.01,11.54,18.31,6.22,10.97,10.33,21.1,9.69,33.99-.31,6.33-2,12.42-5.12,17.86-7.31,12.73-20.85,20.46-35.6,20.59ZM135.84,122.28c1.19-10.08-1.2-19-5.65-27.96-2.04-4.12-4.17-8.04-6.7-11.9l-9.89-15.05-13.03-18.7c-.21-.3-.35-.44-.67-.4-.24.03-.31.18-.49.44l-14.96,21.53c-3.24,4.67-6.22,9.35-9.15,14.2-6.86,11.4-12.22,22.2-11.32,35.88.58,8.79,4.49,16.95,10.91,22.94,7.08,6.6,16.35,9.98,26.04,9.76,17.66-.41,32.82-13.11,34.91-30.73Z"/>
  <path d="M111.45,142.26c-1.56.68-3.12.22-3.72-1.21-.65-1.55.25-2.92,1.73-3.54,6.75-2.83,11.3-9.24,12.31-16.44.19-1.36,1.54-2.02,2.75-1.92,1.15.09,2.43,1.14,2.27,2.53-1.04,9.11-6.94,16.89-15.34,20.58Z"/>
</svg>