<?xml version="1.0" encoding="UTF-8"?>
<svg id="Layer_1" data-name="Layer 1" xmlns="http://www.w3.org/2000/svg" viewBox="0 0 200 200">
  <circle cx="100" cy="100" r="100" fill="#eed78c"/>
  <g>
    <path d="M51.86,149.28l13.65-14.2,19.28-20.11,16.45-17.23,23.71-24.71,8.19-8.52,10.73-11.17c1.06-1.1,2.74-1.53,3.95-.41,1.29,1.19.86,2.96-.25,4.1l-6.68,6.85-50.56,52.65-34.19,35.67c-1,1.35-2.86,1.63-4.08.46-.83-.8-1.15-2.38-.18-3.38Z"/>
    <path d="M79.38,76.25c1.37,1.32,2.42,2.77,3.4,4.41,2.39,3.98,3.06,8.76,1.54,13.19-1.12,3.29-3.42,5.87-6.37,7.62-1.55.92-3.15,1.51-4.81,2.19l-5.4,2.21c-3.74,1.53-7.16,5.37-7.7,9.59-.45,3.52,1.19,7.07,4.47,8.6,1.04.49,2.98,1.01,3.21,2.35.31,1.84-2.49,3.17-3.96,3-.95-.11-1.81-.63-2.55-1.24-1.94-1.6-3.71-3.31-4.82-5.6-1.18-2.44-1.57-5.22-1.17-7.89.7-4.68,3.36-8.69,7.21-11.4,1.68-1.18,3.4-2.06,5.32-2.8l5.49-2.12c1.51-.59,2.84-1.4,4.03-2.47,1.77-1.59,2.77-3.65,2.97-6.02.41-4.83-2.68-8.7-6.07-11.91l-3.92-3.71c-4.65-4.41-5.88-11.08-2.48-16.41,1.92-3,5.36-5.22,9.24-5.52,6.42-.5,10.45,3.61,13.03,9.13l2.83,6.05c.67,1.43,1.4,2.74,2.45,3.91,1.61,1.79,3.96,2.39,6.24,1.56,2.61-.96,4.53-4.12,9.07-5.19,1.92-.45,4-.48,5.94-.11,1.75.33,5.3.46,4.66,3.11-.26,1.08-1.04,2.03-2.06,2.5-1.61.74-2.93-.08-4.48-.44-1.72-.4-3.46-.33-5.01.56-1.98,1.14-3.52,2.9-5.63,3.84-3.27,1.46-6.96,1.33-10.05-.56-2.24-1.37-4.27-4.31-5.41-6.76l-2.47-5.33c-1.27-2.74-2.79-5.82-5.64-6.92-2.88-1.12-6.13-.13-8.04,2.15-2.03,2.41-2.27,5.72-.65,8.48.7,1.19,1.58,2.16,2.59,3.13l5.01,4.83Z"/>
    <path d="M69.34,85.02c2.17,2.95,1.56,6.4-1.37,8.22-2.37,1.46-4.99,2.37-7.75,2.65-4.12.41-7.77-1.76-9.23-5.48s-.2-8.02,3.22-10.3c2.5-1.67,5.6-1.84,8.34-.67l2,1.02c1.84,1.3,3.46,2.76,4.79,4.57ZM65.45,89.07c.39-.22.36-.69.16-.93l-1.65-1.86c-.99-1.12-2.24-2.01-3.66-2.5-1.62-.56-3.35-.04-4.29,1.23-.96,1.3-1.02,3.03-.08,4.39s2.49,1.89,4.12,1.63c1.91-.31,3.69-.99,5.41-1.96Z"/>
    <path d="M108.15,62.49c-2.57.57-4.97-.78-5.77-3.19-.69-2.08-.92-4.21-.73-6.4.44-5.11,4.96-8.49,9.83-7.3,2,.49,4.04,1.95,5.07,4.13,1.58,3.31.63,7.16-2.13,9.59-1.77,1.56-3.87,2.64-6.27,3.17ZM107.52,57.72l2.02-.9c.98-.44,1.81-1.14,2.41-2.03.8-1.2.61-2.68-.34-3.68s-2.4-1.18-3.62-.43c-2.03,1.24-1.76,4.3-1.17,6.72.07.3.34.48.69.32Z"/>
    <path d="M76.14,137c.44-.2.91-.29,1.37-.21,1.11.18,1.83,1.16,2.67,1.81.87.68,1.85,1.19,2.98,1.22,1.52.03,3.04-.5,4.3-1.33,3.84-2.54,5.12-7.14,7.78-10.65,3.34-4.42,9.38-5.65,14.11-2.72,2.8,1.73,4.16,4.31,6.64,5.9,2.45,1.58,5.52,1.67,7.98.1,2.32-1.48,3.67-4.31,3.25-7.2-.49-3.32-2.58-5.32-3.08-8.81-.62-4.26,1.31-8.23,4.98-10.46,3.27-1.99,6.43-2.14,9.22-3.63,3-1.6,4.77-4.84,4.3-8.22-.37-2.65-2.01-4.84-4.62-5.61-2.77-.82-5.57.33-8.36.31-1.13,0-2.53-.1-3.12-1.23-.51-.97-.09-2.16.63-2.9,1.11-1.14,3.18-.98,4.66-1.11,3.3-.28,6.55-.58,9.6.98,2.48,1.26,4.39,3.44,5.35,6.04,1.34,3.61,1.05,7.6-.84,10.96-1.19,2.13-2.93,3.74-5.02,4.96-3.12,1.83-6.13,1.97-9.07,3.59-2.53,1.4-3.67,4.15-2.59,6.9l1.35,2.93c1.01,2.19,1.61,4.46,1.53,6.86-.14,4.06-2.23,7.62-5.33,9.67-3.63,2.39-7.99,2.61-11.82.87-2.03-.93-3.61-2.35-5.16-3.91l-2.13-2.15c-6.92-6.99-12.64,8.65-16.38,11.79-2.54,2.13-5.89,3.22-9.2,2.92-1.67-.15-3.29-.65-4.75-1.48-.96-.55-2.08-1.01-2.81-1.87-1.21-1.42,0-3.58,1.59-4.29Z"/>
    <path d="M109.57,152.55c-2.73,2.48-6.73,2.75-9.76.82-2.72-1.73-3.93-4.89-3.25-8.04.5-2.31,1.77-4.28,3.51-5.87,2.03-1.86,4.97-2.13,7.3-.63,2.15,1.38,3.76,3.5,4.4,6.01.71,2.81,0,5.72-2.19,7.71ZM107.11,146.19c-.3-1.22-1.02-2.29-1.98-3.05-.66-.53-1.38-.52-2,.05-1.78,1.59-2.77,4.15-1.19,5.73.66.66,1.54,1,2.56.89,1.81-.21,3.05-1.81,2.61-3.61Z"/>
    <path d="M137.43,121.54c-.89-1.52-1.36-3.08-1.41-4.8-.06-2.03,1.09-3.84,3.01-4.56,4.18-1.56,9.31.02,10.39,4.45.78,3.23-.81,6.41-3.78,7.67-3.01,1.29-6.48.19-8.21-2.76ZM144.4,119.41c.45-.54.47-1.18.26-1.75-.47-1.3-2.18-1.47-3.78-1.05-.07,1.04.23,2.09.94,2.83s1.9.78,2.58-.03Z"/>
  </g>
</svg>