<?xml version="1.0" encoding="UTF-8"?>
<svg id="Layer_1" data-name="Layer 1" xmlns="http://www.w3.org/2000/svg" xmlns:xlink="http://www.w3.org/1999/xlink" viewBox="0 0 200 200">
  <defs>
    <style>

      .cls-2 {
        fill: #030303;
      }

      .cls-4 {
        fill: #e6cf8a;
      }
    </style>
  </defs>
  <g class="cls-1">
    <path class="cls-2" d="M157.75,127.71c.34,3.03-.22,5.94-1.4,8.74-.98,2.3-2.47,4.18-4.46,5.69-1.68,1.27-2.98,2.76-4.12,4.54l-1.57,2.48c-2.58,3.69-6.59,5.83-11.11,6.04-3.22.16-5.96,1.32-8.26,3.54l-2.65,2.35c-2.44,2.15-5.53,3.18-8.85,3.32l-19.11.83c-3.14.14-5.93-.23-8.73-1.36l-4.52-1.83c-2.13-.85-4.3-.99-6.58-.96l-5.27.07c-2.33-.16-4.37-1.03-6.41-2.1l-4.96-2.59-3.82-1.47c-2.57-1-4.55-2.84-5.77-5.33l-1.45-3.69c-.89-2.27-1.72-4.47-2.82-6.65l-2.36-4.67c-1.25-2.48-1.75-5.24-1.08-7.99l2.5-10.17,1.64-4.74c.67-1.94,2.03-3.47,3.68-4.81-2.87-4.61-4.32-9.76-3.94-15.15.46-6.55,4.08-13.31,9.82-16.59,1.95-1.11,4.07-1.42,6.3-1.15,2.15.25,4.05-.76,4.74-2.84.36-1.11.54-2.27.71-3.46.63-4.2,2.1-8.35,5.36-11.13,2.23-1.9,5.05-2.65,7.91-1.93l3.45.86c1.69.43,3.31.03,4.56-1.16,1.66-1.6,2.3-3.92,1.69-6.18-.61-2.27-2-3.79-2.9-5.88-.63-1.45-.68-3.11,0-4.56.82-1.75,2.59-2.92,4.59-3.02,4.51-.21,8.97.8,13.01,2.82,6.67,3.35,11.48,9.67,11.31,17.29-.05,2.36-.59,4.54-1.26,6.77-.46,1.54-.9,3.15.27,4.14,1.22,1.04,3.17.23,4.15-1.48,1.42-2.47.22-5.22,2.41-7.32,2.82-2.7,7.57-.68,10.27,2.17,2.18,2.3,3.49,5.2,3.95,8.35.3,2.08.22,4.07.09,6.17-.13,2.22.71,4.37,2.68,4.84l2.52.6c3.72.67,6.93,2.65,9.2,5.68,4.21,5.61,4.51,13.31,1.54,19.61l-2.26,3.89c3.42,1.81,5.55,4.94,6.1,8.73l1.21,10.69Z"/>
  </g>
  <g class="cls-3">
    <path class="cls-4" d="M157.75,127.71l-1.21-10.69c-.55-3.79-2.68-6.92-6.1-8.73l2.26-3.89c2.97-6.3,2.67-14-1.54-19.61-2.27-3.03-5.48-5.01-9.2-5.68l-2.52-.6c-1.97-.47-2.81-2.62-2.68-4.84.13-2.1.21-4.09-.09-6.17-.46-3.15-1.77-6.05-3.95-8.35-2.7-2.85-7.45-4.87-10.27-2.17-2.19,2.1-.99,4.85-2.41,7.32-.98,1.71-2.93,2.52-4.15,1.48-1.17-.99-.73-2.6-.27-4.14.67-2.23,1.21-4.41,1.26-6.77.17-7.62-4.64-13.94-11.31-17.29-4.04-2.02-8.5-3.03-13.01-2.82-2,.1-3.77,1.27-4.59,3.02-.68,1.45-.63,3.11,0,4.56.9,2.09,2.29,3.61,2.9,5.88.61,2.26-.03,4.58-1.69,6.18-1.25,1.19-2.87,1.59-4.56,1.16l-3.45-.86c-2.86-.72-5.68.03-7.91,1.93-3.26,2.78-4.73,6.93-5.36,11.13-.17,1.19-.35,2.35-.71,3.46-.69,2.08-2.59,3.09-4.74,2.84-2.23-.27-4.35.04-6.3,1.15-5.74,3.28-9.36,10.04-9.82,16.59-.38,5.39,1.07,10.54,3.94,15.15-1.65,1.34-3.01,2.87-3.68,4.81l-1.64,4.74-2.5,10.17c-.67,2.75-.17,5.51,1.08,7.99l2.36,4.67c1.1,2.18,1.93,4.38,2.82,6.65l1.45,3.69c1.22,2.49,3.2,4.33,5.77,5.33l3.82,1.47,4.96,2.59c2.04,1.07,4.08,1.94,6.41,2.1l5.27-.07c2.28-.03,4.45.11,6.58.96l4.52,1.83c2.8,1.13,5.59,1.5,8.73,1.36l19.11-.83c3.32-.14,6.41-1.17,8.85-3.32l2.65-2.35c2.3-2.22,5.04-3.38,8.26-3.54,4.52-.21,8.53-2.35,11.11-6.04l1.57-2.48c1.14-1.78,2.44-3.27,4.12-4.54,1.99-1.51,3.48-3.39,4.46-5.69,1.18-2.8,1.74-5.71,1.4-8.74ZM52.69,84.2c1.47-2.57,4.92-6.11,7.73-6.04l2.72.06c3.59.08,6.7-2.11,7.85-5.49.42-1.26.6-2.51.76-3.84.42-3.33,1.37-6.7,3.87-8.96,1.25-1.13,2.87-1.62,4.53-1.21l3.67.89c2.82.69,5.67.01,7.87-1.89,3.13-2.7,4.27-6.97,3.06-10.93-.45-1.5-1.13-2.82-1.91-4.17l-1.15-2.01c-.13-.22-.11-.81,0-1.04.12-.26.59-.62.97-.64,4.34-.21,8.58.84,12.32,3.04,5.37,3.15,8.77,8.79,7.67,15.07l-1,3.74c-.33,1.27-.68,2.51-.62,3.82.21,3.84,3.66,6.5,7.4,5.66,2.26-.51,4.1-1.93,5.23-3.95,1.66-2.98,1.04-5.62,1.61-6.3.54-.63,2.44.27,3.55,1.15,1.71,1.35,2.84,3.19,3.47,5.3.53,1.78.58,3.59.52,5.46l-.1,3.18c.09,3.21,1.95,5.92,4.9,7.15,1.04.44,2.1.66,3.24.84,3.49.53,6.39,2.57,8.09,5.69,2.18,4,2.3,8.68.66,12.94-.65,1.67-1.55,3.12-2.58,4.62-3.32-1.75-6.31-3.58-9.26-5.7-1.97-1.41-4.09-2.16-6.48-2.47-2.44-.31-3.82-.87-5.31-2.81-1.58-2.06-3.63-3.5-6.15-4.26l-5.92-1.79c-2.43-.73-4.63-1.79-6.85-3.01l-2.89-1.57c-2.47-1.35-5.25-1.62-8.01-.89l-14.21,3.75c-2.59.68-4.56,2.35-6.13,4.42l-1.76,2.32c-.85,1.12-2.12,1.78-3.47,2.2l-2.92.6c-2.21.16-4.14.93-5.98,2.14l-8.17,5.39c-4.01-6.29-4.5-14.05-.82-20.46ZM91.22,109.14c-2.62-2.01-5.28-3.8-8.1-5.54-1.72-1.05-3.44-1.83-5.33-2.51l-2.39-.87c-.21-.08-.51-.39-.57-.58-.07-.22.07-.75.26-.89,1.47-1.13,2.57-2.45,3.59-3.99,1.15-1.73,2.66-2.91,4.7-3.44l13.7-3.57c1.81-.48,3.66-.32,5.27.54l3.17,1.71c2.36,1.26,4.69,2.35,7.26,3.14l6.02,1.83c2.28.7,3.62,2.33,4.96,4.21,1.47,2.05-2.51,4.59-5.64,5.11-2.51.43-4.81,1.1-7.06,2.3l-5.15,2.75c-6.19,3.31-8.92,4.23-14.69-.2ZM89.62,122.74c-1.4.48-2.82.8-4.31.97l-5.06.55c-2.23.25-4.27.74-6.3,1.47-.93.33-1.91.29-2.79-.18-2.18-1.16-4.37-2.06-6.7-2.9-2.99-1.07-5.68-2.46-8.24-4.32l-5.48-3.99c-1.39-1.01,1.06-3.76,2.6-4.78l10.94-7.27c1.64-1.09,3.52-1.25,5.34-.61l6.21,2.18c2.33.83,4.42,1.89,6.48,3.25,1.73,1.15,3.46,2.13,5.03,3.5,2.3,2,4.16,4.46,5.49,7.17,1.1,2.26-.93,4.18-3.21,4.96ZM96.92,159.78c-.14.8-.58,1.4-1.4,1.46-2.29.16-4.5-.21-6.62-1.09l-4.78-1.96c-2.48-1.02-5.04-1.24-7.7-1.17l-4.49.12c-1.24.04-2.54-.18-3.62-.73l-3.41-1.74c-2.21-1.12-4.32-2.26-6.68-3.04-2.62-.88-4.45-2.76-5.3-5.41-1.07-3.35-2.47-6.44-4.03-9.6l-2.19-4.44c-.82-1.66-.8-3.45-.36-5.24l2.28-9.22c.06-.26.36-.58.56-.62.21-.04.65.11.83.26l4.99,4.08c2.27,1.87,4.86,3.08,7.59,4.17l3.97,1.59c.99.39,1.9,1.06,2.54,1.91.69.92.91,2.08.96,3.22.16,3.07,1.48,5.73,3.94,7.58l3.71,2.37,1.83,1.13c.96.6,1.47,1.59,1.66,2.69l.37,2.2c.06.36.57.76.87.82.39.08,1-.19,1.13-.66.91-3.43.59-5.93-2.47-7.81l-4.59-2.84c-1.99-1.23-3.07-3.36-3.06-5.7.02-3.28,4.05-4.05,7.03-4.44l10.14-1.35,6.33-.87c3.17-.43,8.82.91,12.15,1.92,1.6.48,2.97,1.33,4.13,2.51l4.63,4.69c.8.81.85,1.97.02,2.79-.96.94-2.1,1.72-3.33,2.33l-3.18,1.56c-2.66,1.32-4.9,3.1-6.69,5.47-1.03,1.37-2.23,2.44-3.61,3.42-1.67,1.19-2.8,2.81-3.33,4.8l-.82,4.84ZM125.87,147.64l-.51,4.6c-.19,1.68-.81,3.1-1.98,4.26-2.69,2.66-4.83,3.82-8.78,3.97l-13.68.51c-.33.01-.8-.15-.97-.32-.78-.81.43-4.05,1.11-5.66.48-1.12,1.32-1.99,2.26-2.74,1.41-1.11,2.62-2.3,3.74-3.7,1.4-1.76,3-3.17,5.03-4.18l7.05-3.47c2.64-1.3,4.65.3,6.07,2.67.74,1.26.82,2.62.66,4.06ZM152.52,135.47c-.75,1.54-1.93,2.71-3.26,3.76-1.95,1.54-3.52,3.25-4.75,5.41l-1.95,2.9c-1.83,2.29-4.4,3.52-7.32,3.66-1.99.09-3.82.4-5.7,1.06-.28.1-.95-.04-1.06-.28-.3-.64-.29-1.34-.12-2l.68-2.57c.49-1.86.19-3.68-.86-5.31l-2.8-3.54c-.47-.58-1.07-1.21-1.08-2.08,0-.76.58-1.44,1.15-1.87,3.23-2.41,6.53-4.62,10.14-6.46l6.28-3.2c2.7-1.37,5.25-2.9,7.51-4.9.42-.36.48-1.07.3-1.4-.28-.51-.99-.69-1.55-.4l-10.91,5.7-7.96,4.34-4.36,2.66c-1.52.92-3.3.87-4.87.1-1.39-.67-2.49-1.67-3.48-2.87-1.42-1.74-3.12-3.07-5.29-3.77l-3.69-1.18c-2.11-.68-5.13-2.4-4.88-4.49.16-1.33.92-2.44,1.85-3.42,2.36-2.45,5.13-4.41,8.16-6,1.65-.86,3.39-1.33,5.23-1.66,3.14-.57,5.84-1.98,8.05-4.27,1.09-1.13,2.43-1.6,3.98-1.34l2.7.44c1.03.17,1.96.74,2.83,1.35,2.76,1.95,5.57,3.6,8.49,5.3l4.95,2.88c2.1,1.22,3.4,3.22,3.7,5.65l1.21,9.84c.33,2.76-.1,5.48-1.32,7.96Z"/>
    <path class="cls-4" d="M61.86,93.41l-1.34,2.14c-.19.31-.85.43-1.2.3-.31-.12-.69-.62-.62-1.1.6-3.98,3.31-7.16,7.08-8.56,1.47-.54,2.91-.81,4.46-1.09,3.97-.73,5.59-3.02,7-6.51s3.97-6.06,7.4-7.48c1.96-.81,3.97-1.19,6.09-1.48l3.91-.55c1.75-.25,3.33-1.08,4.6-2.29,1.13-1.07,1.82-2.36,2.46-3.76.17-.38.76-.62,1.08-.55.49.1.78.53.77,1.07-.09,5.09-4.28,8.5-9.05,9.19l-4.25.61c-4.13.6-7.8,2.38-9.53,6.28l-1.04,2.35c-1.35,3.04-3.83,5.27-7.04,6.21-1.38.4-2.73.59-4.15.86-2.73.52-5.13,1.96-6.64,4.36Z"/>
    <path class="cls-4" d="M140.59,94.12c1.28,1.2,2.42,3.27,1.42,3.96-.27.19-.95.23-1.26-.06-1.37-1.32-2.86-2.28-4.7-2.86-2.47-.77-4.37-2.41-5.55-4.72-1.38-2.7-3.53-4.65-6.43-5.62l-4.67-1.14c-2.01-.49-3.95-1.04-5.7-2.14-1.48-.93-2.67-2.2-3.38-3.78-.27-.6-.5-1.4-.13-1.93.41-.59,1.26-.36,1.68.11,4.33,4.85,9.61,3.73,14.79,6.04,2.91,1.3,5.1,3.48,6.52,6.32,2.07,4.13,4.9,3.45,7.42,5.83Z"/>
    <path class="cls-4" d="M69.25,148.03c-1.95.12-3.8-1.02-4.59-2.69-.34-.72-.33-1.49.08-2.21.26-.46.95-.94,1.7-.98,2-.11,3.91,1.14,4.58,3.01.23.65.18,1.36-.18,1.94-.25.41-.83.88-1.57.92Z"/>
    <path class="cls-4" d="M59.17,137.44c-1.46-.13-2.63-1.2-3.02-2.54-.19-.67-.03-1.36.4-1.87.38-.46,1.12-.74,1.84-.61,1.43.26,2.57,1.46,2.76,2.91.16,1.18-.73,2.22-1.98,2.11Z"/>
    <path class="cls-4" d="M90.54,152.56c-1.34.07-2.23-1-2.03-2.22.25-1.5,1.49-2.65,3.02-2.75.59-.04,1.22.23,1.57.6.41.44.59,1.11.46,1.76-.27,1.42-1.49,2.53-3.02,2.61Z"/>
  </g>
</svg>