<?xml version="1.0" encoding="UTF-8"?>
<svg id="Layer_1" data-name="Layer 1" xmlns="http://www.w3.org/2000/svg" xmlns:xlink="http://www.w3.org/1999/xlink" viewBox="0 0 200 200">
  <defs>
    <style>
      .cls-1 {
        filter: url(#drop-shadow-3);
      }

      .cls-2 {
        fill: #030303;
      }

      .cls-3 {
        filter: url(#drop-shadow-10);
      }

      .cls-4 {
        fill: #e6cf8a;
      }
    </style>
    <filter id="drop-shadow-3" x="19.56" y="58.52" width="162.96" height="84.96" filterUnits="userSpaceOnUse">
      <feOffset dx="1" dy="1"/>
      <feGaussianBlur result="blur" stdDeviation="1"/>
      <feFlood flood-color="#000" flood-opacity=".33"/>
      <feComposite in2="blur" operator="in"/>
      <feComposite in="SourceGraphic"/>
    </filter>
    <filter id="drop-shadow-10" x="19.56" y="58.52" width="162.96" height="84.96" filterUnits="userSpaceOnUse">
      <feOffset dx="1" dy="1"/>
      <feGaussianBlur result="blur-2" stdDeviation="1"/>
      <feFlood flood-color="#000" flood-opacity=".33"/>
      <feComposite in2="blur-2" operator="in"/>
      <feComposite in="SourceGraphic"/>
    </filter>
  </defs>
  <g class="cls-1">
    <path class="cls-2" d="M178.29,82.63c.01.46-.48,1.41-1.2,1.27l-14.06-2.78c-2.21-.44-4.22-1.11-6.26-2.02-1.91-.86-3.54-2.05-4.92-3.61-1.68-1.9-3.84-3.02-6.39-3.37-2.62-.35-5.19-.36-7.85-.35-.08,0-.23.01-.23.05l.06.27,15.59,25.61,13.27,21.75c.57.94.89,1.77.89,2.88v11.34c0,2.99-2.22,5.38-5.33,5.59l-123.71-.02c-2.9,0-5.25-2.52-5.26-5.3l-.05-10.68c-.01-1-.03-2.16.49-3.02l3.57-5.94,26.57-43.3c-3.67-.01-7.61-.12-11.03,1.1-1.63.6-2.94,1.55-4.07,2.84-1.42,1.61-3.08,2.87-5.06,3.75-1.86.82-3.71,1.41-5.73,1.87l-14.4,3.29c-.74.17-1.33-.46-1.44-.98-.15-.71.2-1.51.97-1.68l14.05-3.23c3.3-.75,6.98-2.11,9.23-4.6,1.63-1.8,3.59-3.09,5.96-3.79,1.84-.55,3.71-.84,5.66-.94l7.55-.38,1.87-3.11c1.34-2.23,3.71-4.37,6.57-4.37l53.15-.03c1.96,0,3.55.98,4.98,2.1,1.55,1.23,2.56,2.76,3.08,4.7.14.51.55,1.06.85,1.54l7.63.25c4.1.13,7.83,1.18,10.61,4.25,1.1,1.23,2.32,2.22,3.84,2.93,2.03.95,4.09,1.62,6.32,2.07l13.14,2.67c.73.15,1.08.7,1.09,1.38Z"/>
  </g>
  <g class="cls-3">
    <path class="cls-4" d="M177.2,81.25l-13.14-2.67c-2.23-.45-4.29-1.12-6.32-2.07-1.52-.71-2.74-1.7-3.84-2.93-2.78-3.07-6.51-4.12-10.61-4.25l-7.63-.25c-.3-.48-.71-1.03-.85-1.54-.52-1.94-1.53-3.47-3.08-4.7-1.43-1.12-3.02-2.1-4.98-2.1l-53.15.03c-2.86,0-5.23,2.14-6.57,4.37l-1.87,3.11-7.55.38c-1.95.1-3.82.39-5.66.94-2.37.7-4.33,1.99-5.96,3.79-2.25,2.49-5.93,3.85-9.23,4.6l-14.05,3.23c-.77.17-1.12.97-.97,1.68.11.52.7,1.15,1.44.98l14.4-3.29c2.02-.46,3.87-1.05,5.73-1.87,1.98-.88,3.64-2.14,5.06-3.75,1.13-1.29,2.44-2.24,4.07-2.84,3.42-1.22,7.36-1.11,11.03-1.1l-26.57,43.3-3.57,5.94c-.52.86-.5,2.02-.49,3.02l.05,10.68c0,2.78,2.36,5.3,5.26,5.3l123.71.02c3.11-.21,5.33-2.6,5.33-5.59v-11.34c0-1.11-.32-1.94-.89-2.88l-13.27-21.75-15.59-25.61-.06-.27s.15-.05.23-.05c2.66-.01,5.23,0,7.85.35,2.55.35,4.71,1.47,6.39,3.37,1.38,1.56,3.01,2.75,4.92,3.61,2.04.91,4.05,1.58,6.26,2.02l14.06,2.78c.72.14,1.21-.81,1.2-1.27-.01-.68-.36-1.23-1.09-1.38ZM61.12,80.81l9.12-14.83c.64-1.05,2.1-1.98,3.36-1.98l52.74-.03c1.13,0,2.49.5,2.56.96.11.65-2.48,1.97-3.75,2.47-2.28.89-4.57,1.5-7.01,1.78l-5.72.66c-5.38.61-10.58,1.87-15.5,4.1-2.19.99-4.88,2.52-6.08,4.49-.93,1.51-.55,3.38.99,4.3l2.19,1.06,1.68.93c.97.54,1.07,1.72.54,2.63s-1.27,1.67-2.12,2.34c-3.65,2.9-7.96,4.55-12.22,6.3l-5.84,2.41c-2.69,1.11-4.93,2.76-7.02,4.76-2.07,1.96-4.45,3.33-7.21,4.02l-4.47.84c-2.69.35-5.14,1.17-7.47,2.52l-10.8,6.22,22.03-35.95ZM164.02,133.76c0,1.33-1.01,2.37-2.36,2.37H38.16c-1.27,0-2.14-1.27-2.14-2.33v-8.29l1.21-.02h125.23l1.58-.08-.02,8.35ZM141.72,85.21l21.72,35.59c.22.37.16.98.02,1.3-.12.3-.6.66-1.13.66H37.76c-.58,0-1.07-.35-1.2-.7-.18-.55.01-1.07.46-1.38l3.33-2.24,10.49-6.12c2.2-1.28,4.52-1.88,7.01-2.34l4.35-.79c3.09-.78,5.83-2.25,8.15-4.45,2-1.91,4.09-3.5,6.67-4.56l6.67-2.73c4.23-1.72,9.01-3.73,12.33-6.67,1.96-1.74,3.37-4.27,1.96-6.51-.59-.95-1.54-1.6-2.55-2.05l-2.42-1.08c-.62-.28-.87-1.02-.5-1.61.43-.69,1.05-1.28,1.74-1.76,4.33-3.02,11.59-5.11,16.86-5.72l6.46-.74c4.52-.52,8.64-1.65,12.38-4.25.26-.19.7-.05.89.25l10.88,17.9Z"/>
    <path class="cls-4" d="M123.55,119.95c-.55.32-1.18-.08-1.33-.45-.2-.51-.07-1.03.41-1.33,2.42-1.52,4.64-3.19,6.67-5.23,2.27-2.29,4.72-4.16,7.62-5.65,3.62-1.86,7.02-3.89,10.21-6.41.48-.38,1.22-.07,1.43.28.33.57.13,1.08-.36,1.45-3.03,2.36-6.17,4.33-9.6,6.08-2.78,1.42-5.24,3.08-7.44,5.29s-4.75,4.29-7.61,5.96Z"/>
  </g>
</svg>