<?xml version="1.0" encoding="UTF-8"?>
<svg id="Layer_1" data-name="Layer 1" xmlns="http://www.w3.org/2000/svg" xmlns:xlink="http://www.w3.org/1999/xlink" viewBox="0 0 200 200">
  <defs>
    <style>

      .cls-7 {
        fill: #030303;
      }

      .cls-9 {
        fill: #e6cf8a;
      }
    </style>
  </defs>
  <g class="cls-6">
    <path class="cls-7" d="M33.06,110.47c-1.04-.31-1.73-.88-1.62-2.01.09-.96,1.01-1.71,2.09-1.47,4.77,1.07,9.55,4.67,11.94,9.06.54,1-.08,2.09-.89,2.39-1.15.41-1.71-.3-2.29-1.19-2.11-3.27-5.51-5.69-9.23-6.78Z"/>
  </g>
  <g class="cls-5">
    <path class="cls-7" d="M39.67,98.53c-.29-.98-.02-1.89.92-2.32.8-.37,1.98.02,2.27,1.02,1.45,4.89,4.03,10.63,8.59,13.24.88.51,1.32,1.38.96,2.22-.34.8-1.37,1.34-2.24.9-2.47-1.21-4.38-3.13-5.99-5.37-2.11-2.95-3.46-6.23-4.51-9.69Z"/>
  </g>
  <g class="cls-2">
    <path class="cls-7" d="M50.79,100.55c-.12-3.14-.12-6.18-.01-9.32.21-6.72,3.13-12.54,9.04-15.86,2.45-1.38,5.01-2.31,7.78-2.92l10.16-2.26c.94-.2,1.82-.45,2.65-.86,1.86-.92,2.9-2.7,2.86-4.76l-.1-6.07-.92-10.41c-.44-4.98,2.59-8.21,7.22-9.62,2.86-.86,5.75-1.2,8.74-1.31,4.72-.16,11.14.23,15.18,2.51,3.08,1.74,4.71,4.91,4.4,8.45l-.88,9.83c-.22,2.42-.22,4.74-.09,7.15.11,2.08,1.41,3.76,3.34,4.48l2.77.75,9.59,2.15c2.69.61,5.19,1.51,7.58,2.84,3.82,2.14,6.63,5.43,8.02,9.58.71,2.1,1.14,4.21,1.13,6.46v9.19c-.02,2.12-.82,4.1-2.23,5.64-1.36,1.49-3.19,2.35-5.19,2.65l-5.81.45-21.28.2-49.84-.18c-2.16-.01-4.16-.16-6.26-.39-4.53-.51-7.68-3.78-7.85-8.37Z"/>
  </g>
  <g class="cls-3">
    <path class="cls-7" d="M148.16,110.71c1.88-1.1,3.4-2.48,4.68-4.27,2-2.8,3.32-5.93,4.25-9.25.24-.89,1.12-1.29,1.94-1.12.74.16,1.53.99,1.31,1.93-1.37,5.83-4.9,12.65-10.37,15.52-.84.44-1.82.17-2.26-.55-.4-.66-.34-1.8.45-2.26Z"/>
  </g>
  <g class="cls-4">
    <path class="cls-7" d="M164.18,138.62c.67,3.64.13,7.32-1.32,10.72-1.62,3.81-4.46,6.84-8.11,8.8-2.66,1.43-5.47,2.47-8.52,2.7l-15.32,1.2c-11.19.65-22.37.87-33.61.82-13.98-.06-27.86-.63-41.76-1.82-3.57-.3-6.89-1.1-10.01-2.76-2.49-1.33-4.63-3.04-6.3-5.34-5.44-7.5-5.27-19.28,3.4-23.33.62-.29,1.07-.7.8-1.45-.58-1.64-.25-3.27.93-4.56,1.09-1.19,2-2.49,2.87-3.87,1.13-1.8,2.87-2.91,5.05-2.88l2.39.02c.97.01,1.62-.5,2.18-1.19l1.75-2.16c1.95-2.41,9.75-3.49,12.95-2.11l3.8,1.63c.7.31,1.55.65,2.34.49,2.06-.4,4.39-2.2,7.7-2.48,2.68-.22,5.36.06,7.9.94,1.41.49,2.53,1.41,3.77,2.18l2.08,1.31c.54.34,1.22.21,1.7-.16l1.07-.83,4.86-2.58c2.03-1.07,4.19-1.12,6.47-.92l3.65.32,3.68-.46c1.34-.17,2.68.01,3.78.8l1.89,1.34c.86.62,1.84.7,2.79.21l2.12-1.11c3.4-1.78,8.72,1.49,11.52,4.08.95.88,2,1.33,3.32,1.37l2.02.06c1.74.05,3.19.99,4.32,2.37l3.43,4.2c2.43,2.98-.37,4.51,1.61,5.44,3.62,1.69,6.09,5.04,6.81,9.01Z"/>
  </g>
  <g class="cls-1">
    <path class="cls-7" d="M167.01,110.4c-3.77,1.1-7.19,3.49-9.33,6.87-.59.93-1.18,1.55-2.28,1.19-.84-.28-1.45-1.44-.91-2.41,2.55-4.56,6.96-7.86,12.04-9.14,1.04-.27,1.88.58,2.01,1.42.18,1.12-.46,1.76-1.53,2.07Z"/>
  </g>
  <g class="cls-8">
    <path class="cls-9" d="M164.18,138.62c-.72-3.97-3.19-7.32-6.81-9.01-1.98-.93.82-2.46-1.61-5.44l-3.43-4.2c-1.13-1.38-2.58-2.32-4.32-2.37l-2.02-.06c-1.32-.04-2.37-.49-3.32-1.37-2.8-2.59-8.12-5.86-11.52-4.08l-2.12,1.11c-.95.49-1.93.41-2.79-.21l-1.89-1.34c-1.1-.79-2.44-.97-3.78-.8l-3.68.46-3.65-.32c-2.28-.2-4.44-.15-6.47.92l-4.86,2.58-1.07.83c-.48.37-1.16.5-1.7.16l-2.08-1.31c-1.24-.77-2.36-1.69-3.77-2.18-2.54-.88-5.22-1.16-7.9-.94-3.31.28-5.64,2.08-7.7,2.48-.79.16-1.64-.18-2.34-.49l-3.8-1.63c-3.2-1.38-11-.3-12.95,2.11l-1.75,2.16c-.56.69-1.21,1.2-2.18,1.19l-2.39-.02c-2.18-.03-3.92,1.08-5.05,2.88-.87,1.38-1.78,2.68-2.87,3.87-1.18,1.29-1.51,2.92-.93,4.56.27.75-.18,1.16-.8,1.45-8.67,4.05-8.84,15.83-3.4,23.33,1.67,2.3,3.81,4.01,6.3,5.34,3.12,1.66,6.44,2.46,10.01,2.76,13.9,1.19,27.78,1.76,41.76,1.82,11.24.05,22.42-.17,33.61-.82l15.32-1.2c3.05-.23,5.86-1.27,8.52-2.7,3.65-1.96,6.49-4.99,8.11-8.8,1.45-3.4,1.99-7.08,1.32-10.72ZM127.09,118.3l4.51-2.91c1.01-.65,2.25-.73,3.38-.3,1.29.48,2.63.97,3.69,1.84l2.59,2.14c1.17.96,2.53,1.54,4.07,1.6l2.13.07c1.01.04,1.85.53,2.47,1.3l3.07,3.81c.55.69.5,1.62-.28,2.24-.9.73-2.06,1.07-3.28,1.09l-25.88.54c-.49.01-.99-.09-1.44-.2-.24-.05-.34-.73-.17-.91l1.93-2.16c1.12-1.27,1.62-2.81,1.56-4.53-.05-1.49.4-2.83,1.65-3.62ZM100.04,125.2c1.12-1.49,1.75-3.15,1.89-5.02.09-1.26.7-2.45,1.81-3.05l4.49-2.4c1.31-.7,2.74-.78,4.22-.63l3.78.38c1.99.2,5.14-1,6.3-.21l1.69,1.16c1.53,1.04-.67,2-1.26,3.9-.65,2.1.2,4.04-1.3,5.59l-3.18,3.31c-.94.98-2.34,1.48-3.8,1.49l-13.29.06c-1.11,0-1.68-.57-1.91-1.52-.28-1.13-.15-2.11.56-3.06ZM81.34,115.57c3.32-1.52,4.83-1.66,8.37-1.21,1.92.25,3.49,1.03,5.1,2.07l3.45,2.24c.62.4.82,1.09.71,1.82-.09.57-.16,1.33-.46,1.81l-1.26,2c-1.66,2.62-.13,4.29-.68,5.06-.12.16-.52.39-.75.39l-3.44-.06c-2.69-.04-5.11-2.92-6.07-5.44-.51-1.34-1.29-2.49-2.26-3.56l-3.09-3.41c-.17-.18-.28-.7-.25-.93.03-.25.35-.65.63-.78ZM47.01,125.31l2.79-3.82c.68-.93,1.56-1.53,2.74-1.52h2.57c1.35.02,2.65-.56,3.48-1.59l1.65-2.02c.6-.74,1.35-1.35,2.29-1.61,2.3-.65,6.02-1.27,7.97-.37,1.82.84,3.72,1.4,5.45,2.42,1.74,1.03,3.24,2.41,4.85,3.62,1.2.89,2,2.11,2.44,3.52.5,1.62,1.31,3.09,2.36,4.36.18.2.26.74.18.95-.08.24-.54.47-.92.46l-34.33-.58c-1.11-.02-2.15-.42-3.02-1-1.02-.68-1.16-1.92-.5-2.82ZM160.49,144.81c-.81,4.1-3.15,7.59-6.83,9.74-2.61,1.52-5.36,2.47-8.35,2.69l-15.18,1.13c-15,.83-29.96.99-45,.59-10.23-.27-20.39-.77-30.54-1.74-2.88-.28-5.48-1.13-7.95-2.49-3.25-1.79-5.57-4.68-6.67-8.21-1.13-3.59-1.22-7.59.82-10.78,1.74-2.55,4.59-3.92,7.71-3.51l38.52.66,28,.02,38.25-.71c3.38.3,6.05,2.64,7.04,5.84.69,2.22.64,4.48.18,6.77Z"/>
    <path class="cls-9" d="M148.12,84.9c-1.39-4.15-4.2-7.44-8.02-9.58-2.39-1.33-4.89-2.23-7.58-2.84l-9.59-2.15-2.77-.75c-1.93-.72-3.23-2.4-3.34-4.48-.13-2.41-.13-4.73.09-7.15l.88-9.83c.31-3.54-1.32-6.71-4.4-8.45-4.04-2.28-10.46-2.67-15.18-2.51-2.99.11-5.88.45-8.74,1.31-4.63,1.41-7.66,4.64-7.22,9.62l.92,10.41.1,6.07c.04,2.06-1,3.84-2.86,4.76-.83.41-1.71.66-2.65.86l-10.16,2.26c-2.77.61-5.33,1.54-7.78,2.92-5.91,3.32-8.83,9.14-9.04,15.86-.11,3.14-.11,6.18.01,9.32.17,4.59,3.32,7.86,7.85,8.37,2.1.23,4.1.38,6.26.39l49.84.18,21.28-.2,5.81-.45c2-.3,3.83-1.16,5.19-2.65,1.41-1.54,2.21-3.52,2.22-5.64v-9.19c.02-2.25-.41-4.36-1.12-6.46ZM141.36,105l-6.22.42-27.02.17-30.34-.02-7.94-.07c-3.59-.03-7.08-.08-10.63-.4-2.81-.25-4.7-2.15-4.7-4.91v-8.48c.01-1.66.3-3.24.72-4.83.96-3.66,3.37-6.55,6.72-8.3,2.03-1.06,4.1-1.79,6.36-2.3l9.92-2.23c1.16-.27,2.26-.53,3.33-1,3.35-1.46,5.36-4.56,5.5-8.21.2-5.43-.36-11.45-1.03-16.87-.53-4.28,3.13-5.71,6.99-6.35,4.6-.77,9.25-.77,13.86-.02,3.78.61,7.52,1.97,7.13,6.16l-.96,10.3c-.21,2.35-.19,4.57-.08,6.92.2,4.14,2.88,7.48,6.89,8.57l7.35,1.69,6.62,1.64c1.89.47,3.6,1.28,5.25,2.31,2.62,1.63,4.52,4.01,5.48,6.95.59,1.82.92,3.66.93,5.6v8.56c.01,2.46-1.67,4.37-4.13,4.7Z"/>
    <path class="cls-9" d="M52.41,112.69c-.34.8-1.37,1.34-2.24.9-2.47-1.21-4.38-3.13-5.99-5.37-2.11-2.95-3.46-6.23-4.51-9.69-.29-.98-.02-1.89.92-2.32.8-.37,1.98.02,2.27,1.02,1.45,4.89,4.03,10.63,8.59,13.24.88.51,1.32,1.38.96,2.22Z"/>
    <path class="cls-9" d="M160.34,98c-1.37,5.83-4.9,12.65-10.37,15.52-.84.44-1.82.17-2.26-.55-.4-.66-.34-1.8.45-2.26,1.88-1.1,3.4-2.48,4.68-4.27,2-2.8,3.32-5.93,4.25-9.25.24-.89,1.12-1.29,1.94-1.12.74.16,1.53.99,1.31,1.93Z"/>
    <path class="cls-9" d="M167.01,110.4c-3.77,1.1-7.19,3.49-9.33,6.87-.59.93-1.18,1.55-2.28,1.19-.84-.28-1.45-1.44-.91-2.41,2.55-4.56,6.96-7.86,12.04-9.14,1.04-.27,1.88.58,2.01,1.42.18,1.12-.46,1.76-1.53,2.07Z"/>
    <path class="cls-9" d="M44.58,118.44c-1.15.41-1.71-.3-2.29-1.19-2.11-3.27-5.51-5.69-9.23-6.78-1.04-.31-1.73-.88-1.62-2.01.09-.96,1.01-1.71,2.09-1.47,4.77,1.07,9.55,4.67,11.94,9.06.54,1-.08,2.09-.89,2.39Z"/>
    <path class="cls-9" d="M151.66,138.92c-5.22.71-10.32,1.05-15.56,1.36-12.2.71-24.38.95-36.63.95-13.79,0-27.49-.36-41.23-1.32l-10.05-1.03c-.75-.08-1.19-.96-1.14-1.54.06-.7.64-1.35,1.44-1.29l14.48,1.15c14.65.77,29.24,1.15,43.93.99,9.46-.11,18.83-.35,28.26-.84l16.37-1.3c.79-.06,1.39.59,1.43,1.28.04.65-.41,1.48-1.3,1.6Z"/>
    <path class="cls-9" d="M66.07,122.93c-.64.14-1.15.39-1.63.74-.51.38-1.24.39-1.69.01s-.64-1.14-.31-1.74c.6-1.09,1.71-1.65,2.94-1.83.82-.12,1.63.25,1.81,1.13.13.61-.26,1.5-1.12,1.69Z"/>
    <path class="cls-9" d="M71.19,127.52c-.39.49-.76.87-1.29.91s-1.12-.23-1.35-.73c-.35-.76.05-1.39.5-1.97.52-.67,1.44-.86,2.05-.39.73.55.65,1.47.08,2.18Z"/>
    <path class="cls-9" d="M115.16,123.93c-.46.88-1.7.89-2.37.22-.62-.61-1.3-.91-2.17-.96-.81-.04-1.4-.65-1.44-1.35-.05-.75.46-1.46,1.24-1.57,1.55-.22,2.79.44,3.92,1.37.67.55,1.34,1.29.82,2.28Z"/>
    <path class="cls-9" d="M140.97,96.27c.03.92-.71,1.48-1.41,1.48s-1.44-.52-1.48-1.34c-.3-6.51-4.68-10.74-10.6-12.93-1.94-.72-3.9-1.23-5.95-1.61l-5.61-1.02c-.88-.16-1.39-.89-1.29-1.72.1-.88.91-1.43,1.84-1.26l6.53,1.17c4.66.84,10.08,3.05,13.39,6.48,2.81,2.91,4.46,6.62,4.57,10.75Z"/>
  </g>
</svg>