<?xml version="1.0" encoding="UTF-8"?>
<svg id="Layer_1" data-name="Layer 1" xmlns="http://www.w3.org/2000/svg" xmlns:xlink="http://www.w3.org/1999/xlink" viewBox="0 0 200 200">
  <defs>
    <style>
      .cls-1 {
        filter: url(#drop-shadow-2);
      }

      .cls-2 {
        fill: #030303;
      }

      .cls-3 {
        filter: url(#drop-shadow-13);
      }

      .cls-4 {
        fill: #e6cf8a;
      }
    </style>
    <filter id="drop-shadow-2" x="44.36" y="40.52" width="113.28" height="120.96" filterUnits="userSpaceOnUse">
      <feOffset dx="1" dy="1"/>
      <feGaussianBlur result="blur" stdDeviation="1"/>
      <feFlood flood-color="#000" flood-opacity=".33"/>
      <feComposite in2="blur" operator="in"/>
      <feComposite in="SourceGraphic"/>
    </filter>
    <filter id="drop-shadow-13" x="44.36" y="40.52" width="113.28" height="120.96" filterUnits="userSpaceOnUse">
      <feOffset dx="1" dy="1"/>
      <feGaussianBlur result="blur-2" stdDeviation="1"/>
      <feFlood flood-color="#000" flood-opacity=".33"/>
      <feComposite in2="blur-2" operator="in"/>
      <feComposite in="SourceGraphic"/>
    </filter>
  </defs>
  <g class="cls-1">
    <path class="cls-2" d="M151.45,88.88c1.79,3.91,2.36,8.28,1.68,12.54-.41,2.61-1.38,4.88-2.84,7.04l-5.8,8.53c-.11.17-.26.53-.24.69.1.7,4.72,3.14,4.94,11.32.13,4.43-.42,8.79-1.7,13.01-1.55,5.08-5.13,7.93-10.13,9.38l-5.88,1.36c-3.02.69-5.84,1.37-8.65,2.5-3.69,1.48-7.4,2.09-11.4,2.09h-20.13l-5.56-.45c-1.68-.13-3.29-.2-4.93.16-2.37.53-4.67.23-6.92-.64l-10.81-4.21c-2.02-.78-3.58-2.33-4.25-4.44l-4.25-13.56-.75-2.91c-.54-2.07.09-4.13,1.35-5.84.17-.24.05-.78-.13-1.07l-7.04-11.87c-1.21-2.03-1.65-4.09-1.31-6.46l2.42-16.91c.4-2.79,2.47-4.89,5.39-4.9,1.34-.01,2.54.41,3.69,1.03l4.98,2.69-3.86-18.7c-.43-2.08-.3-4.41,1-6.15l13.83-18.47c2.42-2.49,6.2-2.61,8.95-.47l14.9,13.58c1.59,1.45,2.74,3.12,2.97,5.33l1.06,10.39c1.51-.79,2.75-1.33,4.22-1.76,1.6-.48,3.01-1.23,4.33-2.29,3.95-3.19,9.09-4.39,14.03-3.11,4.51,1.17,6.07,4.82,8.38,5.97l3.52,1.75c2.13,1.06,3.84,2.5,5.13,4.48.93,1.43,2.08,2.61,3.57,3.47,2.78,1.63,4.87,3.92,6.24,6.9Z"/>
  </g>
  <g class="cls-3">
    <path class="cls-4" d="M151.45,88.88c-1.37-2.98-3.46-5.27-6.24-6.9-1.49-.86-2.64-2.04-3.57-3.47-1.29-1.98-3-3.42-5.13-4.48l-3.52-1.75c-2.31-1.15-3.87-4.8-8.38-5.97-4.94-1.28-10.08-.08-14.03,3.11-1.32,1.06-2.73,1.81-4.33,2.29-1.47.43-2.71.97-4.22,1.76l-1.06-10.39c-.23-2.21-1.38-3.88-2.97-5.33l-14.9-13.58c-2.75-2.14-6.53-2.02-8.95.47l-13.83,18.47c-1.3,1.74-1.43,4.07-1,6.15l3.86,18.7-4.98-2.69c-1.15-.62-2.35-1.04-3.69-1.03-2.92.01-4.99,2.11-5.39,4.9l-2.42,16.91c-.34,2.37.1,4.43,1.31,6.46l7.04,11.87c.18.29.3.83.13,1.07-1.26,1.71-1.89,3.77-1.35,5.84l.75,2.91,4.25,13.56c.67,2.11,2.23,3.66,4.25,4.44l10.81,4.21c2.25.87,4.55,1.17,6.92.64,1.64-.36,3.25-.29,4.93-.16l5.56.45h20.13c4,0,7.71-.61,11.4-2.09,2.81-1.13,5.63-1.81,8.65-2.5l5.88-1.36c5-1.45,8.58-4.3,10.13-9.38,1.28-4.22,1.83-8.58,1.7-13.01-.22-8.18-4.84-10.62-4.94-11.32-.02-.16.13-.52.24-.69l5.8-8.53c1.46-2.16,2.43-4.43,2.84-7.04.68-4.26.11-8.63-1.68-12.54ZM106.8,75.25c2.18-.65,4.13-1.58,5.91-3.02,2.8-2.26,6.21-3.22,9.8-2.72,4.64.65,5.63,4.35,8.91,5.96l3.63,1.79c1.46.72,2.58,1.77,3.55,3.07l1.84,2.49c.09.11.21.39.23.52.02.15-.23.44-.39.51l-6.73,3.01c-2.24,1.01-4.48,1.59-7.04,1.25l-5-.97-4.26-.71c-2.76-.25-5.41.17-7.89,1.38l-5.1,2.5c-.09.04-.32.08-.41.08s-.23-.29-.24-.38l-1.06-11.06c-.18-1.84,2.43-3.16,4.25-3.7ZM97.37,64.01c.07,0,.17.25.18.35l2.66,26.86c.1.98-.01,1.72-.44,2.57l-1.51,2.96-5.05,11.23c-1.07,2.37-1.69,4.6-1.7,7.14-.01,1.34-.39,2.47-1.26,3.5-.34.42-.66.86-1.2.81-.45-.04-1.24-.21-1.32-.84l-5.67-46.23c-.07-.55.18-.9.59-1.13l14.36-7.23h.36ZM79.47,46.63c.1-.39,1.07-.01,1.9.75l14.58,13.36c.11.1.26.45.29.59.04.16-.18.46-.44.59l-13.42,6.75c-.15.07-.44.12-.55.06-.11-.05-.24-.33-.25-.51l-2.19-21.03c-.01-.14.05-.45.08-.56ZM63.31,65.15l.85-1.31,8.43-11.28,3.72-4.81.46-.21c.12-.06.35.27.36.45l2.12,20.52c.01.18-.06.51-.18.58-.11.07-.42.11-.58.08l-14.59-3.15c-.24-.05-.44-.15-.53-.22-.11-.09-.15-.52-.06-.65ZM63.04,69.89c-.12-.53-.14-.91-.05-1.51l15.88,3.36c.42.09.77.39.83.86l5.55,44.86c.01.09-.09.35-.16.4-.07.04-.35.06-.44.03l-2.07-.88c-.26-.11-.66-.56-.79-.94l-6.07-18.12c-.66-1.97-1.86-3.43-3.59-4.43l-3.87-2.23c-.45-.26-.87-.75-.99-1.33l-4.23-20.07ZM50.62,109.91c-.55-.93-.61-2.06-.46-3.12l2.32-16.31c.02-.13.23-.42.35-.43.12-.01.33.19.4.35l10.21,20.84c.26.54,1.01.58,1.46.36.36-.17.72-.81.47-1.34l-8.52-17.79-1.98-4.03-.03-.33c-.01-.11.42-.22.52-.17l1.87.87,12.85,7.27c1.35.76,2.27,1.75,2.79,3.22l5.36,15.31c.04.11.02.35-.01.45-.04.12-.41.15-.54.11l-5.38-1.92c-2.35-.84-5.03-.2-6.78,1.61l-6.84,7.06c-.1.11-.33.24-.45.26-.14.02-.46-.18-.57-.37l-7.04-11.9ZM82.35,152.07c-2.09,2.16-4.77,1.94-7.48.89l-10.4-4.04c-1.04-.4-1.95-1.07-2.3-2.19l-4.77-15.34c-.53-1.7-.11-3.24,1.11-4.51l8.78-9.15c1.36-1.42,2.99-1.75,4.85-1.09l15.53,5.53c.9.32,1.65.91,2.05,1.78l5.64,12.58c.38.85.24,1.8-.42,2.49l-12.59,13.05ZM145.17,125.56c1.18,4.57.29,11.16-1.13,15.72-.7,2.23-2.11,3.96-4.09,5.13-1.39.81-2.86,1.42-4.45,1.77l-4.67,1c-3.12.67-6.08,1.42-9.05,2.59-3.09,1.22-6.19,1.9-9.55,1.91l-19.84.02c-1.78.01-5.33-.11-5.99-.84-.12-.14-.13-.62-.02-.77l.99-1.35,10.14-10.52c.61-.63,1.49-1.06,2.37-1.2l2.64-.42c1.81-.29,3.49-.83,4.91-2l4.08-3.36c1.79-1.47,3.6-2.76,5.72-3.74l6.66-3.08c2.26-1.05,4.44-2.12,6.48-3.48.5-.33.41-1.18.18-1.52-.29-.43-.98-.55-1.53-.27l-7.3,3.64-5.87,2.64c-1.91.87-3.58,2.01-5.2,3.33l-4.55,3.7c-.96.79-2.08,1.39-3.31,1.55l-3.38.44c-.8.11-1.46-.37-1.79-1.11l-5.23-11.64c-.46-1.04-.58-2.07.06-3.04,2.51-3.81,6.86-6.52,11.17-8.03,5.79-2.03,11.99-2.71,18.06-1.87,2.8.39,5.16,1.5,7.26,3.3,4.5,3.83,8.22,3.77,11.87,5.85,2.19,1.25,3.73,3.2,4.36,5.65ZM147.53,106.25l-6.21,9.04c-.3.43-.95.71-1.43.54l-5.27-1.9c-2.79-1.01-6.1-5.67-12.21-6.33l-3.8-.41c-.1-.01-.36-.08-.45-.12-.11-.06-.04-.44.05-.57l2.39-3.64c1.14-1.74,2.97-2.79,5.05-2.94l2.56-.18c1.91-.14,3.65-.54,5.36-1.38,2.08-1.01,4.16-1.78,6.32-2.59l2.06-.78c.56-.21.7-.97.54-1.43-.19-.57-.84-.81-1.48-.6-2.52.86-4.99,1.69-7.38,2.89-1.85.93-3.7,1.39-5.77,1.55l-3.01.23c-2.33.34-4.37,1.53-5.79,3.42l-3.3,4.92c-.53.8-1.14,1.17-2.1,1.31l-6,.89c-4.87.99-9.28,2.95-13.36,5.94-.26-1.38.04-2.58.56-3.75l5.8-12.96c.87-1.96,2.2-3.5,4.08-4.47l5.36-2.75c2.25-1.16,4.76-1.47,7.3-1.2l4.68.84,4.86.82c2.22.18,4.37-.11,6.39-1.04l5.28-2.41,3.8-1.34c4.86-1.72,10.95,11.93,5.12,20.4Z"/>
    <path class="cls-4" d="M113.91,140.97c-.62.36-1.29.06-1.54-.3-.29-.43-.27-1.29.27-1.6l9.59-5.5c.58-.33,1.3-.18,1.61.4.25.47.16,1.23-.46,1.58l-9.47,5.42Z"/>
  </g>
</svg>