<?xml version="1.0" encoding="UTF-8"?>
<svg id="Layer_1" data-name="Layer 1" xmlns="http://www.w3.org/2000/svg" viewBox="0 0 200 200">
  <circle cx="100" cy="100" r="100" fill="#eed78c"/>
  <g>
    <path d="M135.12,127.22c-1.18,1.2-2.9,1.45-4.1.26-.99-.99-.91-2.59-.03-3.66,1.4-1.71,2.68-3.36,3.75-5.29,3.45-6.23,3.89-13.38,1.25-19.98-.97-2.42-2.15-4.58-3.55-6.78l-3.06-5.52c-2.79-6.13-3.28-12.9-1.09-19.32,1.72-5.03,4.69-9.54,8.74-12.95,1.21-1.01,3.12-.5,3.8.74.7,1.28.26,2.61-.69,3.6-6.27,6.51-9.24,15.06-6.19,23.82.9,2.59,2.16,4.87,3.62,7.18,1.48,2.34,2.76,4.61,3.78,7.19,2.9,7.31,2.77,15.37-.57,22.49-1.44,3.07-3.25,5.77-5.67,8.22Z"/>
    <g>
      <path d="M72.85,127.39c-1.18,1.18-3.05,1.18-4.07-.07-.93-1.14-.64-2.69.31-3.77,2.1-2.39,3.78-4.94,4.95-7.93,2.24-5.77,2.07-11.98-.35-17.66-2.11-4.96-5.29-8.41-7.24-13.73-2.02-5.5-2.19-11.33-.37-16.94,1.68-5.18,4.75-9.77,8.84-13.32.65-.56,1.6-.56,2.36-.39.69.16,1.41.79,1.67,1.6.38,1.21-.12,2.35-.97,3.24-2.24,2.33-4.06,4.86-5.37,7.8-2.64,5.92-2.59,12.46.21,18.29,2.45,5.11,5.31,8.04,7.28,14.32,3.19,10.15.3,21.03-7.24,28.55Z"/>
      <path d="M104.11,127.16c-.7.72-1.35,1.05-2.17,1.08-.86.03-1.69-.29-2.22-1.07-.75-1.13-.5-2.57.39-3.58,1.66-1.91,3.05-3.88,4.17-6.15,2.95-6,3.14-12.75.65-18.96-2.06-5.12-5.2-8.62-7.18-13.62-2.18-5.5-2.48-11.44-.74-17.13,1.65-5.37,4.76-10.17,9.02-13.77.95-.8,2.44-.54,3.21.09.96.79,1.12,2.1.61,3.21-.68,1.47-4.49,4.21-6.77,10.37-1.85,4.99-1.82,10.31.1,15.26,1.81,4.64,4.61,7.83,6.6,12.32,4.94,11.12,2.78,23.23-5.66,31.95Z"/>
    </g>
    <path d="M143.9,146.51c-.23-.29-.92-.28-1.3.03h-19.18c.05-.19-.05-.23-.2-.23s-.25.04-.31.23h-9.02c.08-.25-.18-.23-.19,0l-5.24-.02c.07-.18-.03-.21-.18-.21s-.25.04-.3.22h-2.38c-.29-.3-1.02-.3-1.43,0-.39,0-.73-.04-1.11-.01.08-.16-.02-.2-.17-.2s-.25.04-.32.24h-23.62c0-.25-.19-.24-.36-.24s-.36,0-.46.21l-4.42.02c.1-.23-.17-.25-.18,0l-3.65-.04c-.05-.29-.8-.28-.97.03l-10.94-.02c.07-.08.01-.19-.11-.19h-1.9c-.12,0-.18.11-.24.19-1.53,0-2.75-1.18-2.77-2.65-.02-1.43,1.11-2.75,2.73-2.76h88.57c1.73,0,2.9,1.35,2.79,2.92-.1,1.56-1.51,2.75-3.14,2.48Z"/>
    <path d="M57.98,146.52h-2.25c.05-.07.12-.19.24-.19h1.9c.12,0,.18.11.11.19Z"/>
    <path d="M105.62,146.51h-1.43c.42-.28,1.14-.29,1.43,0Z"/>
    <path d="M143.9,146.51l-1.3.03c.38-.31,1.06-.32,1.3-.03Z"/>
    <path d="M69.88,146.51l-.97.03c.16-.32.91-.33.97-.03Z"/>
    <path d="M78.95,146.54l-.82-.02c.1-.22.3-.21.46-.21s.36,0,.36.23Z"/>
    <path d="M103.07,146.51l-.5.04c.07-.2.17-.24.32-.24s.25.04.17.2Z"/>
    <path d="M108.48,146.53h-.48c.05-.18.15-.21.3-.21s.25.04.18.21Z"/>
    <path d="M123.43,146.54h-.51c.06-.19.16-.23.31-.23s.25.03.2.23Z"/>
    <path d="M73.71,146.54h-.18c.02-.25.28-.23.18,0Z"/>
    <path d="M113.9,146.54h-.19c0-.23.27-.25.19,0Z"/>
  </g>
</svg>