<?xml version="1.0" encoding="UTF-8"?>
<svg id="Layer_1" data-name="Layer 1" xmlns="http://www.w3.org/2000/svg" viewBox="0 0 200 200">
  <circle cx="100" cy="100" r="100" fill="#eed78c"/>
  <g>
    <path d="M83.76,128.12c.01,1.72-1.69,2.68-3.1,2.62s-2.92-1.19-2.88-2.81c.43-14.59-7.17-27.63-19.77-34.8-5.62-3.2-11.81-4.77-18.29-4.78-1.67,0-2.69-1.75-2.49-3.16.24-1.75,1.59-2.44,3.31-2.46,19.08-.23,35.99-16.62,37.07-35.64l.05-5.16c.02-1.89,1.88-3.02,3.6-2.8,1.93.24,2.91,1.88,2.82,3.83-.16,3.61.07,7.07.98,10.58,1.69,6.5,5.03,12.33,9.63,17.21,4.27,4.53,9.45,7.87,15.3,9.96,3.92,1.4,7.87,2,12.02,2.11,1.48.04,2.38,1.49,2.38,2.77,0,1.22-.93,2.7-2.38,2.72-4.56.07-8.94.74-13.22,2.38-10.34,3.95-18.55,12.13-22.52,22.46-1.85,4.81-2.54,9.75-2.5,14.95ZM80.8,112.39c3.76-10.46,10.99-18.86,20.43-24.11,1.99-1.13,3.93-1.92,6.17-2.78-5.82-2.16-10.94-5.36-15.31-9.6-5.02-4.85-8.79-10.61-11.26-17.33-4.47,12.42-14.13,22.47-26.61,26.95,12.54,4.5,22.28,14.56,26.59,26.87Z"/>
    <path d="M133.15,158.04c-.06-4.91-1.95-9.39-4.9-13.13-2.23-2.83-5-5-8.25-6.53-2.84-1.33-5.82-1.83-8.95-1.91-1.3-.03-2.15-1.28-2.19-2.42-.04-1.2.79-2.4,2.11-2.49,1.74-.12,3.4-.17,5.12-.65,9.74-2.72,16.99-11.93,17.08-22.02.01-1.63.98-2.84,2.57-2.81,1.71.03,2.39,1.34,2.43,2.97.25,8.69,5.58,16.56,13.33,20.35,2.96,1.45,5.96,2.08,9.2,2.16,1.3.03,2.13,1.37,2.1,2.48s-.87,2.41-2.18,2.43c-3.66.05-7.11.82-10.35,2.57-6.99,3.77-11.7,10.92-12.08,18.92-.08,1.6-.75,2.88-2.47,2.92-1.54.04-2.53-1.17-2.56-2.84ZM135.72,147.55c2.78-6.02,7.43-10.73,13.58-13.64-6.04-2.87-10.76-7.72-13.59-13.82-2.85,6.03-7.4,10.88-13.43,13.84,5.94,2.81,10.62,7.52,13.44,13.62Z"/>
  </g>
</svg>