<?xml version="1.0" encoding="UTF-8"?>
<svg id="Layer_1" data-name="Layer 1" xmlns="http://www.w3.org/2000/svg" viewBox="0 0 200 200">
  <defs><style>
      .cls-1 {
        fill: #efddba;
      }

      .cls-2 {
        fill: #eee6d3;
      }

      .cls-3 {
        fill: #ede4d1;
      }

      .cls-4 {
        fill: #ECD488;
      }

      .cls-5 {
        fill: #ede5d2;
      }

      .cls-6 {
        fill: #eee5d1;
      }

      .cls-7 {
        fill: #eee6d2;
      }

      .cls-8 {
        fill: #ECD488;
      }

      .cls-9 {
        fill: #fff;
      }

      .cls-10 {
        fill: #ede4d0;
      }

      .cls-11 {
        fill: #eee3cb;
      }

      .cls-12 {
        fill: #ece4d0;
      }

      .cls-13 {
        fill: #ECD488;
      }

      .cls-14 {
        fill: #ECD488;
      }
    </style></defs>
  <g fill="none" stroke="#ECD488" stroke-width="5.0" stroke-linecap="round">
    <path d="M18.9 121.7 A 84 84 0 0 1 159.4 40.6"/>
    <path d="M181.1 78.3 A 84 84 0 0 1 40.6 159.4"/>
  </g>
  <polygon fill="#ECD488" points="167.9,49.1 162.9,30.7 149.5,44.1"/>
  <polygon fill="#ECD488" points="32.1,150.9 37.1,169.3 50.5,155.9"/>
  <g transform="translate(-31.39,-27.92) scale(1.3)"><path class="cls-8" d="M126.98,101.15h-11.97c-.63,0-.99-.41-1-.94s.39-.86,1.02-.86l11.84-.02c.54,0,.89.34.97.73.1.45-.15,1.09-.87,1.09Z"/>
  <path class="cls-13" d="M86.31,101.14h-11.87c-.6.01-1-.22-1.1-.81-.07-.39.29-1.01.91-1h11.85c.55.01.93.28,1.01.7.08.46-.19,1.11-.8,1.11Z"/>
  <rect class="cls-14" x="73.37" y="109.78" width="13.76" height="1.85"/>
  <path class="cls-4" d="M145.71,90.3c-.89-2.64-2.48-4.95-3.76-7.44l-39.98.02-1.44,2.12-23.14.06v-.34s3.74-.03,3.74-.03c.17-.92.12-1.7.07-2.61-.19-.13-.64-.32-.63-.55v-2c.02-.5-.14-.84-.54-.97-.3-.1-.92,0-.93.44l-.08,2.7h-1.75c.14-.58-.27-1.02-.49-1.4l.03-9.69c0-2.73,2.01-5.13,4.77-5.27,3.25-.16,5.65,2.68,5.36,5.88-.04.47-.12,1.38.32,1.56.77.32,1.62.15,2.51.05.6-2.93-.09-6.02-2.27-8.14-2.63-2.56-6.61-3.19-9.74-1.21-2.35,1.49-3.9,4.13-3.89,6.93l.02,9.12c0,.71-.43.97-.45,1.55l-.18,3.94-12.26.03-4.78,6.93.1,3.48c.01.49.43.82.92.82.72.01,1.4-.1,2.07.09l.02,38.09,82.46.02.08-37.95,3.35-.07c.4-.1.53-.3.7-.76l-.22-5.39ZM95.28,88.33l-1.68,2.92-27.28.03-.05-2.96h29.01ZM57.32,95.17v-2.86s39.96-.02,39.96-.02v2.86s-39.96.02-39.96.02ZM60.37,96.25l39.71-.04v10.41s-39.7.04-39.7.04v-10.41ZM100.1,133.37h-39.72v-25.68h39.72v25.68ZM140.75,133.37h-39.64s0-36.92,0-36.92h39.64s0,36.92,0,36.92Z"/>
  <path class="cls-5" d="M136.37,93.74c-.5.28-.59.86-.33,1.52l-13.91.03c.73-1.26.62-2.62-.29-4.04h18.98s-4.45,2.49-4.45,2.49Z"/>
  <path class="cls-7" d="M130.28,90.15l-8.33-.1c1.43-1.85,3.41-2.72,5.38-3.55,1.89-.8,3.81-1.19,5.88-1.18,1.41.01,2.62-.51,3.75-1.28.5-.23,1.3-.12,1.9-.03-1.35,1.62-3.02,2.61-4.78,3.49l-2.25,1.11c-.67.33-1.17.76-1.55,1.53Z"/>
  <path class="cls-2" d="M109.09,89.89c-1.27.5-2.64.09-3.8.22,1.74-1.09,3.48-1.79,4.91-3.14l3.17-3,11.46.05c-1.05.72-2.13,1.09-3.31,1.43-4.26,1.21-8.23,2.78-12.43,4.45Z"/>
  <path class="cls-5" d="M110.4,85.2c-2.32,1.61-4.66,3.17-7.2,4.44-1.38.68-3.02.44-4.5.46l3.83-6.17,9.18.11-1.31,1.16Z"/>
  <path class="cls-2" d="M131.14,90.08c1.01-.97,2.2-1.41,3.34-1.97,1.75-.86,3.13-1.83,4.5-3.28.48-.51,1.85-1.44,2.27-.7l2.41,4.28c-.81.48-1.38.82-1.8,1.66h-10.72Z"/>
  <path class="cls-10" d="M115.41,93.53c-.33-1.7-4.39-2.06-7.31-.73-1.14.52-1.92,1.47-2.7,2.42-.56.09-1.06.12-1.73.02.94-.99,1.23-2.14.55-3.46,1.66-.52,3.21-.55,4.86-.55h10.44c.89,1.35,1.4,2.93.45,3.93l-5.03.1c.41-.65.56-1.18.46-1.73Z"/>
  <path class="cls-4" d="M94.79,91.17l1.93-3.03c.1-.15.08-.43.02-.54-.06-.14-.28-.33-.58-.33l-18.79.02c-.16-.36-.15-.73-.03-1.17l22.53-.05-2.42,4c-.19.32-.17.72-.26,1.14-.8.07-1.36.12-2.4-.03Z"/>
  <path class="cls-6" d="M119.54,90.15l-8.94-.08c.77-.49,1.55-.61,2.35-.94,2.96-1.21,5.83-2.5,8.95-3.27l4-1.7c2.15-.55,4.51-.12,6.73,0-4.93.27-10.1,1.81-13.1,5.99Z"/>
  <path class="cls-4" d="M65.31,87.27c-1.29,1.27-2.12,2.6-3.21,3.95l-4.01.06,3.52-5.2h11.58c.22.3.23.84.01,1.16l-7.89.02Z"/>
  <path class="cls-3" d="M103.86,92.81c.34.73-.26,2.09-1.16,2.32l-4.21.15-.08-4.06h4.36c.37.46.75.84,1.09,1.58Z"/>
  <path class="cls-12" d="M114.58,93.52c.26.84-1.31,1.73-1.96,1.73h-6.58c2.04-3.44,8.09-3.21,8.54-1.73Z"/>
  <path class="cls-3" d="M144.72,95.17l-4.43.07c-.66-2.07.76-2.33,1.81-3.83.71-.4,1.76-.09,2.59-.16l.04,3.92Z"/>
  <path class="cls-11" d="M139.58,95.15c-1.32.21-2.81.23-2.98-.33-.05-.15.02-.51.24-.62l3.09-1.68-.35,2.63Z"/>
  <path class="cls-9" d="M65.19,91.17c-.62.15-1.06.17-1.73.01l1.64-2.07c.21.77.15,1.23.1,2.06Z"/>
  <path class="cls-1" d="M144.48,90.1h-1.76c.26-.49.61-.88,1.05-1.02.29-.03.65.58.71,1.02Z"/></g>
</svg>
