<?xml version="1.0" encoding="UTF-8"?>
<svg id="Layer_1" data-name="Layer 1" xmlns="http://www.w3.org/2000/svg" viewBox="52.48 53.87 94.96 94.96">
  <defs>
    <style>
      .cls-1 {
        fill: #bf9b60;
      }

      .cls-2 {
        fill: #bd9960;
      }

      .cls-3 {
        fill: #c19a5d;
      }

      .cls-4 {
        fill: #c0985b;
      }

      .cls-5 {
        fill: #c0995d;
      }

      .cls-6 {
        fill: #bd9a60;
      }

      .cls-7 {
        fill: #bf985d;
      }
    </style>
  </defs>
  <rect class="cls-1" x="105.57" y="114.25" width="16.68" height="1.1" transform="translate(-47.82 114.35) rotate(-45.06)"/>
  <path class="cls-6" d="M113.18,120.47c-.24.22-.52.06-.62-.07-.12-.15-.24-.54-.02-.76l6.33-6.42c.22-.23.51-.25.66-.13.26.21.32.56.05.84l-6.4,6.55Z"/>
  <path class="cls-2" d="M109.55,115.67c-.26.26-.55.25-.68.17-.22-.15-.36-.63-.13-.85l5.95-5.95c.25-.25.51-.24.69-.1.25.19.34.53.04.83l-5.87,5.91Z"/>
  <path class="cls-4" d="M87.58,112.19c-2.04-1.83-1.56-4.73-2.4-4.76-.91-.04-.45,2.53-2.13,4.4-1.77,1.97-4.61,1.43-4.57,2.33.04.94,3.12.36,4.83,2.71,1.46,2.01.87,4.42,1.88,4.42.88,0,.17-3.72,3.17-5.65,1.49-.96,3.4-.75,3.4-1.48,0-.81-2.49-.46-4.17-1.98ZM85.17,118.2c-.68-2.12-1.86-3.44-4-4l2.17-1.05c.89-.85,1.39-1.9,1.88-3.01.57,2.02,1.73,3.4,3.79,4-1.88.75-3.25,2.08-3.84,4.05Z"/>
  <path class="cls-7" d="M118.16,82.68l-2.91-4.33c-1.76,2.28-3.2,4.49-4.31,6.94-1.52,3.35.25,6.83,3.09,7.43,1.59.34,3.03.01,4.27-1.04,2.8-2.37,1.87-6.02-.13-9.01ZM115.15,91.71c-2.16,0-3.87-1.9-3.68-4.21.08-1.01.41-1.99.94-2.84l2.83-4.55,2.2,3.5c.74,1.18,1.34,2.44,1.53,3.98.04,2.4-1.67,4.13-3.82,4.12Z"/>
  <path class="cls-5" d="M132.34,71.74c-11.7-1.83-22.06-5.92-32.37-11.32-10.39,5.46-20.69,9.46-32.42,11.35l.09,29.93c.27,11.69,5.53,22.2,14.3,29.75,5.33,4.58,11.38,8.15,17.98,10.83,13.73-5.57,25.93-15,30.51-29.37,1.49-4.81,1.95-9.54,1.94-14.59l-.04-26.58ZM89.04,66.83c3.55-1.44,6.79-3.03,10.4-4.75l.02,37.46h-30.66s-.02-26.78-.02-26.78c7.07-1.27,13.75-3.2,20.27-5.93ZM99.44,140.82c-9.86-4.24-19.05-10.46-24.87-19.64-3.82-6.21-5.75-13.17-5.8-20.58h30.69s-.01,40.22-.01,40.22ZM100.54,62.12l7.66,3.55c7.33,3.3,14.88,5.66,22.99,7.09v26.77s-30.65,0-30.65,0v-37.42ZM118.21,129.67c-5.21,4.87-11.23,8.37-17.66,11.12l-.04-40.18,30.69-.02c0,11.25-4.64,21.58-12.99,29.08Z"/>
  <path class="cls-3" d="M88.99,82.12c-.76.34-.81.99-1.28,1.63-.72-3.87-4.17-7.05-3.94-4.1.12,1.56-.86,3.07-1.64,4.23-.32-.7-.63-1.42-1.26-1.44-1,1.28-1.64,2.96-1.79,4.61-.43,4.72,4.65,6.64,4.94,5.62.11-.39-1.1-2.08-.19-3.25l1.37-1.76,1.2,1.71c.91,1.3-.7,3.13-.13,3.45.95.53,4.86-1.56,4.74-5.32-.06-1.98-.83-3.86-2-5.38ZM87.64,91.39c.51-2.5-1.23-3.41-2.54-5.73-1.34,2.34-3.16,3.55-2.58,5.88-2.64-1.42-3.03-4.57-1.41-7.32l.83,1.48c.44.27.66-.48.84-.76.94-1.42,1.85-3.01,2.13-4.7,1.96,2.09,1.6,4.7,2.09,5.04.53.38,1.28-.31,1.82-1.39,1.58,2.69,1.68,6-1.18,7.51Z"/>
</svg>