<?xml version="1.0" encoding="UTF-8"?>
<svg id="Layer_1" data-name="Layer 1" xmlns="http://www.w3.org/2000/svg" viewBox="42.17 45.64 108.33 108.33">
  <defs>
    <style>
      .cls-1 {
        fill: #160e05;
      }

      .cls-2 {
        fill: #010101;
      }

      .cls-3 {
        fill: #ECD488;
      }

      .cls-4 {
        fill: #ECD488;
      }

      .cls-5 {
        fill: #ECD488;
      }

      .cls-6 {
        fill: #ECD488;
      }

      .cls-7 {
        fill: #e9e4d6;
      }

      .cls-8 {
        fill: #ECD488;
      }

      .cls-9 {
        fill: #e7e5da;
      }

      .cls-10 {
        fill: #040302;
      }

      .cls-11 {
        fill: #e8e3d8;
      }

      .cls-12 {
        fill: #070402;
      }

      .cls-13 {
        fill: #020101;
      }

      .cls-14 {
        fill: #010001;
      }

      .cls-15 {
        fill: #ECD488;
      }

      .cls-16 {
        fill: #ECD488;
      }

      .cls-17 {
        fill: #ECD488;
      }

      .cls-18 {
        fill: #726755;
      }

      .cls-19 {
        fill: #ECD488;
      }

      .cls-20 {
        fill: #ECD488;
      }

      .cls-21 {
        fill: #e7e3d5;
      }

      .cls-22 {
        fill: #ECD488;
      }

      .cls-23 {
        fill: #010100;
      }

      .cls-24 {
        fill: #070503;
      }

      .cls-25 {
        fill: #e8e6db;
      }

      .cls-26 {
        fill: #ECD488;
      }

      .cls-27 {
        fill: #ECD488;
      }

      .cls-28 {
        fill: #e9e6db;
      }

      .cls-29 {
        fill: #ECD488;
      }

      .cls-30 {
        fill: #ECD488;
      }

      .cls-31 {
        fill: #ECD488;
      }
    </style>
  </defs>
  <path class="cls-20" d="M64.63,96.71c.14.35.49.67.39,1.22-.13.73.04,1.26.63,1.84l-3.48.19c-.33.02-.1.72.02.97.91-.03.55,1.46-.04,1.98-.46.41-2.82.56-3.07-.2-.45-.62-.21-1.4.04-2.17-.54-.52-.59-1.17,0-1.64-.11-.86-.02-1.71.17-2.54.24-1.06.16-1.97.11-3-.04-.78.19-1.65-.02-2.46-.17-.64.07-1.26.05-1.87-.05-1.82.22-3.35,1.43-4.8l1.19-1.43c2.89-2.22,7.23-1.19,9.09,2.05.88,1.53,1.07,3.22.86,4.93-.86.15-1.61.18-2.33-.06l-.12-1.88c-.14-2.13-1.81-3.66-3.88-3.72-1.91-.05-3.97,1.39-3.99,3.52l-.08,7.9c0,.32.09.93.31,1.06.53.16,1.08.07,1.64.02l-.04-1.86c0-.38.32-.53.62-.48.83.14.15,1.51.52,2.41Z"/>
  <path class="cls-15" d="M142.93,99.23c-2.69.05-5.35,0-7.99-.12l.02-35.8-1.87-3.67h-51.01s-1.91,3.83-1.91,3.83v35.77s-14.81-.03-14.81-.03l-.02-1.8c-.06-.21-.11-.4-.19-.53-.11-.17-.36-.21-.53-.17l-.24.4c.22.72.34,1.5.37,2.32l-2.73.18c-.58.52-.62,1.45.16,1.32.3-.03.43-.18.48-.45l14.92-.13c-.75.74-1.27,1.55-1.54,2.42.66,1.03,2.06-1.27,2.37-1.81.12-.15.4-.45.55-.49.38-.11,4.25-.12,4.85-.08-.89.41-1.25,1.43,0,1.22l2.49-1.23,6.66.03c.39-.04.71-.17.96-.39.05.23.26.27.63.13,5.31-.08,10.69,0,16.13.22.33.62.94.66,1.83.14,3.61-.16,7.22-.16,10.84-.02-1.46.67-2.98,1.22-4.57,1.66-.49.39-.74.72-.36,1.32h-11.58c-.37-.25-.84-.21-1.39.11-4.36.04-8.75.06-13.15.08-.71-.13-1.42-.19-2.13-.17.48-.14.63-.38.46-.74-.3-.24-.45-.36-.45-.36-.82.4-1.65.74-2.48,1.02l-7.79.11c-.47-.34-.77-.35-1.24,0l-26.62-.06c-.19-.03,2.16-2.95,2.33-3.04.16-.09,3.52-.02,3.68.07v1.94c.22.69.84,1.05.99.29.15-.73.28-1.48.38-2.26-.44-.57-.52-.91,0-1.44.24-2.49.37-4.98.39-7.47-.34-3.11-.07-6.14,2.41-8.38,0-.16-.08-.27-.22-.35-1.66,1-2.88,2.82-2.91,4.89l-.15,8.39-.33,3.08-4.96.07-4.02,4.88.02,25.28.04,5.49c.48-2.22.04-4.28.23-6.43.15.01.33.18.37.37v7.51c.17.09.25-.08.19-.16l.4-.23.14-7.61c.59-.86,1.51-1.38,2.74-1.54l.06-.45c.43-.28.54-.42-.03-.51l-.44-.23c-.86.19-1.67.49-2.43.9v-1.6s-.41-.22-.41-.22c.52-.17.5-.21,0-.42l.4-.24c0-12.69-.01-19.03-.01-19.03l-.4-.14.23-.1h23.64s.18.29.18.29c1.19-.04,2.36-.01,3.52.08l.64-.32.24.4,25.21-.03c-.75.88-1.49,1.76-2.23,2.64-.39.29-.17,1.45.15,1.22.92-.67,2.71-2.8,3.33-3.83.06-.09-.11-.25-.26-.33.61-.16,1.75-.3,2.13.19l12.7-.04c.85.2,1.57.11,2.14-.26l.24.4h12.09c.22.15.43.21.63.19.13.83.21,1.67.24,2.53l.03,5.36c.02.68-.08,1.33-.28,1.94-.35.55-.66,2.32-.48,3.01.03.12.24.16.39.18-.55.17-.59.72,0,.76-.54.08-.46,1.91-.35,2.31.03.11.25.14.4.16l.28,1.31v6.75c-.17.86-.2,7.95.04,8.29.1.15.32.06.47-.11l.44-1.19c-.09-6.44-.04-12.73.15-18.86.46-.52.33-.81-.26-.4-.23-.06-.3-.62-.21-1.67l.4-.23.02-10.62,5.36-3.8c.12-.16.16-.34.06-.53l.28.18.03,5.13-.34.46c.12,1.69,0,3.34-.34,4.95l.1.51c-.35.53.02.62.35.1l.21.06v5.34c.38.15.63-.05.76-.61-.2-5.85-.21-11.66-.02-17.43ZM134.11,99.21h-53.1s.02-35.26.02-35.26l8.57.04.07,2.12-1.62,3.27,1.6.12c.16.83.72,1.26,1.42,1.29.68.02,1.28-.42,1.55-1.18l1.6-.21-1.54-3.42c-.25-.55.02-1.29.05-2h13.29c.02.67.3,1.39.06,1.9l-1.62,3.41c.5.29,1.01.23,1.55.27.27.78.79,1.22,1.49,1.23.73.01,1.33-.47,1.6-1.27l1.53-.16-1.6-3.5c-.24-.52,0-1.2.01-1.86h13.49c.02.66.24,1.48-.04,2.1l-1.52,3.3,1.6.21c.24.82.82,1.21,1.54,1.16.69-.05,1.23-.44,1.44-1.25l1.57-.17-1.55-3.38-.04-2.02,8.62.04-.04,35.22Z"/>
  <rect class="cls-26" x="114.48" y="53.96" width="2.66" height="15.69" transform="translate(53.97 177.6) rotate(-89.99)"/>
  <rect class="cls-26" x="91.54" y="60.48" width="15.58" height="2.66"/>
  <polygon class="cls-26" points="90.73 63.12 81.38 63.11 82.67 60.5 90.69 60.49 90.73 63.12"/>
  <polygon class="cls-26" points="133.8 63.09 124.45 63.14 124.45 60.49 132.51 60.49 133.8 63.09"/>
  <rect class="cls-4" x="106.8" y="63.92" width="1.54" height="1.49" transform="translate(-.84 1.42) rotate(-.75)"/>
  <rect class="cls-26" x="90.42" y="63.93" width="1.52" height="1.48" transform="translate(-.63 .9) rotate(-.56)"/>
  <rect class="cls-29" x="123.26" y="63.97" width="1.52" height="1.41"/>
  <path class="cls-5" d="M108.55,69.5c-.06.49-.47.67-.87.7-.52.04-.97,0-1.18-.68l2.05-.03Z"/>
  <path class="cls-27" d="M92.11,69.5c-.06.45-.49.66-.87.7-.47.05-.89-.11-1.16-.67l2.04-.03Z"/>
  <path class="cls-22" d="M125.06,69.49c-.19.57-.61.69-.94.72-.47.05-.87-.14-1.14-.64l2.08-.08Z"/>
  <g>
    <path class="cls-21" d="M90.65,102.74l1.17-.97c.3-.25.54-.5.93-.42.33.51.08,1.03-.78,1.56,2.42.14,4.88.15,7.37.04.4-.03.78-.13,1.14-.31,1.37.37,3.5.5,4.87.21.48-.1,3.18-1.57,3.26-1.75.04-.09-1.75-.26-2.01-.27-4.02-.05-7.99-.09-11.91-.13-1.23.68-1.76.67-1.57-.04.36-.05.69-.24.81-.65l1.57-.11h6.74c3.27.01,6.41.18,9.54.02-.18.39-.47.25-.56.31-.09.05,0,.43.07.39.94-.59,1.67-.66,2.64-.65l10.35.09c-.6.97-1.57,1.24-2.53,1.54l-2.56.79c-.28.09-.56.3-.56.59,0,.19.31.41.49.88h-12.57c-.12-.67-.76.08-1.12.06l-16.94-.04c.85-.6,1.56-.65,2.14-1.14Z"/>
    <path class="cls-21" d="M123.14,101.58c1.75-.49,3.35,1.56,4.5.98-1.13-.14-2.17-1.16-2.17-1.17,0-.1.24-.27.29-.47-.58.29-1.2.49-1.75,0,.22-.29.62-.93,1.05-.93h15.8s-5.36,3.92-5.36,3.92h-14.41c-.86,0-1.69-.1-2.08-1.09,1.52-.28,2.75-.86,4.14-1.25Z"/>
    <path class="cls-24" d="M53.85,125.83c-.8.48-2.25.3-3.25,1.69l-.02-2.83.08-.21,1.76.23c.85-.12,1.69-.18,2.51-.16.73-.1,1.41-.22,2.16-.68-.05,1.26-1.75,1.07-3.24,1.97Z"/>
    <path class="cls-19" d="M135.14,115.19c-.17-.02-.24-.16-.21-.42.17-.55.2-1.12.2-1.78l.02-7.62.56.99c-.65.52-.09,1.03-.08,1.52l.1,6.31c0,.5-.24.83-.6,1.01Z"/>
    <path class="cls-19" d="M142.19,105.86l-.14-5.14c0-.16-.12-.22-.18-.17.21-.15.34-.53.79-.43l-.06,2.17s-.1-.03-.14-.1l-.06-1.69s-.09.03-.13.1l-.07,5.26Z"/>
  </g>
  <g>
    <path class="cls-23" d="M66.38,121.51l.23-.04c2.12,1.61,4.41,2.73,6.85,3.37.83.53,1.8.78,2.91.77,1.16.58,2.35,1.08,3.57,1.5l.71-.18c.95-.73,1.36-.8,1.23-.22l.12.41-2.28,1.92-.15.59c.17.88,0,1.61-.51,2.21-2.89,1.97-5.64,4.09-8.25,6.37.38.46-.1.82-.58.51-.26.52-.63.77-1.09.77l-15.15.02c-.3-.22-.71-.35-1.25-.39-.47-.73-1.25-1.28-1.4-2.16,2.23-4.45,3.34-6.67,3.34-6.67l.2-.08c.16-1.4.7-2.76,1.6-4.09.49-2.18,1.7-2.84,3.92-2.72,1.3-.48,2.57-1.14,3.81-2,.79-.86,1.48-.87,2.16.11Z"/>
    <path class="cls-23" d="M54.65,129.8l.06.37c-.01.39-3.06,6.43-3.37,6.63-.11.07-.29.02-.4-.05-.11-.21-.17-.43-.39-.59l.11-7.7c0-.66,1.01-1.48,1.55-1.62.71-.19,1.13-.28,1.67-.5.47-.76,2-1.09,2.88-1.25-.27,1.12-.76,2.19-1.45,3.23-.17.6-.39,1.09-.66,1.48Z"/>
    <path class="cls-18" d="M54.88,130.21c-.13.7-.61,1.32-.95,2l-2.13,4.23c-.13.25-.24.44-.46.53-.12-.02-.34-.09-.4-.2.33.02.51-.18.68-.52l2.75-5.57.29-.87c.16,0,.24.13.24.41Z"/>
    <path class="cls-2" d="M105.22,104.87c.67.03,1.32-.16,2.09.13-.89.91-1.67,1.7-2.62,2.3-2.19,1.37-3.91,2.95-4.98,5.28-.32.7-.55,1.02-1.15,1.51-1.35,1.09-2.6,2.59-4.37,3.05-1,.26-1.87.39-2.61,1.26-2.56,3.02-4.43,2.69-4.91,2.97l-1.88,1.09c-.77.45-1.53.52-2.23-.1-.76-.68-1.42.15-2.52.42.5.27.98.05,1.49-.23.77-.41,1.36.92,2.65.76.26,1.14-1.11,1.95-2.36,2.56.13.56-1.32,1.22-1.97,1.2-1.17-.41-2.31-.89-3.41-1.45-1.15,0-2.15-.26-2.99-.79-1.19-.16-2.16-.59-3.21-1.13-1.21-.62-2.66-1.59-3.63-2.41-.31,0-1.58-.57-1.62-.85-.03-.23,1.78-3.77,2.36-3.9,1.47-.38,2.38-1.21,2.72-2.51l2.24-2.92c1.31-.59,2.01-1.55,2.12-2.88,1.31-1.04,2.57-2.13,3.79-3.28l.56-.13,26.08-.04c-.68,1.86-2.76,2.57-2.75,4.12.63-.97,1.24-1.72,2.07-2.51l1.05-1.51Z"/>
    <path class="cls-2" d="M54.51,124.29c-1.09.56-2.89.59-3.93-.02v-19.41c8-.12,16.03-.15,24.08-.1.09.29.07.64-.07,1.05.16,1.45-.07,2.85-.68,4.21-1.96,1.05-3.51,3.02-4.27,5.08-.57.64-1.33,1.12-2.28,1.43-1.05,1.02-1.78,2.29-2.19,3.8-1.53,1.85-4.09,3.2-6.51,3.21l-1.43.45-.18-.23c-.83.4-1.67.57-2.52.53Z"/>
    <path class="cls-14" d="M135.15,105.36c.24.52.28,1.04.12,1.55.1.9.33,7.56-.05,7.77-.09.05-.19.07-.3.09.11.23.11.56-.18.59-.61.41-.65,1.17-1.02,1.79-.46.79-.91,1.74-1.56,2.37-1.18,1.14-2.7,1.94-3.58,3.36-.54.87-1.07,1.48-1.98,2.03-.65.39-1,1.27-1.46,1.87-.92,1.19-2.17,1.91-3.5,2.64.03-1.55.49-3.03.2-4.59-.14-.77-1.48-1.62-1.33-2.46.55-3.05-2.31-2.23-2.08-5.76.03-.43-.45-1.06-.1-1.56,1.08-1.5-.6-4.37.52-5.84l3.32-4.42h12.35c.22.01.5.07.53.21l.08.38Z"/>
    <path class="cls-14" d="M135.06,119.14l.05,2.47-.02,17.48h-17.12c.52-.89,1.25-1.64,2.18-2.27.43-.39,1.05-.72,1.24-1.32.66-2.02,1.18-4.06,2.18-5.95l2-2.17c.74-.8,1.25-1.73,2.14-2.42l1.1-.86.55-1.32,3.62-3.04c.63-.53,1.32-.73,2.07-.62Z"/>
    <path class="cls-23" d="M142.19,105.86c.23,1.33,0,2.74-.04,4.14-.02.76-.05,1.26-.54,1.78-1.75,1.88-3.35,3.94-5.44,5.62l-.14-1.66-.04-8.68.06-2.45,5.82-4.05c.36-.35.61-.24.29.15l.03,5.16Z"/>
    <path class="cls-31" d="M54.51,124.29c.07.13.24.21.41.26l-2.2.31c-.74.11-1.46-.32-2.15-.17v-.42c1.29.38,2.65.36,3.94.02Z"/>
    <path class="cls-16" d="M81.82,125.88c.24.2.34.61.06.83-.06-.65-.77.53-1.96.63l-2.23-.91c-.59-.24-1.05-.81-1.79-.78-.91.11-1.81-.04-2.49-.69-1.67-.17-3.03-1.02-4.44-1.87l-2.59-1.57c.09-.07.15-.12.22-.21l3.89,2.44c.95.6,2.09.69,3.15,1.02.26.08.63.5.88.49,2.28-.09,3.57,1.25,5.37,1.62.8.16,1.4-.72,1.94-.98Z"/>
    <path class="cls-9" d="M92.75,101.34c.06-.24.23-.48.38-.68.11.67.89-.38,1.59-.36l3.77.1c3.05-.11,6.03-.24,9.06.12.63.08,1.2.16,1.94.07-.36.99-1.29,1.02-1.87,1.52-1.12.95-2.45,1.39-4,1.16-1.06.11-2.11.18-3.11-.28-.78.54-1.6.25-2.38.34-1.55.18-3.08.06-4.59,0-.74-.03-1.52.32-2.15-.3.43-.77,1.15-.82,1.37-1.7Z"/>
    <g>
      <path class="cls-7" d="M59.08,102.71c.84.02,2,.34,2.85-.13.45-.25.44-1.27.26-1.66l.07-.84,3.51-.03,12.71-.11-.99,1.14c-.46.53-.71,1.06-1.24,1.57,1.19.01,1.35-1.97,2.64-2.57l6.55-.12-2.18,1.26c.08.09.19.11.31.08l2.69-1.31,7.69.02c.45.26-.44.86-.81.65.29.47.16.68-.38.68l-1.22,1.05c-.29.45-.58.57-.87.35-.99-.08-1.89,1.04-2.92,1.06l-8.03.12-.36-.34-.5.33-9.09-.02-13.83-.02c-.61,0-1-.05-1.65-.04l-3.15.04,3.12-3.87,4.25.11-.02,2.4c0,.28.45.21.61.22Z"/>
      <g>
        <path class="cls-11" d="M67.77,103.37l-1.98-.06c-1.23-.04-2.42.39-3.62-.26.24-.24.51-.08.93,0-.33-.47-.42-1.64.23-1.84,1.17-.37,2.41.26,3.66.31l-.46-.66c1.07.34,1.82-.1,2.72-.19s1.9-.11,2.83-.1l4.2.03c.24,0,.51.25.53.4.03.24-1.19,1.83-1.89,2.31-.89.61-1.85.27-2.81.24l-4.35-.16Z"/>
        <path class="cls-28" d="M87.98,103.01c-1.29.41-2.65.43-4.08.07-.87.11-2.32.1-1.24-.9,1.38-.56,2.76-1.76,4.31-1.75l3.93.04c1.56.02.03,2.23-2.91,2.53Z"/>
        <path class="cls-25" d="M81.03,100.7c.79.14.94.37.44.69-.42.09-.61.46-.98.72l-1.41.98c-1.05.45-2.72.7-1.39-.8.26-.83.78-1.86,1.79-1.75l1.55.16Z"/>
        <path class="cls-11" d="M82.66,102.19c-.06.17-.05.62.16.71.82-.36,1.49-.21,2.26.06.93.33,2.02.14,2.9.05-.59.71-2.11.54-3.37.49l-3.57-.14c.26-.79,1.01-.93,1.62-1.18Z"/>
        <path class="cls-11" d="M79.08,103.08c-.66.46-1.73.74-2.56.28.37-.56.83-.77,1.17-1.08-.09.29-.27.58-.16.98.58.06,1.06-.14,1.55-.18Z"/>
        <path class="cls-11" d="M81.47,101.39c-.03-.28-.18-.54-.44-.69l1.54.05c-.31.33-.7.56-1.09.64Z"/>
      </g>
    </g>
    <g>
      <path class="cls-3" d="M78.78,104.81c-1.1,1.5-2.63,2.45-4.11,3.6l-.55,1.58-1.83,1.37c-.74.99-1.71,2.01-2.17,3.1-.32.77-.4,1.36-1.21,1.67-.58.22-1.71.55-2,1.09l-1.61,3.12,1.3.95c.28.29.15.41-.22.21-.28-.17-.64-.37-.89-.43-.43-.1-.65.42-.92.56-.97.49-1.79.89-2.63,1.55-1.49,1.18-3.19.21-3.98.97-.84.8-1.16,1.89-1.71,2.86-.6,1.07-1.16,2.05-1.37,3.2-.13-.07-.21-.24-.24-.41.17-.53.23-1.12.54-1.69.51-.95,1.12-1.74,1.39-2.86l-2.69,1.09-.03-.51c.01-.53.45-.85,1.31-.95l-.23-.33c-.35.03-.49-.06-.41-.26l4.52-1.18c.91-.24,1.83.07,2.62-.62l2.36-1.38c1.18-1.05,1.51-2.71,2.34-4.01.71-1.1,3.04-1.42,3.1-2.19s.49-1.06.83-1.59c.92-1.46,1.87-2.72,3.53-3.39.16-1.14.55-2.17.44-3.28-.07-.65-.17-1.2.27-1.8h-23.96c-.04-.09.03-.2.21-.2h26.68s1.32.15,1.32.15Z"/>
      <path class="cls-12" d="M74.62,108.02c-.23-1.45-.19-3.14.47-3.14l3.42.02c-1.23,1.09-2.31,2.13-3.89,3.11Z"/>
    </g>
    <g>
      <path class="cls-19" d="M53.79,139.97c.35-.9-.49-.32-1.06-.86l16.59-.03.9-.37c-.21.36-.02.36.57,0l5.94-.07c.26-.12,1.58-5.09,1.61-5.44.02-.29-4.21,2.67-4.66,3.39l-2.42,1.76-.46-.16c.08-.35.44-.77.82-.97,1.05-.56,1.65-1.51,2.6-2.18,1.75-1.23,3.82-2.18,4.99-4.13.05-.73-.28-1.78.41-2.35l2.26-1.87c-.29-.25-.31-.53-.06-.83l.03-.46c.36-.08,2.16-1.29,1.95-1.64-.06-.09-1.83-.91-1.94-.9-3.41,1.38-1.69-1.6.61-1.04.42.4.89.59,1.4.56,1.71-.88,3.47-1.65,5.27-2.33,1.05-.84,2.06-1.73,3.02-2.67,3.57-.93,6.58-3.24,8.14-6.66.46-.65.98-1.27,1.57-1.81.07-.06.21-.04.37,0,1.38-1.28,2.8-2.51,4.28-3.7-.72.14-1.15.02-1.3-.36-.01-.07.05-.2.22-.2l14.62-.04,2.13.14.21.38c-1.19,1.53-2.32,3.08-3.42,4.66l-.12,1.03c.42,1.68.33,3.21-.25,4.59-.02.14.33,2.6.42,2.77.34.67.76,1.11,1.29,1.63.61.8.82,1.75.63,2.85,1.74,1.83,1.51,3.68,1.15,6,1.69-.75,2.79-2.07,3.72-3.59,1.3-.96,2.39-2.12,3.28-3.48,2.24-1.72,4-3.35,4.94-6.09.14-.28.41-.27.7-.16.25.14.26.47.04.99l-.81,1.75c.56-.19.91-.09,1.07.29v.76c-.16.31-.48.46-.96.45-1.49.98-2.91,2.09-4.25,3.32l-.47-.12c-.12.45-.3.89-.55,1.32l.08.44-1.42,1.16-3.58,4.06c-.89,1.97-1.63,3.99-2.23,6.07-.98.94-1.95,1.89-2.9,2.85l15.91-.05.02-16.8.4-.24c.14.34.57.84.57,1.3v6.82c-.59,1.66-.43,3.44-.05,5.09l.07,2.73c0,.25.09.38.19.3,2.01-1.77,3.96-3.65,5.85-5.63l-.02-11.49c-.67,1.46-.78,2.6-.52,4.16-.12.83-.37,1.35-1.11.65-.23-1.93-.1-3.54.76-5.31-.03-1.13.21-2.29.84-3.24v-3.96c-1.41,1.67-2.91,3.26-4.51,4.75l-.68.02s.05-.31-.03-.36-.45.1-.48.01c-.14-.41-.09-1.28.04-1.73.37-.06.52.23.47.87,1.54-1.44,2.99-2.96,4.35-4.57l.77-.25c-.05.04.12.27.16.22.06-.07.16-.4.5-.47l.05,5.76c.11-.48.24-.57.52-.68l-.13-4.73c-.01-.54-.34-.78-.33-1.47l.12-6.93c.15.1.09.38.3.61l.05-4.77h-7.73c-.18,0-.19-.13-.19-.2l8.11.04v33.55s-7.31,7.28-7.31,7.28H53.79Z"/>
      <g>
        <path class="cls-1" d="M135.14,115.19l-.09,3.2c-.68-.1-1.17.34-2.06.54.52-.74.9-1.41,1.23-2.33.15-.43.62-.75.53-1.24-.03-.16.13-.43.18-.59.18.07.22.25.21.42Z"/>
        <rect class="cls-19" x="142.43" y="112.59" width=".26" height="2.68" transform="translate(-3.3 4.26) rotate(-1.69)"/>
        <path class="cls-13" d="M70.22,138.72c.18-.08.41-.39.58-.51l2.54-1.84c.63-.45,1.05-1.22,1.76-1.58,1.47-.76,2.54-1.74,4.01-2.73-.54,1.61-.79,2.91-1.25,4.34l-.86,2.7-7.07.03c.05-.21.2-.28.27-.41Z"/>
        <path class="cls-23" d="M117.41,118.29c-.11.49-.04.56.21.21.08-.06.35-.19.44-.13,1.07,1.98,2.33,1.76,1.93,3.75-.24,1.2,1.14,2.03,1.32,2.95l-.23,3.75c-.08,1.29-1.19,2.74-1.63,3.76l-1.13,2.65c-.55,1.29-1.38,2.35-1.74,3.86h-12.26c-.6-.99-.15-1.95-.11-2.95.06-1.35-.88-2.63-1.22-3.91l.99-1.58c.04-.29.03-.55-.05-.83l-.28-.79c-.22,0-.31-.2-.28-.59.38-1.48.31-2.85-.22-4.11-1.32-1.81-2.45-3.99-2.23-6.26l-.65-1.95c-.2-.6-.17-1.39-.4-2,.8-2.54,2.33-4.78,4.58-6.24,1.3-.84,2.34-1.84,3.29-3.04h9.75c-.21,1.77.6,3.61.4,5.15-.14,1.08-.28,2,.15,3.03.21.49.07,1.08-.17,1.54-.7,1.29.54,2.35-.49,3.72Z"/>
        <path class="cls-2" d="M100.63,119.53l.24-.04.98,2.78c1.05,1.24,1.64,2.56,1.78,3.96-.14,1.02-.23,2.04-.25,3.05.28.66.06,1.29-.4,1.89l-3.18,4.15c-.62.81-1.42,1.33-1.92,2.26l-.59.58c.17.47-.22.87-.7.6-.19.12-.58.34-.91.34h-18.04s.77-2.58.77-2.58l.57-2.62c.23-1.06.86-2.1.76-3.23-.08-.85-.09-1.66.74-2.22,1.04-.71,1.86-1.65,2.84-2.48.65-.55,1.51-.96,1.59-1.96.06-.76.66-.92,1.11-1.26.79-.6,1.45-.59,2.32-.93,1.2-.46,2.58-1.47,3.38-2.44.74-.89,1.21-1.31,2.43-1.46.7-.08,1.66-.62,2.23-1.06l3.09-2.42c.09,1.35.81,2.23.94,3.36l.21,1.74Z"/>
        <path class="cls-2" d="M96.6,138.76c.22-.14.38-.56.7-.6.62-.09.91-.56,1.37-1.04l1.73-1.81,2.17-2.56c.33,1.1,1.27,2.19,1.3,3.41.02.88-.6,1.8.06,2.89l-7.3.1c-.13,0-.15-.26-.03-.39Z"/>
        <path class="cls-12" d="M117.35,139.19c-.08-.72.38-1.21.51-1.86,1.12-1.11,1.37-2.62,2.01-3.98.39-.83.96-1.41,1.22-2.36.18-.66,1.08-1.2,1.82-1.38l-1.72,4.89c-.38,1.09-.94,2.04-2,2.56l-1.85,2.12Z"/>
        <path class="cls-10" d="M118.23,108.94l-.46-2.57c-.09-.49-.11-.98-.05-1.51l3.96.03-3.45,4.05Z"/>
        <path class="cls-17" d="M103.66,129.03l-.28.24c-.67-1.59.95-3.2-.71-5.43-.74-.99-1.26-1.98-1.57-3.2l-.47-1.11c.34-.38.23-.96.32-1.45l.15,1.44.76,2.39c.22.7.76,1.36,1.19,1.95,1.59,2.21.15,3.83.62,5.17Z"/>
        <path class="cls-17" d="M103.99,130.65c-.22-.25-.08-.57-.05-.83l.42.37c.69-.64,1.45-1.1,2.28-1.51,1.67-.83,2.94-1.92,4.43-3.31-.29.81-.97,1.44-1.68,1.89l-4.03,2.53c-.49.31-.84.8-1.37.87Z"/>
        <path class="cls-8" d="M117.63,118.5c-1.13,1.86-2.56,3.62-4.33,4.93,1.47-1.86,3.04-3.27,4.11-5.14,0,.11.16.25.21.21Z"/>
        <path class="cls-6" d="M128.82,124.12c-.19-.62.14-.98.55-1.32.34.63-.12.99-.55,1.32Z"/>
      </g>
    </g>
    <g>
      <path class="cls-2" d="M135.9,137.85c.16-3.43,0-6.75.03-10.21l.07-8.73c0-.6.11-.83.5-1.11,1.55-1.11,2.77-2.65,4.06-4.14l1.53-1.77-.03,5.22c-.61.97-.83,2.03-.82,3.18l-.86,2.47.12,2.92c.8-.92-.21-2.43.29-3.51,1-2.18.52-3.32,1.33-4.13l.03,14.33-6.01,6.01c-.14-.1-.24-.36-.23-.54Z"/>
      <path class="cls-30" d="M136.86,133.47l.64,3.18c-.04.09-.11.12-.17.12l-.89-3.19c-.24-.85,1.05-1.44,1.53-1.91.5-1.87.69-3.81,2.16-5.24-.87,1.9-1.8,3.44-1.62,5.6-.69.22-1.63.69-1.66,1.45Z"/>
    </g>
  </g>
</svg>