<?xml version="1.0" encoding="UTF-8"?>
<svg id="Layer_1" data-name="Layer 1" xmlns="http://www.w3.org/2000/svg" viewBox="38.5 27.68 150.17 150.17">
  <defs>
    <style>
      .cls-1 {
        fill: #cca25e;
      }

      .cls-2 {
        fill: #c89c54;
      }

      .cls-3 {
        fill: #060604;
      }

      .cls-4 {
        fill: #030303;
      }

      .cls-5 {
        fill: #d0a358;
      }

      .cls-6 {
        fill: #452807;
      }

      .cls-7 {
        fill: #0b0602;
      }

      .cls-8 {
        fill: #040404;
      }

      .cls-9 {
        fill: #050302;
      }

      .cls-10 {
        fill: #88775a;
      }

      .cls-11 {
        fill: #0a0502;
      }

      .cls-12 {
        fill: #cea461;
      }
    </style>
  </defs>
  <g transform="rotate(1.5 41.75 102.77)">
    <polygon class="cls-3" points="38 70.2 50 72.9 50 122.7 38 126.1"/>
    <path class="cls-8" d="M79.18,89.62c.09-.18-.04-.27-.38-.26-2.42.72-4.63,1.72-6.58,3.39-.9.77-1.94,1.07-3.13,1.08l-7.42.05,1.66-2.09,4.49-4.61c1.48-.6,2.66-1.49,3.48-2.86.52-.32,1.13-.59,1.7-.86l2.25-1.04c1.37-.23,2.54-.42,3.77-1.08s2.35-1.07,3.47-1.99l26.51,4.71c-.63.46-1.28,1.03-2,1.25-1.08.32-1.83.85-2.77,1.44l-3.16,1.99-1.59,2.14c-2.08,1.39-3.99,2.81-5.82,4.5-3.33,3.08-7.16,4.1-11.41,5.24-2.68.72-4.95,2.14-7.5,3.17l-4.94,2c-3.3,1.34-6.7,2.04-10.25,2.88.27-2.55,1.99-3.96,2.52-5.83.48-1.71-1.9-1.82-1.22-2.56.56-.61.13-1.27.16-1.88.02-.51.53-.95.36-1.47-.13-.39-.5-.74-.84-1.13-.3-.35.02-.76.21-.95.26-.27.62-.41,1.05-.41l7.28-.04c1.27,0,2.29-.36,3.3-1.07l2.78-1.96,4.02-1.73Z"/>
    <path class="cls-8" d="M49.72,96.04c-1.57.76-3.04,1.17-4.66,1.44-1.87.53-3.71.85-5.64,1.12-.88.12-1.68.42-2.27,1.13l3.29-.4c-1.52,1.87-4.17,1.94-5,2.82-.53.56-.77,1.33-1.47,1.82-.47-7.22.23-14.26,2.15-21.07,1.71-1.31,3.51-2.06,5.29-3.12,1.94-1.16,3.8-2.3,5.89-3.19,1.71-.73,3.26-1.48,4.83-2.58l28.52,5.05c-1.57.89-3.03,1.43-4.65,1.91-.83-.26-1.63-.15-2.1.63l-3.54,1.35c-1.01.39-1.65.54-2.27,1.38-1.5,2.01-3.14,3.95-4.94,5.7-.87.85-1.75,1.53-2.46,2.53-.63.89-1.63,1.4-2.69,1.66-2.09.51-4.04,1.1-6.03,1.89-.68.27-1.41.34-2.26-.05Z"/>
    <path class="cls-8" d="M45.85,117.91l-3.17-.1-6.51-.81c-1.11-4.01-1.81-7.94-2.17-12.16.82-.55,1.24-1.36,1.88-2.09.84-.96,4.03-.8,5.57-3.43,2.44-.32,4.88-.65,7.24-1.39.77-.24,1.2-.48,2.09-.31.95.18,2.01-.52,2.91-.79l5.23-1.55c-.42.85.71,1.49.74,2.04,0,.71-.3,1.41-.15,2.2.07.37-.51.96-.32,1.42.42,1.04,1.26,1.24,1.47,1.55.26.39-1.61,2.42-2.14,4.48-.33,1.29-1.03,2.28-2.14,3.04l-3.29,2.25c-2.56,1.75-5.08,3.4-7.24,5.64Z"/>
    <path class="cls-8" d="M93.16,111.64l-19.92,8.8c.75-.95,1.69-1.45,2.13-2.52,1.63-1.53,3.14-3.15,4.18-5.13l1.36-3.59c.31-.81.62-1.53,1.34-2.05.22-1.36.74-2.52,1.56-3.63l14.67-6.3c.49-.21,1.04-.03,1.51.17l-.04,3.13c-.01.88-.22,1.83-.99,2.28-.7.41-.39.93-.53,1.41-.31,1.05-1.15,1.96-1.69,2.92l-1.29,1.52c-.53,1.01-.98,2.39-2.28,2.96Z"/>
    <path class="cls-8" d="M73.7,119.01l-3.85,2.88-9.55,4.31c-.19-1.67-.35-3-1.51-4.15l1.14-4.35c.29-1.11,1.38-1.86,1.86-2.85l1.13-2.34,19.44-8.34-.88,2.45-.78,1.16-1.7,4.64c-.99,2.03-2.66,3.51-4.19,5.12-.42.44-.58,1.08-1.11,1.47Z"/>
    <path class="cls-8" d="M51.54,124.06c.5,1.17.56,2.46.37,3.83l-.3,2.1-8.34,3.65c-2.04-3.37-3.74-6.8-5.15-10.6l14.91-6.32-1.29,3.3-.84,4.21c.13.29.38.34.65-.16Z"/>
    <path class="cls-4" d="M111.4,100.57c-.29,1.52-.92,2.82-1.94,3.88l-14.08,6.22c2.56-3.01,4.54-6.16,6.02-9.72l1.41-2.56c.32-.51.89-.74,1.5-.58,1.6.41,3.15.41,4.8.49,1.26.06,2.35.15,3.62-.44l-1.32,2.72Z"/>
    <path class="cls-4" d="M59.96,126.31l-7.77,3.42c.59-2.36.64-4.54-.36-6.64l.76-3.39,1.39-3.36,7.81-3.38c-.4,2.08-2.51,3.06-2.96,6.04-.16,1.03-.69,2.22-.57,3.3,1.18,1.31,1.11,2.34,1.7,4.01Z"/>
    <path class="cls-4" d="M100.35,92.83c.61-3.6,2.92-3.67,5.79-5.97l1.32-.44,3.05-2.1,9.98,1.82-20.5,8.82.36-2.11Z"/>
    <path class="cls-4" d="M111.31,103.67c.95-2.16,1.19-3.72,2.67-5.82l3.35-4.75.21-1.16,3.51-4.23c.4-.3.79-.58,1.35-.67l.04,11.71-11.15,4.92Z"/>
    <path class="cls-4" d="M111.35,97.5l-5.41-.19c-1.24-.04-2.32-.36-3.59-.16-.92.14-1.87-.08-2.57-.51l20.09-8.56c-1.01,1.15-2.06,1.86-2.74,3.02-.92.26-.61,1.16-.81,1.65-.64,1.6-1.85,2.83-2.87,4.23l-2.1.53Z"/>
    <path class="cls-9" d="M69.15,107.01l7.44-3.16c2.01-.86,3.87-1.85,5.95-2.55l5.77-1.95c4.48-1.52,7.11-5.42,11.06-7.77l-.41,3.79-12.43,5.38-32.77,14c1.07-1.75,2.58-3.15,4.37-4.2,3.7-1.13,7.36-1.98,11.01-3.53Z"/>
    <path class="cls-4" d="M44.73,77.15l-4.37,2.55c-1.38.67-2.67,1.33-3.95,2.21.91-3.52,2.21-6.72,3.73-10.02l11.21,1.96c-1.3.91-2.51,1.39-3.8,1.96l-2.83,1.33Z"/>
    <polygon class="cls-3" points="44.89 118.52 37.62 121.67 36.34 117.56 42.15 118.34 44.89 118.52"/>
    <path class="cls-7" d="M52.44,115.31l-4.93,2.04c2.03-1.86,4.12-3.19,6.31-4.59l-1.38,2.54Z"/>
    <path class="cls-11" d="M102.39,97.82l-1.71,2.98c-.2-.98-.2-1.97-.11-3.06.59-.12,1.02-.16,1.82.08Z"/>
    <path class="cls-10" d="M79.18,89.62c-.08-.15-.25-.22-.38-.26.85-.25,1.61-.74,2.6-.68l-2.22.94Z"/>
    <rect class="cls-6" x="68.56" y="84.98" width="1.54" height=".28" transform="translate(-39.88 73.96) rotate(-45)"/>
  </g>
  <path class="cls-2" d="M144.3,93.84v-6.99s-1.47-.11-1.47-.11c-.23-.18-.17-.85-.08-1.2h2.97s0,8.31,0,8.31h-1.42Z"/>
  <path class="cls-5" d="M147.61,93.79c-.27,0-.25-.89-.07-1.08l3.55-3.58c.46-.47.63-1.49.1-1.95-.87-.75-2.14-.37-2.85.45-.43-.08-.73-.32-1.08-.69.62-1.08,1.83-1.43,3.06-1.43,1.04,0,1.98.46,2.39,1.27.46.92.37,2.13-.34,2.85l-2.86,2.92,3.61.04c.1.46.09.86,0,1.3l-5.5-.09Z"/>
  <g>
    <path class="cls-1" d="M159.34,102.08l-.12,3.93c-.28.07-.61.06-.88,0l-.04-3.76c0-.85-.57-1.49-1.33-1.59s-1.69.47-1.72,1.37l-.14,3.96c-.27.09-.51.13-.89.02l.04-6.03c.3-.06.59-.08.71-.02.15.08.17.44.18.77.58-.6,1.22-.91,2.02-.86.71.04,1.36.37,1.83,1.08.68-.81,1.42-1.15,2.34-1.07.81.07,1.83.61,1.85,1.64l.1,4.49c-.36.11-.56.12-.9.03l-.04-3.93c0-.88-.67-1.41-1.41-1.44-.78-.02-1.57.41-1.6,1.4Z"/>
    <path class="cls-12" d="M148.35,101.97l-.12,4.05c-.33.1-.57.1-.9.01l-.03-3.68c0-.95-.53-1.63-1.41-1.67s-1.73.52-1.75,1.52l-.07,3.66c0,.26-.74.33-.83.14l-.04-6c.29-.07.55-.08.68-.02.17.07.19.43.19.78.6-.6,1.2-.93,2.01-.89.72.03,1.34.38,1.88,1.14.66-.8,1.38-1.15,2.29-1.12.78.02,1.92.55,1.95,1.52l.13,4.61c-.27.11-.58.14-.86,0l-.04-3.66c0-.87-.45-1.53-1.22-1.65s-1.66.27-1.88,1.26Z"/>
  </g>
  <g>
    <rect class="cls-2" x="132.67" y="86.42" width="1" height="12.14"/>
    <path class="cls-2" d="M130.53,90.18c.13.08.3.04.38-.08l2.26-3.55,2.26,3.55c.08.13.25.17.38.08.13-.08.16-.25.08-.38l-2.49-3.91c-.05-.08-.14-.13-.23-.13s-.18.05-.23.13l-2.49,3.91s-.04.1-.04.15c0,.09.05.18.13.23Z"/>
    <path class="cls-2" d="M130.53,94.81c.13-.08.3-.04.38.08l2.26,3.55,2.26-3.55c.08-.13.25-.17.38-.08.13.08.16.25.08.38l-2.49,3.91c-.05.08-.14.13-.23.13s-.18-.05-.23-.13l-2.49-3.91s-.04-.1-.04-.15c0-.09.05-.18.13-.23Z"/>
  </g>
</svg>