<svg xmlns="http://www.w3.org/2000/svg" width="1040" height="780" viewBox="0 0 1040 780">
<defs>
<symbol id="p03" viewBox="0 0 509.25 154.57" overflow="visible"><path fill="#eed78c" d="M457.02,62.67c-6.84-1.28-13.69-4.09-21.39-3.9l-18.12,3.64c8.81-7.55,27.64-5.68,40.62-.65.19.07.31.22.54.41,2.28,1.57,6.7.19,9.09,3.7l-81.16.16c4.52-4.9,10.41-2.15,15.66-2.17l55.43-.2-.67-1Z"/>
  <path fill="#eed78c" d="M300.1,24.71c2.17-.11,5.43-.69,7.76.14,5.78,2.07,10.78.12,16.4.05l40.48-.55-8.84-4.55c-8.01-4.13-15.8-3.06-24.65.16,8.78-10.06,24.89-3.18,38.05,5.09l-32.2,1.36-35.03.8c-.75.02-2.04-1.04-1.96-2.5Z"/>
  <path fill="#eed78c" d="M496.09,30.44c-.87-4.04.4-9.12-2.35-12.7-2.13-2.78-7.02-1.26-10.25-2.28,2.83-1.34,7.33-.23,10.03-2.91,3.14-3.11,1.74-8.16,2.6-12.55l3.34,13.51c3.67.74,7.1.12,9.79,2.17-3.38.55-8-.39-10.11,2.52l-3.05,12.24Z"/>
  <path fill="#eed78c" d="M10.65,63.52c-.95-3.82,0-7.85-2.14-12-2.92-.96-6.25-.61-8.51-2.39,3.38-.45,7.35-.04,8.98-2.82l1.91-11.01c1.37,3.55-.09,9,3.18,12.22,2.19,2.16,7.73.26,10.75,1.99-3.05,1.25-8.31-.31-11.21,2.79-2.37,2.52-.96,7.75-2.96,11.22Z"/>
  <path fill="#eed78c" d="M302.1,19.66c-1.86,2.22-4.91,1.9-6.91,3.16,3.59-.74,3.31,2.48.98,1.73-9.33.55-18.47,3.42-27.44-.61l21-.93,11.16-4.38,1.21,1.03Z"/>
  <rect fill="#eed78c" x="349.89" y="50.31" width="54.52" height="1.23"/>
  <g>
    <path fill="#020201" d="M321.16,106.72c1.69,1.04,3.24,4.45,5.84,4.84.97.52,1.69,1.3,2.36,2.18,3.48,4.56,8.75,11.57-.33,7.58-8.29-3.22-16.65-6.36-25.09-9.42-7.01-3.32-12.02-8.05-15.02-14.18-3.59-4.2-7.77-6.69-12.75-9.77-9.99-7.17-6.59-8.63,4.01-12.28,4.67-3.2,9.43-5.62,14.29-7.27l1.96,1.29c1.79,8.81,6.52,20.82,15.03,24.8,1.94,5.77,5.17,9.84,9.7,12.23Z"/>
    <path fill="#eed78c" d="M395.48,114.18c1.71,1.65,1.09,2.37-1.15,1.46-4.55-3.77-9.2-6.79-13.36-12.06-1.82-2.3-6.88-5.64-9.9-4.03-5.98,3.2-10.6,5.69-17.93,7.08,1.13,1.52,3.1,1.72,2.6,4.7-3.08-3.88-6.92-4.17-10.61-6.25-10.11-5.72-11.46-16.93-20.12-13.42-7.47,3.03-13.98-13.68-27.19-21.11-.91,4.63,3.19,8.13,4.88,12.27l3.12,7.66c10.1,2.47,7.21,11.19,15.33,16.25-4.84-1.16-8.23-4.01-8.75-9.05-.43-4.13-6.47-4.43-7.69-6.63l-6.68-12.01-4.66-10.14c-6.67,5.3-13.3,7.89-20.69,11.08-1.85,1.94,1.55,6.78,3.49,7.98-3.77-.03-3.9-5.58-10.04-4.85,1.07-.8,1.83-1.04,3.06-2.74l-10.4-7.49c-3.37-2.43-6.09-2.86-8.2-6.87-1.57-2.99-6.19-4.98-9.23-5.64.6,1.42,1.17,2.8-.51,3.94-2.3-3-3.67-4.98-5.98-6.27-.77,1.51-1.31,1-1.61-1.52-3.97-9.96-10.48,4.18-26.87,8.57,5.04,7.02,14.34,10.77,16.92,17.37l-10.74-8.89-13.72-14.31c-3.11-3.24-5.07-7.97-9.56-8.63-1.57-1.21-1.14-1.64,1.29-1.3,8.2,1.67,10.39,14.04,15.34,14.15,1.12.02,2.85-1.71,4.2-2.2,15.4-5.58,18.18-16.82,27.44-8.78,1.38,1.2,3.57,4.89,5.25,5.34,5.86,1.55,7.56,6.58,11.69,9.58l14.13,10.28c16.15.24,20.56-16.77,32.18-7.71,6.62,5.16,12.45,11.1,17.61,17.88,3.96,5.2,9.33-3.05,16.63,4.34l11.22,11.36c1.74-.5,4.04.81,5.17,1.1,16.8-1.45,17.37-13.96,30.01-2.83l14.04,12.36Z"/>
    <path fill="#eed78c" d="M202.66,150.02c-2.32-.58-2.18-1.54.22-1.76l8.66,2.18c1.27,1.34,1.71,2.47,1.35,3.39-6.08,1.68-12.25-.02-18.87.01l-91.54.47c-9.31.05-17.82-.03-27.06.06l-17.18.16c.91-2.81,2.62-2.63,4.88-2.58l22.15.47c3.09.07,6.01-2.64,8.21-3.63,1.62-.56,1.95-.35,1.14,1.17-.68.31-2.09.38-3.52,2.12l46.52-.49c7.43-.08,14.55,1.71,22.83-.14l-15.05-5.7-19.89-3.38c-4.04-.69-6.7-1.28-11.15-.43,4.28-4.37,10.44-1.54,15.78-.56l18.73,3.45c6.1,2.36,11.64,6.5,18.51,7.15,5.67.54,11.25-.69,16.38,1.27.12-1.11-.34-1.45-.56-1.76l-.5-.8-8.23-2.06c-5.58-1.4-10.92-1.1-15.87-3.52,8.07.11,19.55,2.19,24.9,4.98.22.12.39.34.48.58l7.83,1.49,17.25-.5-6.39-1.63Z"/>
    <path fill="#eed78c" d="M190.57,49.33l-1.29,1.3c-6.11-.89-9.87-10.1-19.37-16.81-.12,4.7,1.82,7.45,2.6,10.84.12.21.27.41.44.57,2.72,2.56,3.24,6.16,2.19,10.21l3.54,9.14c4.28,11.04,10.76,11.92,12.15,18.77.27,1.89-.2,2.32-1.41,1.3-.98-7.21-9.58-10.62-12.14-16.76-.99-4.6-2.71-8.9-4.36-12.72-.72-2.2,2.19-7.02-1.13-8.98.03-.22-.16-.4-.25-.61l-2.91-6.4c-1.33-2.93-2.37-5.8-5.3-7.07l-16.29,13.86c-4.59,3.9-7.36,9.91-13.29,12.34l-9.96.99-13.68,14.56c-4.72,5.02-9.76,8.16-15.16,12.01-4.19,2.99-7.27,6.22-13.5,4.92-14.23-2.97-22.92,17.24-39.98,20.7,12.06-5.83,27.95-23.27,34.93-22.7s11.76,2.07,16.8-3.88l11.27-7.98,14.51-15.97c4.03-4.43,7.43-3.97,12.72-4.5,6.36-.63,9.7-8.24,13.95-11.79l16.08-13.46c4.65-3.89,10.55.36,14.12,4.41l7.94,9.02c2.58,2.93,3.78,4.07,6.8,4.69Z"/>
    <path fill="#eed78c" d="M202.88,148.26l-.22,1.76-16.38-3.55c-6.73-3.14-12.58-5.28-20.32-4.25-4.48.6-7.86-4.55-11.63-5.22l-16.01-2.86c-5.69-2.37-10.8-6.78-17.78-7.01-1.07-.04-.91,3.73.06,4.06,2,1.81,1.31,2.57-1.05,1.1-1.16-1.45-1-3.72-1.36-5.87-.99-5.91-15.64.38-26.05,4.32-9.59,3.63-19.34,5.64-29.46,3.35-10.69-2.42-21.58,4.31-31.52,1.26,4.97-.56,8.89-.98,13.57-1.75l13.45-2.2,13.48,2.2c23.71-2.88,39.18-16.3,50.42-8.48,6.84,2.03,13.18,5.13,19.64,8.72,7.17-1.12,13.9.14,19.06,4.96,3.86,2.65,7.41,1.95,11.59,1.2,4.75-.85,9.06,3.56,13.33,4.5l17.16,3.76Z"/>
    <path fill="#eed78c" d="M197.7,93.36c1.05-1.94,3.15-2.65,4.1-.24,1.45,1.22,3.21,2.99,6.06,2.06-1.09-1.09-3.64-1.09-3.79-4.21,4.03,2.04,9.38,3.2,12.95,6.29,8.32,7.2,16.84,2.15,24.38,5.35,6.33,2.68,10.94,10,18.02,11.27,5.14.92,9.76.33,13.39,5.05,2.52,3.28,6.91,3.72,10.62,5.23l12.57,5.11c-.37.27-.68.71-.71.82l-13.26-4.59c-4.51-1.56-8.72-2.81-12.11-6.26-2.43-2.47-5.44-4.18-9.15-3.29l5.97,6.43c-3.88.39-4.76-3.67-7.03-5.05-6.81-4.14-13.34-7.29-18.63-13.73l-16.6-.48c5.71,4.8,10.78,9.54,18.02,12.09,2.37-.59,2.09,2.14-.26,1.52-11.49-4.2-19.32-12.78-29.11-19.3-4.42-.56-11.74-.4-15.42-4.08Z"/>
    <path fill="#eed78c" d="M183.35,85.61c2.96,1.46,4.06,3.1,3.31,4.91,1.68,1.67,2.79,4.65,5.85,5.63l23,17.48c-11.8-5.28-21.9-13.42-31.36-22.53l-5.63-6.83c-12.92,5.93-14.4-11.29-23.23-1.95-.65-2.76,1.58-4.36,3.16-4.83,5.26-1.56,9.93,7.99,18.76,5.96,2.63-.6,4.66.99,6.14,2.14Z"/>
    <path fill="#eed78c" d="M394.33,115.64l1.15-1.46c1.42,1.25,3.61,4.11,5.8,4.73,9.57-.13,16.74,3.87,23.29,9.85,5.83,5.33,13.99,5.75,21.07,8.09-10.74,1.48-19.74-3.69-26.99-10.67-3.8-3.67-9.67-4.58-15.14-5.07l4.24,5.44c-6.39-2.12-9.17-7.41-13.41-10.92Z"/>
    <path fill="#eed78c" d="M329.04,121.33l4.16-.11-6.19-9.66c5.17.78,3.71,7.57,14.65,13.27l25.31,13.19c-.56.78-1.47.76-1.89.59l-26.03-12.56c-3.57-1.72-7.74-1.96-10.01-4.73Z"/>
    <path fill="#eed78c" d="M329.04,121.33c-1.18.12-3.66.03-4.83-.98-4.39-3.79-9.56-2.84-14.57-4.49-6.04-1.98-21.69-11.91-20.71-18.14,1.42,1.66,2.67,4.67,4.94,6.16,5.6,3.67,11.16,8.03,17.54,10.49,5.72,2.21,12.78,1.83,17.64,6.95Z"/>
    <path fill="#eed78c" d="M109.48,94.38c-7.03,10.69-22.28,18.12-37.42,23.3,5.37-4.59,11.88-7.46,18.93-10.16s11.08-9.25,18.49-13.14Z"/>
    <path fill="#eed78c" d="M119.55,132.29c.64.08,1.1-.39,1.05-1.1,3.34,2.91,7.57,4.08,12.24,5.06l18.58,3.91-.08,1.88-21.78-5c-3.83-.88-7.84-2.04-10.01-4.75Z"/>
    <path fill="#eed78c" d="M201.8,93.12l-4.1.24-5.9-2.48c-1.85-.77-3.73-1.15-5.14-.36-1.41-1.41-3.03-2.51-3.31-4.91,1.07.53,3.41.24,5.09,1.72,1.4-.7,1.41-1.68.99-2.68l1.41-1.3c.79,3.91,3.06,6.9,7.53,8.44.37-1.32,1.51-2.31,2.07-1.76,1.13,1.09,1.32,2.07,1.36,3.09Z"/>
    <path fill="#eed78c" d="M234.86,58.03c-.81,4.33,4.53,6.42,6.73,9.66,2.86,4.21,4.03,8.47,8.13,11.89-7.31.1-6.35-11.53-16.62-16.93-.52-2.29.05-4.28.15-6.14l1.61,1.52Z"/>
    <path fill="#eed78c" d="M412.1,138.26c-10.49-1.25-19-4.58-26.83-9.5l26.83,9.5Z"/>
    <path fill="#eed78c" d="M203.81,79.24c-6.68-3.98-10.06-11.76-14.93-18.86,3.13.36,4.06,2.77,5.43,4.54,1.86,5.51,6.24,7.94,9.5,14.32Z"/>
    <path fill="#eed78c" d="M174.79,103.07c5.4,2.28.76,9.75,12.25,15.74-8.42-.04-11.19-8.24-12.25-15.74Z"/>
    <path fill="#eed78c" d="M342.7,138.26c-7.72-.5-15.22-2.57-21.65-7.72l21.65,7.72Z"/>
    <path fill="#eed78c" d="M379.49,126.08c-7.11-.27-12.7-3.63-17.6-8.39,6.88,1.9,11.77,5.29,17.6,8.39Z"/>
    <path fill="#eed78c" d="M265.41,81.88c-6.16-.25-13.7-2.68-16.23-9.54,5.02,4.13,10.38,6.1,16.23,9.54Z"/>
    <path fill="#eed78c" d="M278.98,102.93c-6.06-1.46-8.94-6.71-10.96-11.97,3.72,4.25,6.83,7.94,10.96,11.97Z"/>
    <path fill="#eed78c" d="M212.88,153.83c-2.23-2.49-3.75-2.8-1.35-3.39,5.86,1.47,11.74.99,18.34,2.07l-17,1.32Z"/>
    <path fill="#eed78c" d="M394.25,122.54c-6.03-1.08-10.29-5.73-12.71-11.08l12.71,11.08Z"/>
    <path fill="#eed78c" d="M143.89,61.68l-11.01,9.57c1.69-4.63,5.18-8.7,11.01-9.57Z"/>
    <path fill="#eed78c" d="M181.66,50.74c-4.03-2.82-5.94-5.74-8.4-9.93,4.09,1.78,6.91,5.61,8.4,9.93Z"/>
    <path fill="#eed78c" d="M94.6,149.96l-1.14-1.17,11.28-5.12c.15.51.19,1.12.12,1.66l-10.26,4.62Z"/>
    <rect fill="#eed78c" x="273.56" y="122.76" width="2.19" height="9.59" transform="translate(37.73 316.17) rotate(-63.43)"/>
  </g>
  <path fill="#eed78c" d="M302.1,19.66c-.56,0-1.16-.66-1.21-1.03l13.49.14c0,.27-.15.69-.64.9h-11.64Z"/></symbol>
<symbol id="p05" viewBox="0 0 184.92 128.59" overflow="visible"><path fill="#eed78c" d="M73.26,42.78l-2.61-18.43c-.12-.87.13-2.42.33-3.11.14-.48,1.03-.68,1.69-.29.43.26,1.02,1.16,1.52,2.13,2.8-1.44,3.75-3.67,2.78-6.36-1.39-3.86-3.25-3.99-6.53-3.17-.55-4.25-1.24-8.41,1.06-13.55l10.73,18.86c-10.66,13.03-4.07,23.39-5.66,25.19-1.07,1.21-3.02.75-3.31-1.27Z"/>
  <path fill="#eed78c" d="M144.03,46.46l-10.25,6.16c-1.19.72-2.23.05-2.6-.74s-.41-2.13.75-2.75l14.8-7.91c2.34,8.54,1.7,19-6.28,24.5.71-7.54,5.71-11.57,3.58-19.26Z"/>
  <path fill="#eed78c" d="M104.09,30.04c-4.13-4.35-1.6-8.83-2.25-14.49-3.58,1.9-5.04,5.66-9.61,3.63l12.86-10.7-.99,21.57Z"/>
  <g>
    <path fill="#eed78c" d="M48.78,111.35c-8.85-13.68-19-25.81-25-42.16,12.38,4.47,21.45,12.8,31.58,21.06-5.57-15.89-14.56-28.76-24.3-41.95-2.5-3.39-3.99-9.66-.29-12.86l2.9,11.5c4.08-1.39,7.65-3.37,9.33-7.78,1.52-.03,3.87,2.53,3.23,3.5-2.43,3.34-6.42,5.17-9.98,7.43,9.42,11.54,16.71,24.13,22.04,38.04,1.9,4.97,2.92,9.93,7.67,13.32l-5.3-32.85-3.39-33.15c13.61,16.27,21.13,33.85,27.21,52.65l6.75-24.8,17.61-31.84-4.43,51.45c8.35-10.86,13.1-22.75,24.1-33.2-.53,15.07-7.44,32.53-10.11,48.79,10.26-10.61,21.6-20.34,36.61-26.43-5.6,15.31-15.56,26.45-23.73,39.62,10.91-4.05,21.62-7.81,34.27-5.81l-30.19,19.83c16.68,2.09,33.03-2.11,49.57,2.82l-184.92.06c14.09-5.29,28.12-.1,42.21-3.34-10.37-7.72-20.92-13.75-30.06-23.62,13.25-1.92,24.24,4.64,36.63,9.72Z"/>
    <g>
      <path fill="#090704" d="M96.77,126.09l17.31-43.11-18.85,36.93c3.83-22.05,14.66-40.77,27.92-58.34-4.13,23.92-11.02,48.86-26.38,64.51Z"/>
      <path fill="#0d0b05" d="M82.87,126.45c-13.87-16.28-19.47-47.35-19.52-68.79l19.52,68.79Z"/>
      <path fill="#0d0b05" d="M84.03,119.33l-16.96-63c11.87,19.07,17.74,40.66,16.96,63Z"/>
      <path fill="#0b0805" d="M61.81,126.04l-14.12-.45-25.7-19.55c15.99,2.33,29.24,9.36,39.82,20Z"/>
      <path fill="#0f0d05" d="M89.14,111.37c-5.43-18.75,2.14-43.47,12.43-62.11l-5.55,26.92-6.88,35.2Z"/>
      <path fill="#0c0905" d="M112.46,120.09c-2.49,3.22-5.12,6.25-9.65,5.68,9.42-15.75,20.82-30.5,37.23-41.36l-27.58,35.69Z"/>
      <path fill="#0d0a04" d="M129.68,125.2c-3.65,2.2-9.66.41-13.19.49,11.03-10.18,24.5-15.38,39.58-16.39l-26.4,15.9Z"/>
      <path fill="#0f0b05" d="M70.95,124.98c-.51,1.73-3.55,1.23-5.07-.24-12.57-12.15-22.72-25.81-31.38-41.26,13.2,12.96,24.94,25.81,36.45,41.5Z"/>
      <path fill="#130f06" d="M64.52,106.66c4.29,6.46,10.21,11.28,11.25,19.5-11.6-13.92-21.39-27.69-34.54-39.75-1.54-1.42-2.93-3.76-3.55-5.93l17.39,13.55c4.01,3.12,6.37,7.99,9.46,12.63Z"/>
      <path fill="#1c1407" d="M130,108.2c-5.65,5.5-9.92,11.49-16.18,14.92l29.72-37.46c-2.75,8.79-9.17,14.33-13.54,22.55Z"/>
      <path fill="#231b0a" d="M92.84,113.26c-.63-13.08,3.27-24.59,6.01-36.87,1.07-4.76,1.04-9.47,4.37-13.25-2.4,17.56-4.51,33.94-10.38,50.12Z"/>
    </g>
  </g></symbol>
<symbol id="p07" viewBox="0 0 242.81 264.03" overflow="visible"><path fill="#eed78c" d="M208.62,254.54c-3.12.93-5.49.63-7.32-.08v-1.79c2.15-.53,4.65.27,7.44-1.58,1.02.3,1.32,3.03-.12,3.46Z"/>
  <g>
    <path fill="#eed78c" d="M113.03,257.7c-.14-5.38,2.25-9.55,5.49-13.97l-9.27-12.66c-1.54.86-3.42.66-3.9-.21-.41-.73.36-3.08.47-4.12l-8.44-7.16.06-2.96c.03-1.26-10.28.59-11.95,3.73s-.79,6.7.9,9.76c-.37,1.49-3.38,6.21-.84,7.74,5.34,1.54,11.39,1.44,16.66,5.52-4.14,2-7.5-1.28-11.3-1.37l-18.36-.46-20.88-7.55c.41-14.08-7.76-25.72-2.64-35.5l-14.95,2.22c-6.1.9-11.08.99-17.17.28-4.82-.56-10.37,2.73-15.74-1,3.41-2.69,6.96-1.7,11.04-1.59-1.53-2.12-3.13-2.56-5.81-3.89-1.98-8.2-6.8-16.47-6.38-25.32,10.77-15.22,10.66-19.51,30.88-22.48,9.52,1.75,17.24,9.46,23.14,17.91,3.94,5.64,4.24,12.52,6.67,19.53l13.4-7.2.56-50.85.39-61.5,19.55-50.65L119,0l22.43,14.42,17.83,50.38,2.04,70.19c8.7-9.95,17.73-17.95,30.46-21.58,2.73,3.23,7.54,5.4,8.88,9.34l11.72,34.63-12.8,49.36c6.94-2.85,13.46-7.1,20.87-7.78,4.1.95,10.99,6.21,12.85,10.18l9.2,19.69c1.13,2.41-.79,9.1-3.27,10.36l-13.23,6.74c3.82,1.39.63,4.19-1.32,1.56-8.48.12-17.95,2.84-25.61-1.04-3.43-1.73-5.32-4.24-9.99-5.16-2.42-.48-5.71-5.19-6.83-7.02,3.26-5.57,7.85-10.07,6.21-16.55l-7.44,12.83c-1.86,3.21-3.18,6.48-8.23,7.22l11.21,13.31c1.79,2.12,2.1,6.8,6.98,5.63.66-.78.42-2.85-.03-4.45,2.87-.25,3.45,2.57,3.41,4.76-.1,4.93-9.37,1.93-21.35,5.19l-14.28-.06c-6.2-.03-25.67,6.49-45.67-4.42Z"/>
    <g>
      <path fill="#010101" d="M112.74,139.51l-1.38,2.17.49,21.86-6.03,16.07-16.13,5.72-11.84-8.39-.07-52.7c1.45-1.05,3.95.25,5.35,1.24,2.18,1.54,2.25,3.8,2.64,6.12,2.29.76,2.04-2.45,1.84-4.58-.67-3.88-5.11-5.65-9.43-6.49v-52.62s17.1,11.38,17.1,11.38v26.79c0,1.1,1.36,2.42,2.63,2.53l.27-27.09,18.05,13.38,1.9,68.4c-.61.77-3.51.93-3.91.29l-.24-22.64c-.01-1.01-.57-1.58-1.25-1.45Z"/>
      <path fill="#080703" d="M187.41,175.74c1.71,9.9-2.56,23.49-2.71,27.37-.35,9.05.16,16.29-5.92,24.37-1.51,2.01-2.29,6-4.52,6.81-2.8,1.02-7.32,1.53-8.9-.61l-.15-36.34,7.83-37.65,21.52,2.75c-1.4,3.32-.61,5.58,2.19,7.9l-9.33,5.41Z"/>
      <path fill="#010101" d="M156.11,65.68c-9.81-1.76-15.57-7.84-26.94-3.75l-9.43-21.67c-2.27-11.65.89-23.21.87-35.16l18.51,11.8,17,48.79Z"/>
      <path fill="#010101" d="M79.74,61.81l17.43-45.45c3.95-2.95,8.52-4.91,12.79-6.75-.22,2.88.1,4.54.75,5.26.93,1.04,3.63.37,3.26-1.7-.22-1.24-3.08-3.27-2.59-4.35.53-1.17,2.7-2.42,5.51-3.4l-1.83,34.62-18.23,22.41c-4.69-1.91-8.93-3.04-17.09-.64Z"/>
      <path fill="#010101" d="M70.75,217.45c-5.05-8.86-10.72-9.05-9.36-15.02-1.86,1.79-2.91,2.46-4.56,2.88s-6.03-.64-5.68-2.4c.53-2.64,2.72-4.65,4.61-7.38.92,2.2,1.82,5.74,5.52,5.14-1.94-3.69-3.78-5.5-3.59-7.98.18-2.47,1.77-4.56,4.36-5.93l13.47-7.12,11.81,7.18c.98,9.28,5.82,16.58,11.13,24.76-5.02,2.08-9.57,4.53-14.26,4.83-4.07.26-8.8-.9-13.44,1.03Z"/>
      <path fill="#010101" d="M117.47,91.78c-5.74-5.13-14.16-8.74-18.62-14.78-4.14-5.6,1.86-14.13,5.16-18.28l12.54-15.81c7.67,11.8,12.31,24.58,13.59,38.52l-12.67,10.35Z"/>
      <path fill="#030201" d="M124.05,139.57c-1.22,3.27,2.46,10.15-3.28,12.22l-1.15-56.52c-.04-1.8,12.43-12.96,19.69-15.1l-.94,29.66-7.79,9.15c2.14,8.24-3.62,12.82-6.53,20.59Z"/>
      <path fill="#030303" d="M184.94,140.3c7.47,6.85,14.37,11.78,24.07,15.3-3.97,2.09-7.97,4.33-11.73,3.8l-18.72-2.62c-2.46-.34-3.63-1.18-4.5-2.74-1.3-2.35-.29-3.35,1.21-5.59,6.43-9.57,11.3-19.49,15.59-29.95,5.45,1.56,7.21,5.57,8.81,10.7l6.98,22.4c-9.7-3.63-15.59-12.62-21.71-11.31Z"/>
      <path fill="#030201" d="M50.52,165.74c-1.56,1.46-5.75,1.91-7.43-.08l-5.21-6.18c-.77,4.66,1.6,7.83,2.43,11.91-6.65,6.84-15.72,8.56-23.43,3.55l-3.83-20.32,18.38-5.51c1.7,4.2,2.59,7.51,6.5,9.91,1.68-2.35-.02-3.93-.27-6.35,5.93,2.47,7.91,7.53,12.86,13.07Z"/>
      <path fill="#080704" d="M196.23,199.5c-.58-2.95-3.29-4.43-7.13-5.46l1.89-15.49c.54-4.44,6.66-6.21,11.08-6.47-2.17-2.54-6.33-5.42-4.35-8.08,1.97-2.65,6.86-3.03,10.83-3.88l-11.35,41.04c-1.69,6.09-2.11,12.26-8.58,16.8-1.47-7.08-2.86-14.05,1-20.67,1.6.67,2.79,2.33,6.61,2.21Z"/>
      <path fill="#040302" d="M224.76,234.86c-5.52-8.78-14.2-7.91-16.91-13.66,5.19-5.63,9.25-11.3,12.52-18.58,9.35,3.41,14.78,12.3,12.14,21.93,2.57.84,4.51,1.41,5.51,4.02-6.06-.75-10.16-.28-13.27,6.29Z"/>
      <path fill="#030202" d="M102.91,196.39l8.83-25.54,6.55-6.32,1.65,51.26c-5.65-7.52-8.99-14.24-17.03-19.39Z"/>
      <path fill="#040302" d="M126.27,259.04c-4.3-2.4-4.04-5.93.9-5.24,1.56.2,3.31.85,4.64.44,1.35-6.77-2.67-9.59-9.21-11.65,7.62-8.66,14.43-12.87,23.67-8.23-2.47,5.21,4.29,8.36,7.03,16.48-18.16-2.87-20.33,8.6-22.66,9.04-1.17.22-3.32-.2-4.37-.84Z"/>
      <path fill="#060404" d="M109.46,224.14c-.64-4.27,1.53-9.93-4.95-11l2.91,9.87c-2.97-1.66-4.99-3.25-6.2-4.65-1.55-1.79-1.54-6.9.47-7.84l8.02-3.76c7.25,8.82,13.21,17.6,18.08,27.53l-8.12,5.99c-3.23-5.27-9.18-9.2-10.22-16.13Z"/>
      <path fill="#080704" d="M217.75,244.96c-6.18.51-12.16.61-18.39-1.49l8.21-16.34c4.53.96,8.97,3.27,12.3,6.65l-2.12,11.18Z"/>
      <polygon fill="#090703" points="171.42 155.64 164.3 187.59 161.4 141.8 171.42 155.64"/>
      <path fill="#161108" d="M27.8,181.31c.45,2.61.34,3.91.02,6.58-3.69-.09-6.6-1.14-9.66-4.88-2.1,4.25-5.38,6.7-9.3,7.58l-5.95-18.46c1.9.64,5.47,2.47,6.92,4.1.47.53-.17,2.65.04,3.23.28.78,2.83-1.01,3.82-.82l14.1,2.67Z"/>
      <path fill="#090604" d="M46.51,185.09c2.59,2.84,4.17,6.02,4.74,9.55-2.38-.19-4.54.63-6.74,2.49l-8.69-9.01c-1.28-1.33-3.97-1.27-4.59-2.68-.78-1.77-1.05-4.64.89-5.64,2.19-1.12,5.49-3.07,8.14-2.72,3.23.68,6.24,5.35,6.24,8Z"/>
      <path fill="#090704" d="M203.39,226.82l-17.3,9.45,11.93-25.86c3.06,8.71,10.35,13.68,5.37,16.4Z"/>
      <path fill="#060503" d="M132.96,78.97l-2.57-14.33,11.45-1.02c2.51,2.26,4.81,2.94,9.18,3.77-5.59,4.61-10.38,8.39-18.06,11.57Z"/>
      <path fill="#0a0704" d="M67.81,222.79c-4.54-.58-9.09-.62-13.95,1.29l-3.27-15.68c8.25-.2,16.68,4.11,17.22,14.39Z"/>
      <path fill="#0c0a05" d="M171.03,239.25c-3.06,5.96-8.7,7.86-15.64,8.94-2.41-4.14-5.49-7.84-5.5-13.9l21.14,4.97Z"/>
      <path fill="#0f0b05" d="M172.32,252.38c2.05,1.95,9.04-3.03,11.85,4.56l-11.1,2.31c-4.04-4.79-8.53-6.31-14.25-9.57,6.65-.7,10.1-1.77,13.43-7.14,2.68,2.92,4.68,5.25,7.9,6.4-2.95,1.7-6.07.48-7.76,1.89-.45.37-.85.8-.07,1.54Z"/>
      <path fill="#0a0804" d="M174.23,131.34c-2.25-.77-2.38-2.06-.38-3.87,3.5-4.22,8.04-6.88,14.07-8.95l-17.36,30.91c-2.26-5.26,1.38-10.02,4.11-13.71,1.16-1.57-.1-3.22-.44-4.39Z"/>
      <path fill="#0e0b05" d="M72.7,237.81l-18.24-6.52c-.21-1.18.43-3.99,1.04-4.35,3.93-1.39,9.34-1.49,13.82-1.08,1.62,3.73,3.26,5.88,3.39,11.95Z"/>
      <path fill="#140e07" d="M52.4,179.63c-1.71.37-1.73,2.66-.3,5.07-3.44-2.54-6.83-5.42-8.35-10.16l9.02-6,4.08,13.44c.74,2.44.97,4.93-1.96,6.33-.39-3.24-.3-6.1-2.49-8.68Z"/>
      <path fill="#100c05" d="M27.33,197.39c-4.51,2.82-11.42.46-14.65-4.31,2.51-1.79,5.61-4.69,8.09-4.86l5.76,2.03c1.51.53,2.47,6.08.8,7.13Z"/>
      <path fill="#eed78c" d="M85.77,131.61c1.65-.8,1.98-2.81,1.84-4.58l6.92,40.19c-1.6.17-2.36.05-2.72-.06l-6.04-35.55Z"/>
      <path fill="#251d0a" d="M127.17,253.8c-.59,1.73-2.8,3.31-.9,5.24-2.83-1.71-5.46-2.48-10.36-2.6.19-4.64,3.4-7.61,5.21-12.47l8.16,5.38c-1.47,1.92-1.69,3.23-2.11,4.46Z"/>
      <path fill="#120e06" d="M75.72,233.23c-2.13-2.46-3.82-7.6-3.57-11.61.4-2.62,8.68-4.28,9.57-1.75,1.65,4.67-2.04,9.36-6,13.36Z"/>
      <path fill="#100c05" d="M106.43,203.58c-.97,2.68-6.13,3.99-8.05,2.87-3.28-4.44-5.55-8.99-7.12-15.7l15.18,12.83Z"/>
      <path fill="#140f06" d="M207.98,211.39c.41,1.2,1.59,3.18.75,4.55s-2.51,2.55-4.56,2.73l-2.88-9.13,14.37-6.08c.13,3.47-1.68,8.84-7.68,7.94Z"/>
      <path fill="#1e1708" d="M149.62,254.57c-1.17,1.53-1.16,3.7-1.59,5.94l-13.03-.15c3.8-6.48,9.68-7.75,17.3-6.78.38,2.08.46,4.49.06,6.71l-1.43.1c-.25-1.04.9-2.44-1.3-5.82Z"/>
      <path fill="#100b05" d="M94.88,74.59l-13.9-8.91c5.99-3.11,12.27-3.29,14.55.46.96,1.59.74,3.01-.65,8.45Z"/>
      <path fill="#140f05" d="M238.95,231.65c.59,6.58-5.33,7.16-13.53,10.06.69-3.7,2.45-7.07,4.3-8.86,2.34-2.27,6.71-2.01,9.23-1.19Z"/>
      <path fill="#1d1708" d="M197.32,241.17l-8.93-2.06c4.64-4.36,8.87-6.75,14.14-8.59-.87,4.62-3.23,6.65-5.21,10.66Z"/>
      <path fill="#191307" d="M174.23,131.34l-1.9-1.19-4.86,13.56c-2.19-1.7-3.66-2.98-5.45-5.88,2.01-1.25,5.05-2.6,5.82-4.67,1.3-3.49,4.58-3.96,6.01-5.69.37,1.3.06,2.76.38,3.87Z"/>
      <path fill="#eed78c" d="M112.74,139.51c-.56,7.97,1.92,16.53-.89,24.03-1.37-1.24-1.89-2.92-1.88-5.13l.1-18.59c.97-.47,2.11-.36,2.67-.31Z"/>
      <path fill="#171206" d="M100.54,193.59c-3.36-1.54-5.54-2.98-8.37-6.21l11.42-3.62c-.57,3.45-1.09,5.44-3.05,9.82Z"/>
      <path fill="#120d06" d="M40.82,196.44c-3.39,1.28-6.23,1.1-9.87.97l-.06-8.29c4.24,1.09,6.9,3.44,9.93,7.32Z"/>
      <path fill="#171207" d="M11.57,171.03c-1.69,1.11-5.75-.23-7.87-2.53l7.04-8.48c1.46,3.26,2.19,7.33.82,11.01Z"/>
      <path fill="#eed78c" d="M51.26,194.64c-1.19-1.12-4.74-1.53-4.74-3.01v-6.54c2.36.5,4.33,1.69,6.25,3.71,1.07,1.12,1.19,3.23.34,4.38-.43.58-.94.94-1.86,1.47Z"/>
      <polygon fill="#140f05" points="168.16 258.69 155.49 260.09 155.81 252.28 168.16 258.69"/>
      <path fill="#34250d" d="M82.11,237.94c-1.72,1.91-5.15,1.25-6.14-.2l6.94-8.17c.25,2.52.51,6.92-.79,8.37Z"/>
      <g>
        <path fill="#010101" d="M159.96,182.25c-.22,6.55.18,12.89,1.22,19.02l.17,13.22.25,16.74c-.54,1.74-2.16,2.21-4.87,1.38l-13.32-2.88c-5.16-1.12-8.98-.53-13.65,2.42-.96-5.14-4.62-8.62-6.42-12.16l-2.19-65.26c6.01,2.74,5.96,7.92,6.77,12.65l5.13,29.96,2.37-.11-6.07-36.74-4.36-8.72c3.05-4.08,1.23-10.11,3.24-14.11,2.91-5.8,6.34-10.54,5.05-17.53,2.87-3.39,6.08-6.21,7.89-10.1.29-10.56-1.83-20.62,1.64-31.76,3.13,7.54,1.39,15.64,2,23.66l1.13,14.94,1.04,40.88,1.28,34.94,1.71,34.82,2.11.36-1.15-29.85-1.3-40.23-.96-38.26-1.15-13.56-1.03-30.56c2.99-2.27,5.39-4.61,9.63-6l2.45,76.83,1.43,36.02Z"/>
        <path fill="#080703" d="M156.72,232.61c.91.2,4.2-.19,4.24-1.6l.39-16.53c1.83,9.01,1.82,19.9-.81,19.18l-3.81-1.05Z"/>
        <path fill="#080703" d="M161.17,201.27c-.59.15-1.44-.36-1.42-1.34l.21-17.67,1.22,19.02Z"/>
        <circle fill="#eed78c" cx="142.34" cy="183.91" r="2.36"/>
        <rect fill="#eed78c" x="139.56" y="213.36" width="2.69" height="6.71"/>
      </g>
    </g>
  </g></symbol>
<symbol id="p09" viewBox="0 0 294.93 194.32" overflow="visible"><path fill="#eed78c" d="M24.19,175.85c.18-3.78,2.07-3.56,3.1-.04-1.25,1.84-1.43,2.34-.75,4.16,2.44,6.55,11.99-.6,15.31,5-6.46.4-12.12,1.55-17.85-.61.8-2.53.87-5.47-.35-6.82-.73-.81-2.3-1.05-3.58-1.64l4.13-.06Z"/>
  <rect fill="#eed78c" x="260.86" y="191.13" width="10.18" height="3.07" transform="translate(-4.34 6.14) rotate(-1.31)"/>
  <rect fill="#eed78c" x="6.16" y="182.59" width="11.41" height="2.68"/>
  <rect fill="#eed78c" x="276.69" y="182.59" width="9.4" height="2.68"/>
  <g>
    <path fill="#eed78c" d="M26.53,179.98c-2.42-1.01-2.55-3.96.75-4.16-.93-2-1.96-2.02-3.1.04.04,1-1.33,1.02-4.13.06-12.35.17-23.67-3.06-18.97-9.78l22.1-31.63,16.19-3.35c-2.01-7.56-.44-13.33,1.67-20.35l11.88-39.57c4.69-8.52,15.5-13.25,22.2-20.44,8.64,4.22,14.39,9.41,20.8,15.31l15.52-53.9L131.05,0l16.93,9.37,8.81,12.51,18.76,19.19,12.16.59,13.45,14.35,2.89,39.39,31.25-11.89,15.5,12.25,11.32,21.99-8.3,29.73c1.72,1.55,4,4.23,6.76,3.7,3.67-.88,11.42-4.16,14.54-.83,3.46,3.71,5.49,4.52,10.53,6.22l8.19,8.74c1.2,1.28,1.28,3.07.84,3.92s-1.67,2.65-3.53,2.71l-16.96.53-.98,5.91c-.8,4.83-32.23,10.43-48.81,7-.21,8.96-16.06,7.92-29.94,5.6-4.12-.69-8.49,1.39-12.8-1.81,4.19-2.24,7.59-.81,11.51-1.07-2.63-12.94,11.05-9.53,10.99-19.26-8.75-1.47-16.32-5.37-24.63-9.13l-19.93,5.5c1.57,3.54,3.14,8.06,6.45,10.1,5.09,3.14,12.92,2.57,18.06,1.31,1.04-2.53.2-3.97-1.07-4.37-4.14,1.53-7.85,1.29-11.23.43,1.6-2.77,3.6-2.24,5.54-.63.82-3.09-1.35-4.1-4.38-4.62,2.62-3.11,4.98-.6,7.68,1.19,2.93,1.94,7.64.15,11.13,1.37,2.69.94,1.97,7.5-1.05,8.52-7.29,2.45-14.94,1.37-22.94.84-2.96,3.09-6.93,5.59-11.38,2.95-21.08,9.31-43.27,6.93-65.32,2.34-9.22-1.92-19.65,2.55-29.39-.52-3.96-1.25-9.31-.64-12.99-.33-5.12.43-5.31-2.01-7.46-5.3-2.63-4.03-11.37-1.46-14.73,1.51Z"/>
    <g>
      <path d="M158.2,104.94c-2.08,2.21-2.52,5.9-1.32,11.09-2.79,1.21-4.3,3.9-4.54,8.09,1.24,11.47,2.26,22.95,3.06,34.44l-2.19-.35c-5.27-5.79-12.14-9.55-19.78-14.44l5.42-33.02c2-12.17,7.66-24.48,8.27-36.78l-10.38-31.88c-2.72-12.44-4.27-23.86-3.81-36.92l10.93,5.53,11.32,14.11c2.73,3.4,6.62,4.93,9.05,9.1-.42,3-2.39,5.57-1.57,9.06,2.63-1.13,2.93-3.58,2.6-6.96,7.52,3.32,11,9.75,9.89,17.89l-5.09,37.14c-2.28,3.86-5.22,8.19-8.64,11.3l3.62-20.35-1.99-.08-4.84,23.07Z"/>
      <path fill="#010101" d="M135.07,115.9c-1.54,1.77-1.59,2.75-.15,2.92l-4.11,22.78c-3.14-.92-7.13-2.52-8.22-4.95l-12.91-50.46-11.26-17.45,16.46-55.54,14.81-8.49c.38,13.8,1.02,26.44,4.52,39.91,2.54,9.75,9.19,19.51,9.58,29.79.44,11.36-5.02,22.59-6.78,34.27-.29,1.91-4.79,4.24-1.95,7.21Z"/>
      <path fill="#020202" d="M89.25,150.72c-2.23,1.37-9.69,1.6-10.58-.93l-7.96-22.77c-3.19-4.33-4.9-6.59-2.71-12.19,1.67-4.27,3.42-5.4,8.11-6.85l11.16-3.45c2.82-.87,5.77-4.5,7.93-5.99-1.55-5.66-2.99-10.93-.49-16.56l10.87,3c-5.06,8.32-11.79,14.4-7.57,22.54-2.26,7.81-1.3,15.3.5,22.99,1.1,4.72-.21,10.13,3.87,14.2-5.4,1.45-8.05,2.9-13.13,6.02Z"/>
      <path fill="#020202" d="M183.58,130.89c-2.77,7.97-1.6,16.3-1.71,25.72-3.72-.47-7.43.53-11.7,2.63-2.54-6.19-.47-12.19.14-18.13l1.54-15c.57-23.6,1.93-46.45,6.64-69.59l11.03,2.84c-3.72,12.55-4.07,25.15-.04,37.48,1.46,4.48-1.53,7.54-1.93,11.02-.92,8.1-1.27,15.27-3.97,23.03Z"/>
      <path fill="#010101" d="M80.33,103.23c-2.69.84-8.39,5.75-11.56,2.45-2.1-2.18-4.67-7.7-5.88-10.91l-8.43-22.32,19.86-16.7c3.84,7.73,4.22,17.61,9.8,24.07,3.91,4.54,8.74,6.69,7.37,14.6-.35,2.01-.03,5.05-2.07,6.49-2.16,1.52-5.08,1.08-9.09,2.33Z"/>
      <path fill="#010101" d="M119.31,172.65c-5.15-1.23-8.7-1.73-13.68.8-3.44-7.77-11.97-9.13-13.88-20.99l26.81-11.28c1.94-.82,4.51,0,5.82,1,1.64,1.24,3.72,13.1,9.86,23.44-.69,5.11-10.06,8.2-14.93,7.04Z"/>
      <path fill="#040303" d="M42.81,155.34c-8.74,3.43-14.54,4.69-18.17-1.52l3.1-7.71c-.02-1.65-2.33-.77-3.26-.25-1.33.75-1.64,2.62-.34,4.63-3.4,1.89-6.46,2.37-10.69,2.27l11.53-15.35c10.9-3.41,20.29-3.92,31.23,1.47,5.15,2.54,7.34,10.49,9.87,15.64-3.01,2.23-6.03,5.44-9.56,5.84-3.29.37-7.35-2.82-10.19-4.4l6.36-12.89c-.1-.02-.86-.72-.93-.82l-8.95,13.09Z"/>
      <path fill="#030202" d="M245.13,134.67c-1.27-.82-5.38-1.17-5.97-2.59-1.06-2.56,1.03-4.98,3.06-8-3.88-.34-5.76,3.85-6.83,7.26l5.51,4.05c1.84,1.35.06,8.07-2.1,8.98l-24.36,10.21,11.34-34.93c5.98-.49,14-2.09,18.81,1.04,2.7,3.28,4.01,8.63,10.65,8.94l-5.35,16.97c-2.37-.35-5.64-1.04-6.79-3.15-.11-1.72,3.47-5.6,2.03-8.78Z"/>
      <path fill="#030302" d="M100.59,125.7c-3.24-5.81-.13-12.51-.35-17.97-.16-4.02-1.92-7.01.88-10.89l6.25-8.64,12.82,48.89-14.62,6.13c.23-6.73-1.74-11.71-4.97-17.51Z"/>
      <path fill="#040303" d="M195.14,162.62c-3.95-.78-6.63-2.47-10.2-4.68l20.09-57.69,8.22,7.57-18.11,54.81Z"/>
      <path fill="#040303" d="M206.02,165.28c-.88,1.87-7.02.4-7.62-1.58l17.15-54.03,7.46,7.61c-4.82,16.16-9.38,31.89-16.99,48.01Z"/>
      <path fill="#080504" d="M232.66,175.21c2.85-2.08,9.06-.27,10.44,1.91,1.19,1.88.27,4.65-.75,6.34-5.63-.55-14.42,1.33-19.42-2.3-5.32-3.85-8.9-8.48-17.04-7.02,2.09-7.33,4.72-11.42,9.03-16.5l5.61,8.25c.93.02,3.52-1.18,4.39-.17l6.03,7.02c-2.41,2.75-5.23,4.08-7.27,7.9,3.85.7,5.62-2.99,8.97-5.43Z"/>
      <path fill="#090704" d="M186.19,145.42c-1.39-7.12-.67-15.22,3.47-19.03l.3-17.17c2.41-5.67,2.78-9.1,1.94-15.72.32-4.17,4.99-9.61,7.44-13.17.49,7.2,3.72,15.07,1.57,21.44l-14.73,43.65Z"/>
      <path fill="#050403" d="M166.5,148.99l-.68,11.11-8.72,2.38-1.83-3.74c-1-6.68-3.31-27.23-2.92-33.21.23-3.58,1.78-11.85,5.31-9.11l4.27,12.54c4.92,6.21,7.65,11.99,4.57,20.02Z"/>
      <path fill="#030202" d="M64.42,122.25l-21.4-4.23c.49-3.5,1.12-8.5,3.85-10.66l12.58-9.99c3.42,3.22,7.77,8.23,7.02,12.66l-2.05,12.22Z"/>
      <path fill="#eed78c" d="M135.07,115.9c.66.69.26,1.85-.15,2.92-5.03,1.65-8.1,6.41-11.97,11.65-1.94-2.54-.33-6,2.88-7.98l-2.1-7.12-5.24-38.91c-2.5-18.57-1.79-36.92-.59-56.1,4.26,18.19,1.55,35.51,2.61,53.58l6.78,45.88c3.08-2.07,4.69-3.73,7.79-3.93Z"/>
      <path fill="#080603" d="M79.74,164.88c-6.2,5.72-15.08,6.91-20.68,2.34l-3.3-.4c-.48-.06-.63-1.71-.29-2.22-.46.69,14.48-9.71,21.09-10.99l9.11.77c.51,5.29-2.52,7.34-5.93,10.49Z"/>
      <path fill="#090704" d="M75.08,149.69c-1.02,1.88-4.24,3.2-6.57,3.4l-7.69-15.18c-1.95-3.84-1.71-8.58-1.37-12.86,2.48-.2,8.03.03,8.87,2.77l6.75,21.87Z"/>
      <path fill="#080603" d="M256.42,115.03l-29.51.56c-2.2.04-4.73-3.55-3.44-4.58,4.49-3.57,6.48-7.43,8.03-13.24l10.9,13.72c1.28-1.39,2.21-2.24,3.04-2.62.51-.23,8.25,2.56,10.98,6.16Z"/>
      <path fill="#050403" d="M167.88,134.43c-2.25.51-4.18-1.19-5.79-5.1l-4.2-12.22c-2.54-.59-1.97-3.54,0-4.81,1.35-2.12,2.6-4.45,4.33-6.55l6.75-8.2.3,16.53c.13,7.38-1.47,13.81-1.41,20.34Z"/>
      <path fill="#0a0704" d="M150.01,170.77c4.38,5.65,17.23,4.8,13.32,9.17-.48.54-1.84,1.28-3.11.74l-23.76-10.11c-2.05-.87,1.55-5.9,4.56-5.49,4.54.62,8.27-.86,12.42-3.07,2.96,3.25,5.34,6.6,6.43,11.66-3.7-1.16-5.66-4.08-9.86-2.89Z"/>
      <path fill="#eed78c" d="M158.2,104.94c-.56,2.68-1.3,4.43-.31,7.36l6.08,17.94c.7,2.05,2.3,3.35,3.9,4.2l.12,12.02c.01,1.45-.43,2.38-1.5,2.54.23-3.76,1.9-9.32-.7-12.64l-5.24-6.67c-1.49-4.54-2.02-8.36-4.55-12.81-1.93,3.25-2.77,6.43-2.46,9.37l3.55,36.24-3.89-4.28c2.24-1.11,1.24-3.71.97-6.14l-3-26.91c-.61-5.49,5.76-11.02,4.13-17.44-.46-1.83-3.71-4.14-1.56-7.17,1.67,1.97,2.78,3.92,4.45,4.41Z"/>
      <path fill="#080603" d="M226.43,99.16c1.21,1.87,0,4.71-1.56,6.75-1.07,1.39-3.97,3.35-6.34,1.95-4.18-2.47-7.4-6.01-11.02-10.17l24.94-10.2c-.35,5.21-4.27,7.61-8.61,9.98l-1.57,1.75c-.52.58-.41,1.31.09,1.33.73.03,1.85-.03,4.07-1.41Z"/>
      <path fill="#080604" d="M91.34,83.2c-2.84-1.74-5.93-4.36-7.02-7.56l-6.6-19.41,12.6,8.11c5.61,3.61,5.39,12.4,1.02,18.85Z"/>
      <path fill="#0a0703" d="M211.96,187.29c-2.71-.56-7.15,4.09-11.78.74-.44-.59,2.83-1.56,3.01-2.56.31-1.7-2.57-2.37-3.53-1.71-.75.51-1.65.74-2.7,3.25-1.14-1-1.26-1.96-.97-3.7.53-3.2,9.93-8.32,16.63-5.31-2.09,1.51-1.92,4.32-1.07,4.34,1.39-1.07,2.21-2.04,3.08-2.38,1.5-.59,2.75.09,4.18,1.42,2.02,1.88,3,4.3.89,6.43-2.11,2.13-4.27.29-7.73-.52Z"/>
      <path fill="#090704" d="M101.33,176.86c4.47.05,7.85,3.25,8.78,8.2-5.7-1.09-11.17-1.22-16.04-3.95-3.76-2.11-4.73-9.36-1.85-12.17,2.14-2.09,5.25-1.31,7.23.64,1.32,1.31,5.29,2.8,1.87,7.27Z"/>
      <path fill="#0b0904" d="M190.1,90.43c-2.67-9.67,1.45-30.29,2.05-30.73,1.05-.78,2.62-1.09,4.99-1.69.38,3.55,2.74,8.87,1.07,12.89l-8.12,19.53Z"/>
      <path fill="#080604" d="M150.9,159.44c-5.01,2.3-8.77,3.06-13.95,3.63-3.15-5.64-7.04-10.15-8.08-17.75l22.03,14.12Z"/>
      <path fill="#0e0b04" d="M292.7,168.1c-7.01,2.34-13.21,1.43-19.89.95-1.34-1.19-3.01-3.53-4.48-5.9,8.32-.85,11.03-5.93,14.37-5.24,1.38.28,1.79,2.41,3.04,3.59l6.96,6.59Z"/>
      <path fill="#0e0a05" d="M90.57,180.41l-13.74,2.03c-.84-3.22,1.27-5.64,1.85-8.33.47-2.15-.83-4.61.24-5.81,1.77-1.98,3.82-3.33,5.8-2.5,8,3.32-.75,8.75,5.84,14.6Z"/>
      <path fill="#0e0a04" d="M56.31,134.55c-3.92-.18-9.47-.67-12.6-3.63-2.29-2.18-2.26-6.96-2.01-9.85,5.52,1.74,10.22,2.57,16.07,2.77l-1.46,10.72Z"/>
      <path fill="#0d0a04" d="M4.43,167.71c2.68-3.65,4.31-9.17,7.86-11.36,5.15-3.17,11.4-1.71,14.27,4.11l-22.14,7.25Z"/>
      <path fill="#0e0b05" d="M137.19,184.63c-2.02-4.4-5.9-7.5-6.43-12.66l21.5,8.69c-5.15,2.7-8.76,2.34-15.07,3.98Z"/>
      <path fill="#090703" d="M63.67,172.88c-5.54,7.99-10.7,9.36-20.11,6.03,4.66-2.45,5.76-6.06,8.87-8.8,2.65-2.34,8.81.87,11.24,2.77Z"/>
      <path fill="#120d06" d="M195.11,55.65c-5.24,1.21-10.33-1.16-16.02-2.53l-.81-7.96c2.44-.89,5.17-.96,8.19-.56l8.64,11.05Z"/>
      <path fill="#0b0904" d="M73.98,182.42l-15.11-1.46c4.4-4.94,9.27-8.87,16.73-9.33.11,3.76-.62,6.19-1.62,10.79Z"/>
      <path fill="#110e06" d="M59.48,94.85c-3.42,1.88-6.1,1.18-9.95-.02.98-5.73,1.39-11.28,4.74-17.32l5.2,17.34Z"/>
      <path fill="#0e0b05" d="M267.58,177.98l-11.93,4.03c-1.75-.94-3.5-4.77-2.98-6.44.58-1.88,3.97-5.53,5.82-4.77l9.09,7.18Z"/>
      <path fill="#0f0c06" d="M248.52,97.28c-4.9,3.3-12.19,3.64-15.87-2.31l3.43-7.05,12.44,9.36Z"/>
      <path fill="#100d05" d="M267.25,160.63c-2.61.71-5.12-4.94-5.5-7.11l9.48-1.44c2.68-.41,5.31,3.42,5.57,5.95l-9.55,2.6Z"/>
      <path fill="#191306" d="M127.62,175.19c1.67,1.05-.83,9.29-2.31,9.99-2.48,1.16-7.74,1.06-8.25-.91.76-5.6,8.05-10.64,10.56-9.07Z"/>
      <path fill="#221b0a" d="M258.04,118.19c-.18,3.5-1.29,6.17-3.13,9.24-3.62-1.75-5.89-4.16-8.05-8.03l11.18-1.21Z"/>
      <path fill="#291f0b" d="M246.1,104.84c-1.46.75-3.51,2.59-4.33,1.84-1.47-1.35-3.25-2.47-2.86-4.32,4.66.67,7.78-.22,10.57-3.05l4.46,9.35c-3.18-.14-4.92-2.3-7.85-3.81Z"/>
      <path fill="#010101" d="M119.07,174.96c-3.11,4.26-4.22,6.01-5.44,9.23l-6.43-9.37c4.37-.55,6.94-.96,11.87.13Z"/>
      <path fill="#1b1609" d="M93.62,164.34c.2,1.66-2.27,2.6-3.05,2.46-1.51-.26-4.17-5.85-4.13-6.35.11-1.4,1.03-3.19,2.98-4.91,1.09,2.49,3.77,5.13,4.21,8.79Z"/>
      <path fill="#241c0a" d="M270.78,176.26c-3.64-1.16-6.38-3.56-8.87-6.61l5.66-2.13c1.95,2.23,3.22,4.75,3.21,8.75Z"/>
      <path fill="#eed78c" d="M252.39,182.35l-6.67,1.65c.33-3.25.35-5.21,1.63-8.36,2.3,1.84,3.51,3.28,5.04,6.71Z"/>
      <path fill="#eed78c" d="M103.52,82.98c-2.4-.58-4.81-1.65-5.73-2.87-1.25-1.66-.82-4.68-.34-6.21,2.6,2.97,4.48,4.5,6.07,9.08Z"/>
      <path fill="#251d0a" d="M53.26,98.53c-.99,2.73-3.49,4.37-5.94,5.26-.4-2.71.85-4.07,1.29-5.12.65-1.54,4.31-1.39,4.65-.14Z"/>
      <circle fill="#eed78c" cx="188.38" cy="174.57" r="2.31"/>
      <g>
        <path fill="#030202" d="M255.37,168.15c-6.76,8.96-17.86,6.06-26.34-1.17l-12.2-10.41,24.96-9.7c4.94,1.97,10.3,3.56,14.28,6.62l8.7,11.36-9.41,3.29Z"/>
        <rect fill="#eed78c" x="248.27" y="157.22" width="2.65" height="9.59" transform="translate(-45.86 197.4) rotate(-39.82)"/>
      </g>
      <g>
        <path fill="#0b0904" d="M27.29,175.82l-3.1.04c1.03-4.42-7.51-1.41-16.64-4.87l18.35-7.17c11.19-4.37,21.34-8.45,27.45,1.06l-10.62,11.14c-3.88-3.62-7.46-2.72-12.69-1.95l9.82-6.82c-6.91-1.14-9.58,4.15-12.57,8.57Z"/>
        <path fill="#eed78c" d="M28.88,165.05c.5,4.63-.85,6.67-3.97,8.69-.37-3.42,1.28-7.75,3.97-8.69Z"/>
      </g>
    </g>
  </g></symbol>
<symbol id="p10" viewBox="0 0 234.87 222.46" overflow="visible"><path fill="#eed78c" d="M182.67,84.43l-4.68,2.29c-4.56-3.89-8.75-8.64-12.59-14.24-3.37-1.31-6.61-.48-9.74,2.49-3.56,2.08-5.72,1.67-6.49-1.23-2.44.73-2.4.18.1-1.65.98-3.04-1.34-4.5-6.95-4.37-4.16-1.56-8.87-1.12-14.13,1.35l-2.76-1.74c-2.47,1.45-3.74,1.36-3.83-.26-1.57-2.46.29-4.78,5.58-6.97l-8.63-14.76-35.01-9.81c-4.52-7.24-9.95-13.06-16.31-17.45C41.37,10.59,28.44,6.84,28.44,6.84c-2.57,5.87-6.81,10.77-12.88,13.11,7.18,2.76,13.6,6.48,19.26,11.17,6.25,2.52,12,6.16,17.22,10.92,9.92-4.28,22.57,10.99,6.18,8.16l9.78,32,13.85-4.5,2.59,1.97c3.36-.92,3.43.27,2.93,3.25,1.07-1.58,3.06-2.36,3.81-.45,2.35-.54,2.83.27.9,1.86-.47,3.6-4.21,4.21-11.22,1.84l-4.3,1.57,18.96,8.27c3.92,4.04,8.63,6.92,14.15,8.64l.53,3.17c1.86,1.87,1.26,2.77-1.19,1.8-2.6,2.98-6.45,2.43-11.54-1.64-6.45-4.56-19.11-12.53-26.69-14.23-.22-.05-1.31,3.32-1.13,3.44,20.59,14.09,38.64,28.58,56.99,45.11,1.51-4.54-.81-8.11-6.97-10.7l-5.93-6.5c-4.14-4.48-5.32-8.53-3.56-12.14-1.6-4.19,3.79-5.1,2.69-.22,3-.2,8.71.29,9.36,3.77-.31,1.47-2.2,2.33-5.65,2.58,3.37,1.19,6.39,3.4,9.04,6.62,4.21,1.78,6.67,4.13,7.39,7.05l2.98,1.39c-.09,4.55-.53,9.01-1.31,13.4-1.69.68-3.33,2.64-4.5,4.09l-2.61,1.35c-20.45-17.08-41.31-33.9-62.59-50.48-9.76-11.94-19.99-22.46-30.85-33.36-2.36-2.37-4.36-5.43-5.79-8.45l-21.3-11.99-.31,28.13-2.69,1.92c-.78-.02-1.38-.92-1.37-2.39l.04-29.74c0-2.58,1.05-4.29,2.99-4.88l2.36-1.75,19.78,11.28c-5.14-7.85-12.48-10.49-21.04-13.29-.77-.38-.42-2.34-.1-3.58,1.24.16,2.48-.02,3.62-.8,3.36-2.63,7.76-1.72,13.2,2.73l7.24,6.21c1.17,3.14,20.89,23.6,22.22,18.83,1.94-6.93-9.21-15.17-13.88-18.42-10.1-7.04-21.76-12.83-33.43-16.92l-1.49-3.47-2.76-2.59c.02-.94,1.22-2.68,2.37-2.91,5.35-1.08,7.39-4.82,11-7.92,3.61-3.1,8.36-4.73,11.54-9.15l26.87,8.55c6.34,2.02,13.95,2.05,19.5,5.89,6.09,4.2,9.58,10.93,14.17,16.66l35.68,9.6c3.98,7.11,6.87,14.62,12.63,19.93,2.74,2.52,22.02.69,34.05,7.31l13.42,16.49Z"/>
  <path fill="#040303" d="M10.34,33.62c-1.45-.25-4.53-1.01-5.13-2.36-1.29-2.92-.72-6.1-1.01-8.68l20,7.88c4.6,4.13,8.36,5.41,13.69,8.51,4.17,2.42,9.64,7.24,13.34,9.98,3.78,4.97,3.99,12.75,6.19,17.99-6.92-3.32-13.81-4.99-18.01-10l-9.1-10.86c-5.3-6.32-12.59-11.16-19.97-12.46Z"/>
  <path fill="#eed78c" d="M125.43,67.34c1.26,2.44-.28,4.81-4.62,7.13,6.31-.37,12.62-.15,18.93.68-14.78-11.78,1.8-10.99,9.54-3.05l-.1,1.65c4.32,8.4,10.29,11.59,18.93,14.25-.95,5.51-.54,6.87,1.24,4.08l2.86-.69c-.53,2.42.7,5.18,2.74,8.11-3.19,3.6-7.89,2.84-12.51,3.45-4.21.55-4.7,6.27-2.72,9.12-4.97.9-8.98,4.17-14.15,2.12,2.86-2.88,7.82-.94,9.63-3.51,1.76-2.49,1.99-5.94,2.31-8.71-6.03-2.95-11.56-.9-16.48,2.78-5.35-2.38-10.31-.9-13.83,3.5l-10.95.88c-2.31.19-3.66,1.58-3.36,3.62-.15-.48-1.64-1.27-2.1-1.44-.31-.12-.99.88-.59,1.66-4.14,1.19-5.09-1.69-1.18-3.34l1.19-1.8c2.17-2.34,5.56-3.61,10.18-3.8,10.96-3.56,22.03-6.9,33.2-10.03,4.5-.52,3.63-2.24-2.6-5.16l-5.82-6.7c-12.49.71-25.04.43-37.66-.84l-2.6.68c-1.89,7.06-8.43,6.73-12.81,2.36l-.9-1.86c.15-1.69-1.12-1.54-3.81.45-1.32-.16-2.4-1.43-2.93-3.25-.25-2.61,1.57-4.23,5.46-4.84,6.04-.73,11.48-2.46,16.33-5.2,4.55-1.32,11.32-2.66,15.37-2.58l3.83.26Z"/>
  <path fill="#060403" d="M6.71,34.42c2.04,2.53,6.27,2.91,9.57,4.09,10.14,3.63,14.47,13.38,21.27,20.34,5.71,5.84,14.75,7.66,21.25,12.2,2.71,8.16,6.51,15.4,5.73,24.26l-11.77-15.36-18.26-19.12c-2.86-2.99-3.19-4.47-7.22-6.76l-21.56-12.29c-.74-.27-2.73,0-2.54-1.31l.42-2.97c.23-1.6.13-2.7,1-2.91.77-.18,1.6-.22,2.11-.16Z"/>
  <path fill="#050402" d="M159.7,124.45c-9.43.58-18.31,3.67-26.68,8.33-6.7-2.48-12.98-6.95-16.43-13.67l6.78-1.27c6.59-.05,29.81,1.68,35.83,3.23,3.66.94,4.31,1.63.49,3.38Z"/>
  <path fill="#010101" d="M110.2,107.84l-10.87-4.83c-1.78-.79-3.66-4.07-5.55-4.88l-24.42-10.56c4.44-1.57,8.62-4.29,12.51-4.07,3.46.19,6.14,2.64,10.21.84,2.53-1.12,5.91-.03,8.49,1.01.71-1.92,1.49-5.07,3.3-5.86,5.44-2.38,11.62.56,16.68.19,4.36-.31,7.03-1.44,11.54.21s10.09-.33,14.76-.62c3.67,6.72,8.17,10.78,16.31,11.65-5.49,5.62-11.44,6.52-18.14,8.37-2.88.79-5.56,3.52-9.35,2.44s-12.52,7.09-25.47,6.11Z"/>
  <path fill="#070503" d="M149.27,72.1c-.48.38-1.75,1.61-2.62,1.07l-9.97-6.22c-.5.21-1.36.81-1.44,1.02l10.14,7.6c-5.04,4.47-11.97,1.01-17.8,1.26-7.6.32-14.48,1.14-21.69-1.32l13.66-3.42,5.88-4.75c8.27-4.02,20.76-2.51,31.17.7-2.19,2.85-5.57,2.68-7.33,4.06Z"/>
  <path fill="#2e2309" d="M91.18,82.49c-1.04.47-2.68.59-3.81.45-.24-4.07,9.97-5.76,12.01-4.68.65.35,1.31,1.61.91,3.53-3.16-.39-6.33-.55-9.11.7Z"/>
  <g>
    <path fill="#030202" d="M130.2,151.66l.05,1.13c.74.13,1.32.27,1.33.44.16,2.98.14,20.78-.44,21.75s-1.3,1.65-1.53,1.49c-10.31-9.44-21.07-18.25-32.27-26.45-3.27-1.64-3.79-4.13-5.83-6.87-5.48-7.38-14.56-10.56-22.02-15.48l-25.94-17.09c-6.17-4.07-16.43-19.93-19.35-30.13-1.85-6.45-3.44-15.78-12.25-16.44,2.9,3.66,8.91,7.65,7.96,11.83-1.04,4.58.9,4.65,2.21,7.7,5.43,12.67,13.76,26.14,24.86,33.22l22.09,14.08c11.79,7.52,19.07,6.41,27.9,31.7l-29.08-22.52c-3.49-2.7-5.38-6.99-9.72-9.14-5.02-2.49-7.72-7.29-11.34-11.37-.8-.9-2.94,1.81-1.73,2.42.59.3,2.33,1.25,1.26,3.1l-21.54-17.12-20.67-15.43c-.22-3.73-.78-6,.29-10.2l14.96,11.33c2.24,1.7.19,8.2,5.61,8.7-.36-5.02-3.15-11.21-7.28-14.07l-13.69-9.48.13-34.79,26.13,15c4.03,7.9,10.45,13.17,16.87,18.52,9.01,9.24,13.27,19.66,25.91,27.83,13.88,8.98,24.8,20.43,37.6,30.7l19.49,15.62Z"/>
    <path fill="#eed78c" d="M47.34,104.06c-.15-2.71-3.05-5.53-4.73-7.28.99-4.28-.12-6.11-3.04-8.99l-13.14-12.95c9.17,1.94,13.79,11.13,18.89,17-3.37,6.5,8.07,9.2,2.04,12.22Z"/>
    <path fill="#eed78c" d="M88.19,131.39c-3.64-1.4-6.37-5.78-5.1-10.55,3.28,3.02,3.68,6.62,5.1,10.55Z"/>
    <path fill="#eed78c" d="M120.53,156.5c3.12,2.65-2.62,6.5-6.16-5.22l6.16,5.22Z"/>
    <path fill="#eed78c" d="M66.09,120.88c-1.99-2.25-2.73-4.39-2.82-7.37,3.74.12,4.8,4.55,2.82,7.37Z"/>
  </g>
  <g>
    <path fill="#eed78c" d="M4.2,22.57c2.23,1.47,3.36,3.95,3.42,7.44,1.96.44,2.55,1.39,2.72,3.61,1.25,2.84-1.38,1.93-3.62.8-.84,3.3-1.17,5.75-.99,7.35.71,1.97-.08,3.01-1.97,2.29-.69,11.65-.58,23.22.32,34.72l2.46-1.56,14.36,10.09c-2.87-4.24-4.1-8.64-3.69-13.19-13.39-12.55-1.75-18.3,6.5-4.08,4.12,14.12,10,28.69,21.45,38.38l43.6,28.01c3.84,3.33,8.73,8.52,8.61,13.61.97.51.91.97-.13,1.41,2.73,4.98,5.63,10,8.71,15.07l20.42,15.02c2.72.76,4.12,2.22,4.18,4.38.75-.49,1.67-.42,2.74.21l.52-2.83c31.85-13.16,63.6-26.64,95.24-40.46l-.57-2.23-17.52,6.35c-14.6-3.47,13.69-14.04,18.16-15.54.03-3.67,1.09-6.63,2.23-9.32-2.3-.84-3.03-2.7-2.19-5.58-31.38,11.83-62.62,24.16-93.72,37l-2.51-1.88c-.56,2.55-.98,3.4-2.67,1.17-1.19-.18-1.18-.57-.05-1.13-2.5-.77.98-5.16,1.33-5.26,1.07-.32,2.23.47,3.17,1.17l-.57-1.7c21.06-9.65,42.7-18.65,64.93-27.01-20.33,5.27-40.48,11.01-60.44,17.21l-2.61-1.89c-2.92,2.24-3.92,1.78-2.98-1.39,3.55-8.31,18.62-11.11,26.68-8.33,1.72-2.19,5.09-2.95,10.1-2.28l1.96-3.64c16.29-5.28,24.44-7.92,24.44-7.92-5.04-2.48-13.31-11.69-6.88-16.12,1.32-.91,2.68-.73,3.88.27.31,3.52,11.6,14.25,12.81,14.1s20.18-10.66,20.48-11.8c.07-.26-2.77-4.05-3.08-4.31-14.45-.38-29.04-.73-43.79-1.05-3.19,1.47-5.67,1.37-7.42-.32-.49,3.62-.83,3.87-2.86.69-5.4-3.79,6.05-9.74,8.64-5.35.08-3.99,1.7-5.22,4.68-2.29,4.85,1.9,10.46.66,15.96,1.31,4.23.5,7.78,2.19,12.29,1.25,5.56-1.15,11.1-.58,16.5.88l7.45,11.38-.33,76.73-103.62,46.48-95.48-71.3L.54,125.84c-.49-1.45.29-15.96,3.1-11.76-1.22,6.87-.05,11.23,3.52,13.08.76-.65.12-2.36-1.9-5.14-2.54-.61-2.47-4.33.35-3.12l.96-.73,17.62,11.41c.7-.41,1.32-.69,1.62-.49,12.03,7.84,24.43,17.58,35.36,26.55,17.04,10.49,34.06,22.08,48.62,36.15.51-1,1.97-1.52,4.38-1.56-35.76-27.19-71.58-54.18-107.47-80.97l.03-3.31c-2.04-2.97-1.08-3.56,1.95-1.72,2.31-.39,1.24-2.06-3.21-5.01l-.22-2.27c-2.55-.24-2.52,2.3.12,7.63l-1.96,1.02c.41,9-.42,11.13-2.51,6.4-.42-25.86-.35-51.7.22-77.5l.32-14.52c2.44-2.98,4.59-.71,2.76,2.59Z"/>
    <g>
      <path fill="#eed78c" d="M5.26,96.95l.72,2.67c2.23,1.41,3.13,2.94,2.72,4.61l-1.95,1.72c-2.21,1.7-2.36,1.94-.45.71.79,2.49.97,4.87.54,7.14-.13,1.07-1.01,1.57-2.66,1.51,1.3,1.21,1.78,2.41,1.44,3.59-.64.07-1.03.53-1,.94.05.8.41,1.58.65,2.18,1.45,1.91,2.08,3.62,1.9,5.14-1.75.46-4.19-.24-4.31-2.59l-.49-9.76-1.24,1.06-.58,9.97L0,37.39c0-1.41.65-2.39,1.13-2.89l.24,77.4c0,.56.54,1.25.91,1.4l.77-16.02c-1.53-2.61,3.02-3.42,2.22-.32Z"/>
      <path fill="#030202" d="M231.34,122.09c-.02,2.91,1.94,8.95-.59,11.35l-21.17,9.28c-.22.46-.24,1.51,0,1.96l21.43-7.88c.86,1.93,1.06,6-.19,7.85l-38.03,16.73-28.32,12.28-31.2,12.44c-2.35-.19-2.29-9.69-.75-10.07,13.06-3.14,26.21-8.46,36.84-17.23,8.69-3.92,17.75-6.81,27.19-8.66,4.66-3.45,7.78-8.39,9.35-14.81,5.5-4.88,12.4-8.33,20.69-10.34l.05-1.74c1.53-.63,2.62-1.83,4.7-1.18Z"/>
      <path fill="#040302" d="M134.71,147.57c-3.03-2.98-3.31-11.68,1.31-13.4l13.57-5.04c13.77-2.06,25.98-5.94,39.02-10.71,7.81-2.86,17.14-1.84,24.41-6.53,5.96-3.85,11.32-8.54,18.44-9.58.71,1.57.91,6.55-.67,7.16l-42.6,16.57-53.47,21.53Z"/>
      <path fill="#0c0a04" d="M137.27,209.95l17.73-8.29c5.76-2.69,11.8-5.13,18.3-3.72l7.25-8.15c3.76-1.38,8.17-.68,11.49-3.79,1.83,1.29,2.45,1.97,3.95,3.82l-61.79,27.62c-1.06.47-1.74-3.64-1.15-4.71.72-1.3,1.7-1.61,4.21-2.78Z"/>
      <path fill="#060403" d="M130.53,185.9c-1.47-.35-3.91-.85-5.65-2.14l-20.95-15.52-8.82-15.27c.2-1.01,1.76-1.69,2.1-1.54l17.91,13.9,14.44,12.52c1.42,1.93.94,6.12.96,8.04Z"/>
      <path fill="#150f06" d="M8.7,104.23c-3.31-2.44-5.53-3.86-4.56-6.94.14-.45.51-.77,1.13-.34l38.12,29.89c2.79,2.19,4.1,2.89,7.75,2.62,6.94,5.06,15.68,10.8,13.14,15.56l-16.39-11.9-39.18-28.9Z"/>
      <rect fill="#271b0a" x="96.59" y="129.57" width="3.57" height="79.07" transform="translate(-96.04 147.34) rotate(-53.42)"/>
      <path fill="#120e05" d="M229.11,153.09l-57.74,24.24-1.5-2.2,59.68-25.95c1.59-.69,2.51.61,2.11,1.62s-.59,1.47-2.55,2.29Z"/>
      <path fill="#130f06" d="M7.16,127.16c-1.87-1.37-3.44-3.46-1.9-5.14l27.98,19.15c4.7,3.25,7.64,9.08,13.91,10.17,2.21.38,3.79,1.64,4.69,2.8,1.04,1.35,1.18,3.72-1,4.88L7.16,127.16Z"/>
      <path fill="#0a0804" d="M196.4,189.28c1.56-6.94,6.68-8.69,12.17-10.83,6.39-2.49,11.76-6.37,19.02-7.62l2.9-1.45c.58-.29,1.68,2.82,1.07,4.12l-35.16,15.78Z"/>
      <path fill="#100c04" d="M134.07,194.14c-1.2.65-2.1-3.61-.14-4.3l35.09-12.44c-10.61,9.08-22.98,10.27-34.95,16.74Z"/>
      <path fill="#120e06" d="M88.4,181.6c3.4,1.43,6.01,5.51,4.68,9.29l-24.25-18.26c-1.15-.87-2.42-2.13-2.49-3.03s1.08-3.65,2.02-3.38l14.65,11.24,1.81,3.93c.52,1.13,2.71,0,3.58.22Z"/>
      <path fill="#151007" d="M127.24,216.27l-17.3-12.74c.88-1.4,1.73-2.34,3.36-3.6l16.53,13.58c.34.28.33,2.52.22,2.95-.18.64-1.72.61-2.8-.19Z"/>
      <path fill="#120e05" d="M109.34,202.77l-11.97-9.22c-1.59-1.22-1.88-4.96-1.57-7.37,4.9,4.82,9.44,9.46,15.74,11.43-1.75,1.52-2.03,2.32-2.2,5.17Z"/>
      <path fill="#27200b" d="M53.21,157.91c5.55,1.98,12.09,7.09,10.52,9.99-3.79-2.18-9.42-4.26-10.52-9.99Z"/>
      <g>
        <path fill="#030302" d="M6.75,105.95l30.83,22.81,46.43,35.45,46.06,34.6,46.46-19.81,54.17-22.93c1.3,3.11,1.81,8.7-.13,9.5l-16.41,6.78c-2.68,1.11-4.59,3.8-7.8,4.21-5.25.68-8.34,4.18-10.84,8.46l-3.61-4.21c-.78,1.8-3.75,5.59-5.52,5.01-6.75-2.23-9.46,5.24-12.85,6.86-7.72,3.67-16.15,2.97-23.34,8.18l-16.29,7.92-1.72-7.28c-3.13,1.67-2.37,3.92-2.55,6.23-1.17,1.1-4.45-.87-5.39-2.46-.74-1.25.6-3.63.57-4.88-1.19-1.13-3.29.54-3.48,2.01l-9.02-6.14c4.23-1.85,6.42.59,9.8,2.61-.27-5.93-5.72-7.15-13.08-4.74-13.59-11.57-27.48-23-42.91-32.16-3.92-2.33-8.8-5.18-11.28-8.62-2.64-3.66-5.33-3.5-8.41-5.54-6.63-4.4-12.19-9.88-19.04-14.42l-21.79-14.47c-1.09-.73-1.49-2.43-1.44-3.59.42-1.23,22.01,11.07,21.01,11.8-1.21.88-2.58-1.27-.47-.29l-17.88-11.42v-1.6c-2.5-1.61-3.55-4.23-2.59-8.45.19-.85,2.02-.42,2.5.59Z"/>
        <path fill="#eed78c" d="M6.83,113.81l19.19,12.39-.77,2.43-21.08-13.31c.02-.55.23-1.41.65-1.5.6-.14,1.58.02,2.01,0Z"/>
        <path fill="#eed78c" d="M51.37,142.87c-2.09,3.31-7,.59-9.98-1.73l-5.91-4.61c-.07-2.36,2.49-3.31,4.01-2.65,2.35,1.02,3.07,2.52,3.89,5.36.66,2.28,3.71,2.23,7.99,3.62Z"/>
        <path fill="#eed78c" d="M66.31,158.08c-5.31-1.42-8.98-5.43-12.86-9.75,5.52.09,10.61,3.84,12.86,9.75Z"/>
      </g>
    </g>
  </g>
  <g>
    <path fill="#030202" d="M169.8,122.17c-4.2.89-7.84.51-10.93-1.13l-35.86-3.22-.77-1.29c-3.53-.34-8.22-.04-9.36-3.77-1.98-1.6-2.37-2.76-1.17-3.48,8.18-1.18,14.95-2.35,22.15-6.47,5.36.28,10.51-.83,15.47-3.34,3.65-1.18,7.14-.38,10.48,2.4,3.59.78,14.41-.64,12.43-4.77-1.89-2.91-1.91-4.81-.04-5.72,7.47-4.27,21.64-3.27,32.32-1.15,6.43,1.28,14.19-2.75,20.53.46l6.1,8.07c-11.5,3.21-17.86,11.41-26.74,13.35-4.16-6.64-11.46-7.7-13.43-16.83-4.86,10.28,8.09,10.14,9.51,17.45-11.49,1.6-20.89,5.67-30.69,9.43Z"/>
    <path fill="#eed78c" d="M169.8,122.17c-3.12,1.2-6.79,2.08-10.1,2.28.61-.41.3-2.36-1.15-2.47l-18.85-1.34c-8.06-.57-15.42-2.19-23.11-1.54l5.65-2.58,37.91,3.64,9.64,2Z"/>
    <path fill="#eed78c" d="M194.41,110.37c-3.65,4.78-7.95,1.1-11.56.54-4.58-.71-9.04-.37-11.01-5.76,7.66,2.95,13.5,4.57,22.57,5.22Z"/>
    <path fill="#eed78c" d="M119.5,113.93c-.96.32-2.25-.1-2.53-.62-.22-.41,1.1-1.86,1.62-1.88l17.53-.76c1.04-1.67,1.72-3.08,4.41-3.89.51,9.33-10.09,3.5-21.04,7.16Z"/>
    <path fill="#eed78c" d="M189.89,101.38c-4.81,1.51-8.74,1.63-14.02.33,3.87-2.27,9.27-3.7,14.02-.33Z"/>
  </g>
  <g>
    <path fill="#020102" d="M231.34,122.09c.49,1.97-.23,2.12-2.15.48l-2.55.71.24,1.63-19.08,7.83c-2.73,6.85-6.37,12.6-10.91,17.24-10.42,1.96-20.33,5.37-29.73,10.22-2.54,4.5-32.67,17.26-34.96,16.36-.58-.23-.99-.77-1.22-1.45-.77-2.31.72-20.55,1.94-23.47l86.34-34.68c4.07-1.63,8.11-1.68,11.72-4.84,1.67,4.11.39,6.85.37,9.98Z"/>
    <path fill="#eed78c" d="M133.28,186.11c-.33.51-1.28,1.76-1.9,1.39s-.72-1.4-.84-1.6c-2.16-.88-3.18-3.02-3.07-6.45l-27.19-22.36c-2.26-1.83-3.27-3.72-3.05-5.66l.13-1.41c12.25,6.16,21.85,15.43,32.23,24.92l.67-22.16c.97-.12,1.81-.82,2.67-1.17l.18,23.24,25.48-9.81,9.82-7.36c3.26-2.45,6.85-2.4,10.42-4.67,3.14-2,8.14-2.34,11.85-2.69,13.42-1.26,11.72-17.08,17.1-19.3l18.87-7.77,2.4-.31c1-.22,1.85,2.21.37,2.75-6.91,2.54-14.02,3.95-20.34,7.91-5.16,3.24-2.67,17.32-16.98,19.43-4.42.65-9.41,2.14-13.52,3.75l-8.63,3.39c-5.34,2.1-8.87,7.51-14.53,9.71l-22.1,8.58c-.72,2.96-.53,5.28-.03,7.63Z"/>
    <path fill="#eed78c" d="M173.86,149.48l-3.8-.33c-.46-.04-.76,2.33-.83,3.61-.08,1.5-1.42,1.33-1.97,1.15-5.2-1.69,6.77-14.25,19.61-16.04-3.68,5.34-10.94,4.15-13.01,11.59Z"/>
    <path fill="#eed78c" d="M145.1,161.01c-1.65,2.77-4.55,4.14-8.16,3.71,1.56-2.42,3.43-4.64,8.16-3.71Z"/>
    <path fill="#eed78c" d="M153.01,156.83c-2.1,2.07-3.76,3.64-6.07,1.51l4.87-3.57c2.07-2.34,4.46,1.52,1.2,2.07Z"/>
  </g>
  <g>
    <path fill="#060403" d="M177.99,86.72c-2.72,1.33-8.53,1.75-8.64,5.35-.07,2.22,1.57,4.48,2.43,6.61-5.59,1.76-10.9,3.73-16.46-.22,4.81-2.2,10.25-3.44,11.07-9.35-7.76-.47-12.58-3.86-16.56-9.6l-1.94-2.8c-.55-.79.26-2.33,1.29-2.98,4.03.13,7.49-2,10.42-5.08,2.66.87,6.64.36,8.27,2.43l8.83,11.19c1.24,1.57,1.78,2.99,1.29,4.43Z"/>
    <rect fill="#eed78c" x="158.5" y="77.64" width="9.4" height="2.68"/>
  </g>
  <g>
    <path fill="#000001" d="M121.6,67.08c-6.02,6.96-13.48,1.21-20.07,9.03-6.01-1.26-12.02,1.91-17.08,3.59l-18.18,6-11.43-37.39c3.27-2.57,6.09.15,9.58.74-1.14-3.6-6.48-4.34-9.25-5.72-7.18,5.61-9.15-6.88-19.6-9.09-3.76-.8-5.06-4.09-7.97-5.49L7.44,19.04c10.14-.75,16.54-6.61,19.22-15.59l25.86,8.34c6.04,1.95,13.53,1.88,18.81,5.42,5.79,3.88,9.03,10.64,13.66,16.16l35.31,9.69,11.05,18.84c-3.96,1.6-7.31,2.35-9.75,5.17Z"/>
    <rect fill="#eed78c" x="83.49" y="46.68" width="2.9" height="11.53" transform="translate(-12.28 75.1) rotate(-44.81)"/>
    <path fill="#eed78c" d="M95.16,66.8c-3.52.61-7.16-2.65-6.32-6.73,2.39,1.84,4.43,3.35,6.32,6.73Z"/>
  </g>
  <g>
    <path fill="#040303" d="M109.02,109.63c-.35,1.97.85,2.55,1.18,3.34,3.92,9.57,9.71,17.49,19.44,21.79l-.17,13.28-14.06-11.38c-15-13.94-29.98-27.29-47.73-38.03l-.2-9.33,24.22,11.04c5.47,3.94,9.95,8.61,17.32,9.29Z"/>
    <path fill="#eed78c" d="M96.01,113.08c-4.15.99-8.14-1.67-8.95-6.11,3.69,1.21,6.2,3.07,8.95,6.11Z"/>
  </g></symbol>
<symbol id="p13" viewBox="0 0 155.84 116.44" overflow="visible"><path fill="#eed78c" d="M99.55,92.34l-21.65,24.1L20.85,54.15,0,31.48,30.17.21c18.37.44,35.84.44,53.98-.11,14.15.79,27.56.48,42.01-.1l29.68,31.23-56.29,61.11Z"/>
  <g>
    <path fill="#010101" d="M57.39,70.75l15.68,36.77L3.99,32.97c11.93-.88,23.49-.75,36.32-.27l17.08,38.05Z"/>
    <path fill="#020101" d="M151.25,33.09l-67.23,72.38,19.85-46.11,11.61-26.37c11.53-.84,21.53-1.01,35.77.1Z"/>
    <path fill="#030201" d="M123.8,2.06l-9.13,27.36L80.75,2.54c14.51-1.57,28.01-.73,43.04-.48Z"/>
    <path fill="#040301" d="M75.62,2.18l-34.39,27.33L31.95,2.19c14.37-.61,27.79-.87,43.67-.02Z"/>
    <path fill="#040402" d="M26.75,30.62l-21.81-.08C13.24,20.13,21.41,12.4,30.15,3.56l8.92,26.58-12.32.48Z"/>
    <path fill="#020201" d="M150.79,30.38c-11.19.53-21.89-1.31-33.79-.1l9.12-27.64,24.67,27.74Z"/>
    <g>
      <path fill="#010101" d="M78.09,110.96c-5.64-8.92-8.51-18.53-12.77-27.96l-22.65-50.32c23.59-.31,46.6-.91,70.7.4l-35.28,77.88Z"/>
      <path fill="#eed78c" d="M79.01,95.38c-.05,4.22-.81,8.06-1.86,11.81l-.11-55.17-7.99-2.23c2.83-.89,7.46-.17,7.61-2.74l.57-9.77,1.83.03.19,9.78c.05,2.37,4,2.1,6.27,2.94-.74.51-5.68.43-6.04,2.31l-.48,43.04Z"/>
    </g>
    <g>
      <path fill="#020101" d="M87.9,30.12c-8.47.16-16.15,1.38-24.62,0-5.97-.98-12.17,1.44-18.71-.36L78.03,2.48l33.12,27.21-23.25.44Z"/>
      <path fill="#eed78c" d="M78.73,26.23l-4.03-5.28c1.99-1.64,1.93-3.41,3.26-6.42,1.17,2.93,1.17,4.52,3.43,6.24-1.49,1.43-2.34,2.72-2.67,5.46Z"/>
    </g>
  </g></symbol>
<symbol id="p16" viewBox="0 0 32.39 32.38" overflow="visible"><circle fill="#eed78c" cx="16.19" cy="16.19" r="16.19"/></symbol>
<symbol id="p18" viewBox="0 0 107.33 80.56" overflow="visible"><path fill="#eed78c" d="M101.57,76.07c7.54-31.61-3.47-61.44-34.28-70.66C48.24-.3,28.64,6.95,16.04,21.29,2.48,36.7,1.5,55.4,6.55,76.37-5.64,57.99.65,34.46,13.42,19.23,26.43,3.72,46.56-3.39,67.39,1.56c30.72,8.7,50.26,45.02,34.19,74.51Z"/>
  <circle fill="#eed78c" cx="54.52" cy="53.46" r="5"/>
  <rect fill="#eed78c" x="23.23" y="52.23" width="22.82" height="2.68"/>
  <path fill="#eed78c" d="M83.18,53.85c-7.35,2.29-13.63.61-21.01,1.03.35-1.47,1.29-2.3,2.61-2.69,6.09.71,11.77-1.78,18.4,1.66Z"/>
  <path fill="#eed78c" d="M55.43,45.34c-1.9-.19-2.8-1.68-2.72-3.77l.5-14.85,1.88-.03.34,18.65Z"/>
  <path fill="#eed78c" d="M53.15,80.42l-.35-16.23c-.02-1.09,1.36-2.4,2.58-2.53l.08,18.13c-.64.93-1.78.83-2.31.63Z"/>
  <path fill="#eed78c" d="M61.64,60.36c6.48,3.97,13.9,11.15,9.58,12.42l-10.36-11.52c.32-.3.92-1.07.78-.9Z"/>
  <rect fill="#eed78c" x="33.18" y="64.18" width="15.19" height="2.7" transform="translate(-34.53 48.62) rotate(-45.46)"/>
  <path fill="#eed78c" d="M43.8,48.33c-3.91-2.6-7.07-6.49-10.05-10.05.05-.63.39-1.47.7-1.79l9.96,9.78c.91.89-.05,1.95-.62,2.07Z"/>
  <rect fill="#eed78c" x="62.1" y="40.88" width="14.24" height="1.9" transform="translate(-9.3 61.2) rotate(-45.01)"/>
  <path fill="#eed78c" d="M48.56,66.49c-1.47,4.1-3.67,4.97-6.17,6.94-.04-2.89,2.64-7.9,6.17-6.94Z"/>
  <rect fill="#eed78c" x="44.6" y="37" width="2.83" height="7.36" transform="translate(-14.04 27.81) rotate(-29.38)"/>
  <path fill="#eed78c" d="M60.23,43.48c-.45-2.36,1.67-5.88,3.39-5.81,2.11,2.13-1.14,5.88-3.39,5.81Z"/></symbol>
<symbol id="p19" viewBox="0 0 12.89 14.08" overflow="visible"><path fill="#eed78c" d="M9.56,7.83l-2.65,6.25c-1.34-4.5-2.18-5.61-6.91-7.43,4.35-1.3,5.87-2.47,6.7-6.65,2.27,1.82,1.51,3.42,2.05,4.24.81,1.24,3.3,1.19,3.93,1.41.74,1.85-.5,3.73-3.12,2.18Z"/></symbol>
<symbol id="p21" viewBox="0 0 27 28.07" overflow="visible"><path fill="#eed78c" d="M12.67,28.07c-1.03-3.2.05-8-2.4-11.4-2.04-2.83-6.86-1.78-10.27-2.19,2.96-1.89,6.82-1.61,10.43-2.7L13.09,0c.83,3.85-.57,8.77,2.74,11.5l11.18,2.92c-3.86.69-8.8-.9-11.87,2.13-2.29,2.25-.59,7.13-2.45,11.52Z"/></symbol>
<symbol id="p24" viewBox="0 0 180.7 99.82" overflow="visible"><path fill="#eed78c" d="M77.17,88.22l-77.17.3.03-2.38,56.71-.76-1.06-5.71c-.25-1.34,1.07-3.29,3.39-2.5l.18,8.31c5.87,1.08,12.19-1.99,17.93,2.73Z"/>
  <path fill="#eed78c" d="M180.7,87.87l-47.78.63.02-2.26,18.85-.81c.5-1.86.11-3.87-.41-6.32-.29-1.34,1.59-1.85,2.35-1.67.61.14,2.1.08,1.89,1.88s-1.26,3.97-.32,5.88c8.15,1.96,16.6-1.73,25.4,2.67Z"/>
  <rect fill="#eed78c" x="104.77" width="2.69" height="25.5"/>
  <path fill="#eed78c" d="M105.14,46.73l-.95-16.64c.83-.3,1.68-.47,2.12-.49,1.38,5.22.33,10.74.51,16.07-.48.7-1.35,1.04-1.68,1.06Z"/>
  <rect fill="#eed78c" x="147.32" y="38.86" width="16.87" height="3.21" transform="translate(6.44 100.48) rotate(-36.46)"/>
  <rect fill="#eed78c" x="118.38" y="20.99" width="11.75" height="2.79" transform="translate(61.05 131.67) rotate(-70.17)"/>
  <path fill="#eed78c" d="M62.62,45.82l-9.77-7c-.1-1.42.12-2.19.57-2.32,1.2-.34,9.81,6.24,9.2,9.31Z"/>
  <rect fill="#eed78c" x="42.21" y="77.15" width="8.37" height="3.29" transform="translate(-1.34 .8) rotate(-.98)"/>
  <rect fill="#eed78c" x="109.31" y="19.31" width="11.15" height="2.84" transform="translate(75.9 130.76) rotate(-80.72)"/>
  <rect fill="#eed78c" x="95.62" y="14.51" width="2.72" height="11.92" transform="translate(-2.02 15.67) rotate(-9.14)"/>
  <path fill="#eed78c" d="M90.55,28.37c-3.78-2.38-5.26-7.11-4.27-11.69,3.44,3.04,4.17,6.93,4.27,11.69Z"/>
  <rect fill="#eed78c" x="78.53" y="20.2" width="2.7" height="10.91" transform="translate(-3.48 35.17) rotate(-24.31)"/>
  <path fill="#eed78c" d="M57.85,52.88c-3.84.46-8.38-1.76-9.45-5.46,3.68.59,6.52,1.51,9.45,5.46Z"/>
  <rect fill="#eed78c" x="127.01" y="24.93" width="10.71" height="2.83" transform="translate(40.52 125.23) rotate(-58.37)"/>
  <path fill="#eed78c" d="M75.35,34.88c-3.7-2.38-6.35-5.97-6.23-10.12,3.6,2.64,5.8,5.13,6.23,10.12Z"/>
  <path fill="#eed78c" d="M135.89,49.5c1.9-.56-1.83,6.34-6.8,6.27.66-2.96,3.12-5.19,6.8-6.27Z"/>
  <path fill="#eed78c" d="M114.28,37.88l-2.01,7.78-1.84-.06c-.53-2.54.98-4.86,1.1-8.39.05-1.62,3.31-1.47,2.75.67Z"/>
  <rect fill="#eed78c" x="154.24" y="49.77" width="9.13" height="3.11" transform="translate(-5.65 79.72) rotate(-27.71)"/>
  <rect fill="#eed78c" x="131.7" y="55.3" width="8.98" height="3.12" transform="translate(-8.72 84.84) rotate(-33.59)"/>
  <rect fill="#eed78c" x="63.44" y="30.13" width="3.04" height="9.79" transform="translate(-7.75 47.7) rotate(-38.22)"/>
  <path fill="#eed78c" d="M142.69,59.82c-2.14,3.82-4.69,3.69-7.91,4.45-.04-2.86,4.76-5.62,7.91-4.45Z"/>
  <path fill="#eed78c" d="M166.75,68.87c3.91.87-2.97,3.91-5.79,3.12-1.19-.33-1.25-2.51-.55-2.67,1.7-.38,4.2-.93,6.34-.45Z"/>
  <path fill="#eed78c" d="M120.14,38.72c-.17,4.3-1.07,6.52-3.7,8.67-1.03-3.71.77-8.06,3.7-8.67Z"/>
  <path fill="#eed78c" d="M51.17,68.43c.27,3.44-1.79,2.75-3.48,2.78-2.25.04-5.2,1.16-4.95-3.88,2.64.83,5.18,1.47,8.43,1.1Z"/>
  <rect fill="#eed78c" x="85.01" y="41.95" width="2.99" height="8.17" transform="translate(-11.48 44.95) rotate(-27.39)"/>
  <rect fill="#eed78c" x="135.3" y="29.47" width="9.72" height="2.71" transform="translate(26.22 118.07) rotate(-49.85)"/>
  <rect fill="#eed78c" x="69.6" y="62.39" width="3.16" height="7.61" transform="translate(-12.18 116.19) rotate(-73.88)"/>
  <rect fill="#eed78c" x="124.66" y="47.21" width="7.88" height="2.71" transform="translate(6.14 111.01) rotate(-47.71)"/>
  <path fill="#eed78c" d="M100.04,45.8c-3.11-3.01-2.43-6.91-1.29-9.71,3.11,2.95,2.45,6.92,1.29,9.71Z"/>
  <rect fill="#eed78c" x="75.67" y="51.4" width="3.08" height="7.95" transform="translate(-14.37 80.71) rotate(-51.12)"/>
  <path fill="#eed78c" d="M53.12,60.5c-3.21,2.63-8.17,1.15-9.11-2.65,3.27.27,5.67.59,9.11,2.65Z"/>
  <rect fill="#eed78c" x="72.01" y="56.86" width="3.14" height="7.65" transform="translate(-16.23 92.81) rotate(-59.2)"/>
  <path fill="#eed78c" d="M164.58,61.78c-2.5.94-4.69,2.46-7.02-.23,2.84-1.52,4.84-2,8-2.55,1.35.08,1.84,3.06-.98,2.78Z"/>
  <rect fill="#eed78c" x="136.51" y="65.86" width="7.68" height="3.02" transform="translate(-14.76 54.05) rotate(-20.73)"/>
  <rect fill="#eed78c" x="65.84" y="71.14" width="8.06" height="2.68"/>
  <rect fill="#eed78c" x="138.24" y="71.94" width="6.8" height="2.75" transform="translate(-2.13 4.27) rotate(-1.71)"/>
  <rect fill="#eed78c" x="91.53" y="39.2" width="2.73" height="8.37" transform="translate(-8.9 31.21) rotate(-18.21)"/>
  <path fill="#eed78c" d="M159.7,77.88c3.45.3,5.75-.36,8.31-1.07.66,4.28-1.77,3.85-3.48,3.83-2.1-.02-3.7,0-4.83-2.76Z"/>
  <rect fill="#eed78c" x="65.84" y="77.85" width="8.06" height="2.68"/>
  <rect fill="#eed78c" x="80.35" y="46.63" width="2.8" height="7.84" transform="translate(-13.58 62.81) rotate(-39.06)"/>
  <rect fill="#eed78c" x="138.34" y="77.85" width="6.71" height="2.68"/>
  <rect fill="#eed78c" x="143.13" y="34.96" width="8.54" height="1.9" transform="translate(17.79 114.75) rotate(-45.01)"/>
  <path fill="#eed78c" d="M121.32,48.6c.48-2.56,1.3-5.27,4.02-7.73,1.62,2.9-.06,6.46-4.02,7.73Z"/>
  <g>
    <path fill="#eed78c" d="M128.61,82.45c-2.45,11.35-12.99,17.48-23.12,17.37-10.47-.12-20.64-6.5-23.73-17.81-2.33-8.55,2.41-19.04,9.44-24.09,8.48-6.09,18.57-6.44,26.62-1.64,8.36,4.98,13.15,15.21,10.78,26.17Z"/>
    <path fill="#010100" d="M124.44,84.77c-4.17,9.69-14.5,13.35-23.64,11.23-8.24-1.91-16.4-9.68-16.02-19.28.52-13.18,12.36-22.09,24.33-20,11.95,2.09,20.73,15.49,15.33,28.05Z"/>
  </g></symbol>
<symbol id="p25" viewBox="0 0 395.14 337.27" overflow="visible"><path fill="#eed78c" d="M.47,290.73l-.47-99.11,114.28-17.21c.53-2.39.09-4.31-.13-7.36l34.44-4.24.03-110.39L363.49.12c2.67-.65,5.36,1.43,8.08,2.61l.35,169.21,23.22,2.95-.23,76.55-232.78,85.82L.47,290.73Z"/>
  <g>
    <path fill="#eed78c" d="M382.1,175.94c-3.31,1.75-7.2,3.71-11.72.59,3.85-2.04,6.73-1.7,11.72-.59Z"/>
    <g>
      <polygon points="160.66 219.28 160.73 333.09 3.62 288.03 3.62 195.26 108.81 210.92 160.66 219.28"/>
      <path d="M216.55,175.28c-6.4-.7-11.35-.55-16.94.29.26-2.39.26-3.64.03-5.01l114.87,8.3-48.61,10.37c-1.69.36-3.85.64-4.32,1.88-.54,1.43-.51,3.45-.39,5.93l-99.1,18.95-104.21-15.88-43.96-6.99c49.48-8.96,97.34-14.83,146.42-20.79l28.54-2.49c.84,2.08.93,4.18.78,6.72l-45.89,6.84c-.31,1.06-.23,2.43.15,2.72.42.32,1.64.57,2.5.78l47.97,8.59,65.02-12.64c.28-.93.22-2.12-.18-2.9l-42.7-4.67Z"/>
      <polygon points="291.99 285.4 238.84 305.32 238.97 251.33 291.55 236.32 291.99 285.4"/>
      <polygon points="338.21 268.79 295.31 284.23 295.37 235.08 338.13 223.72 338.21 268.79"/>
      <path fill="#020101" d="M239.02,247.64c-.41-8.5-.99-16.29.34-24.15l52.19-10.32v19.43s-52.53,15.05-52.53,15.05Z"/>
      <path fill="#060503" d="M176.92,222.33c-4.27.81-7.54-.79-9.38-3.7l194.33-35.7c2.3-.42,2.87,3.84,1.1,4.17l-186.05,35.22Z"/>
      <polygon fill="#020201" points="338.09 220.35 295.02 231.35 295.01 212.57 337.84 203.71 338.09 220.35"/>
      <path fill="#060301" d="M171.57,328.82c-2.16,2.16-4.38,2.9-7.32,3.37l.05-109.94c2.89,1.09,4.68,2.63,6.95,4.48l.32,102.09Z"/>
      <path fill="#040302" d="M211.38,188.24c-5.03,1.29-11.78,3.89-17.06,3.03l-36.69-5.99,54.03-7.41c.6,2.87,1.13,6.94-.28,10.37Z"/>
      <path fill="#0a0804" d="M288.2,210.19l-48.65,9.96c-.94-1.77-1.11-3.64-.76-6.04l50.85-9.85c2.26-.44,2.52,2.31,2.13,3.61-.43,1.43-1.45,1.89-3.57,2.32Z"/>
      <path fill="#2c230d" d="M391.52,247.69c0,1.43-1.19,2.8-3.47,2.52v-63.95c.08-.65,3.04-.67,3.19-.02l.28,61.45Z"/>
      <path fill="#161206" d="M265.72,196.18c-1.51.28-1.78-3.22-.57-3.45l29.54-5.73,5.46-2.33,17.77,2.02-52.19,9.48Z"/>
      <path fill="#191307" d="M118.39,173.77c-1.09-.11-1.34-3.18-.4-3.86l29.25-3.69,13.61,1.75-42.45,5.79Z"/>
      <path fill="#090703" d="M242.66,182.54l-26.85,5.12c-.88-3.85-.84-6.16-.18-9.63l27.04,4.51Z"/>
      <rect fill="#100c04" x="365.73" y="179.93" width="26.44" height="4.69" transform="translate(-25.66 67.73) rotate(-9.88)"/>
      <g>
        <polygon points="235.35 306.23 174.79 328.73 174.64 226.87 235.37 214.98 235.4 250.46 235.35 306.23"/>
        <path fill="#eed78c" d="M197.46,231.13c-1.12.22-1.7-2.92-.28-3.28l16.15-4.08c1.08-.27,2.13-.88,3.01-.28.77.53,1.14,2.34.12,3.9l-19,3.75Z"/>
      </g>
      <g>
        <path d="M341.83,267.18l-.57-68.93-46.19,10.48c-.44-1.87-.41-3.38.04-5.1l89.74-16.92-.08,64.89-42.94,15.56Z"/>
        <rect fill="#eed78c" x="356.57" y="193.8" width="17.86" height="3.44" transform="translate(-28.3 66.14) rotate(-9.96)"/>
      </g>
    </g>
    <g>
      <path d="M193.22,129.44l-.89,30.08c-2.87-1.49-5.23-2.41-6.95-2.05-2.47.52-3.32,4.15-1.69,7.83-6.73,1.9-13.48,1-20.41-.66l-11.62-.96-.24-108.32L362.07,4.16l.08,174.03-146.27-9.63c-.9-2.43.17-4.33,2.27-5.9l-.79-31.79c-.15-5.9-5.96-10.28-10.44-11-6.12-.99-12.18,2.37-13.71,9.58Z"/>
      <path fill="#030302" d="M205.33,166.63c-.71-1.47,1.98-5.96-.13-7.86-1.74-1.56-5.28-.72-8.39.12l.24-27.94c.04-4.51,4.87-7.72,8.38-7.43,4.59.37,7.68,3.93,7.64,8.74l-.28,35.56c-1.23.51-5.11,1.26-7.45-1.19Z"/>
      <rect fill="#191307" x="366.08" y="4.8" width="2.69" height="173.16"/>
      <path fill="#1e1707" d="M322.61,185.46c-2.19-.24-5.5-3.28-9.18-2.43,2.36-1.13,5.34-3.95,8.39-3.74l28.26,1.93-27.47,4.23Z"/>
      <path fill="#130f06" d="M197.66,166.96c-.95,1.1-.36,5.27-3.83,6.18l-1.78-5.99-5.02-3.4c14.34-3.05,19.66,1.05,10.63,3.21Z"/>
    </g>
  </g></symbol>
<symbol id="p27" viewBox="0 0 30.2 30.76" overflow="visible"><path fill="#eed78c" d="M14.6,30.76c-3.19-7.48-5.09-12.66-14.6-15.39C8.84,11.98,11.87,8.34,15.24,0c2.47,9.35,5.8,12.45,14.96,15.18-9.18,2.61-11.88,6.4-15.6,15.59Z"/>
  <path fill="#120e05" d="M14.58,23.44c-1.19-3.57-3.02-6.2-7.58-7.32L15.41,7.78c1.76,4.09,3.13,5.74,7.5,7.48-4.11,2.56-5.48,3.4-8.33,8.18Z"/></symbol>
<symbol id="p29" viewBox="0 0 30.62 5.43" overflow="visible"><path fill="#eed78c" d="M30.62,2.05v2.68s-18.81.44-18.81.44C7.65,5.27,3.83,5.94,0,4.63,0,1.22,2.8,1.74,4.2.55c1.91-1.63,3.1.87,4.97.92l21.46.58Z"/></symbol>
<symbol id="p31" viewBox="0 0 16.99 19.08" overflow="visible"><path fill="#eed78c" d="M8.81,19.08c-2.33-5.48-3.19-7.41-8.81-9.01l6.32-3.56L8.76,0c1.51,5.29,2.66,7.38,8.22,9.71-5.43,2.16-6.64,3.88-8.17,9.37Z"/></symbol>
<symbol id="p32" viewBox="0 0 51.68 21.86" overflow="visible"><path fill="#eed78c" d="M51.68,2.53v3.9C33.42-.41,14.29,5.58.77,21.86c-2.74-5.45,2.55-7.38,5.29-9.85C18.89.42,35.89-2.87,51.68,2.53Z"/></symbol>
<symbol id="p33" viewBox="0 0 16.36 6.17" overflow="visible"><path fill="#eed78c" d="M16.36,0v2.68S0,6.17,0,6.17C3.35-.26,10.91.57,16.36,0Z"/></symbol>
<symbol id="p34" viewBox="0 0 86.86 45.16" overflow="visible"><rect fill="#eed78c" x="0" y=".09" width="86.31" height="3.45" transform="translate(0 .09)"/>
  <rect fill="#eed78c" x="23.76" y="42.48" width="63.1" height="2.68"/>
  <circle fill="#eed78c" cx="65.24" cy="21.96" r="2.22"/>
  <rect fill="#eed78c" x="36.8" y="20.03" width="3.56" height="4.08" transform="translate(15.91 60.29) rotate(-89.1)"/></symbol>
<symbol id="p35" viewBox="0 0 8.08 4.58" overflow="visible"><path fill="#eed78c" d="M8.08,3.08c-2.67,1.82-5.49,2.21-8.08-.13,2.22-.45,2.84-1.12,3.18-2.95,1.17,1.1,1.48,2.13,4.9,3.08Z"/></symbol>
</defs>
<use href="#p24" width="126.6" height="70.0" transform="translate(827.8 574.4) rotate(-0.9 63.3 35.0)"/>
<use href="#p13" width="99.4" height="74.3" transform="translate(482.7 454.2) rotate(5.3 49.7 37.1)"/>
<use href="#p09" width="109.9" height="72.4" transform="translate(92.5 384.0) rotate(7.0 54.9 36.2)"/>
<use href="#p09" width="115.8" height="76.3" transform="translate(354.1 315.2) rotate(4.3 57.9 38.2)"/>
<use href="#p09" width="116.9" height="77.0" transform="translate(806.5 10.7) rotate(-8.4 58.5 38.5)"/>
<use href="#p10" width="116.0" height="109.9" transform="translate(751.2 199.6) rotate(1.6 58.0 54.9)"/>
<use href="#p13" width="112.8" height="84.3" transform="translate(609.5 347.7) rotate(2.9 56.4 42.1)"/>
<use href="#p07" width="110.6" height="120.3" transform="translate(272.6 119.0) rotate(-3.8 55.3 60.2)"/>
<use href="#p05" width="114.5" height="79.6" transform="translate(55.0 44.3) rotate(-3.8 57.3 39.8)"/>
<use href="#p13" width="129.1" height="96.4" transform="translate(-10.1 244.6) rotate(3.8 64.5 48.2)"/>
<use href="#p13" width="129.1" height="96.4" transform="translate(1029.9 244.6) rotate(3.8 64.5 48.2)"/>
<use href="#p03" width="94.9" height="28.8" transform="translate(607.2 592.8) rotate(-4.1 47.5 14.4)"/>
<use href="#p09" width="96.4" height="63.5" transform="translate(484.7 167.3) rotate(4.3 48.2 31.7)"/>
<use href="#p25" width="102.3" height="87.3" transform="translate(805.5 421.6) rotate(-3.7 51.1 43.7)"/>
<use href="#p05" width="102.8" height="71.5" transform="translate(412.1 11.4) rotate(-5.8 51.4 35.7)"/>
<use href="#p05" width="127.6" height="88.8" transform="translate(955.9 468.0) rotate(3.4 63.8 44.4)"/>
<use href="#p05" width="127.6" height="88.8" transform="translate(-84.1 468.0) rotate(3.4 63.8 44.4)"/>
<use href="#p33" width="54.7" height="20.6" transform="translate(586.1 710.1) rotate(-1.3 27.4 10.3)"/>
<use href="#p31" width="43.5" height="48.8" transform="translate(979.5 -7.8) rotate(6.8 21.7 24.4)"/>
<use href="#p31" width="43.5" height="48.8" transform="translate(979.5 772.2) rotate(6.8 21.7 24.4)"/>
<use href="#p21" width="32.5" height="33.8" transform="translate(551.7 558.0) rotate(20.0 16.3 16.9)"/>
<use href="#p27" width="50.1" height="51.0" transform="translate(926.5 248.9) rotate(9.3 25.1 25.5)"/>
<use href="#p21" width="50.9" height="52.9" transform="translate(408.4 590.2) rotate(18.2 25.4 26.5)"/>
<use href="#p33" width="32.3" height="12.2" transform="translate(672.6 289.7) rotate(-24.4 16.2 6.1)"/>
<use href="#p21" width="32.6" height="33.9" transform="translate(648.7 757.8) rotate(19.0 16.3 17.0)"/>
<use href="#p21" width="32.6" height="33.9" transform="translate(648.7 -22.2) rotate(19.0 16.3 17.0)"/>
<use href="#p27" width="40.6" height="41.3" transform="translate(744.2 432.5) rotate(-3.0 20.3 20.7)"/>
<use href="#p34" width="34.1" height="17.7" transform="translate(6.1 737.9) rotate(-19.4 17.1 8.9)"/>
<use href="#p34" width="47.8" height="24.9" transform="translate(481.8 686.8) rotate(-6.6 23.9 12.4)"/>
<use href="#p27" width="47.4" height="48.3" transform="translate(187.0 108.2) rotate(20.3 23.7 24.1)"/>
<use href="#p16" width="48.0" height="48.0" transform="translate(182.5 312.1) rotate(15.3 24.0 24.0)"/>
<use href="#p19" width="22.4" height="24.4" transform="translate(388.6 442.6) rotate(-12.8 11.2 12.2)"/>
<use href="#p27" width="14.5" height="14.7" transform="translate(357.5 691.2) rotate(-32.2 7.2 7.4)"/>
<use href="#p16" width="18.9" height="18.9" transform="translate(16.3 637.7) rotate(-18.4 9.5 9.5)"/>
<use href="#p27" width="22.9" height="23.4" transform="translate(1011.9 78.3) rotate(-27.4 11.5 11.7)"/>
<use href="#p32" width="21.5" height="9.1" transform="translate(828.9 743.0) rotate(12.9 10.8 4.6)"/>
<use href="#p19" width="21.7" height="23.7" transform="translate(255.4 545.2) rotate(17.9 10.9 11.9)"/>
<use href="#p32" width="22.3" height="9.4" transform="translate(175.1 207.7) rotate(-10.8 11.1 4.7)"/>
<use href="#p18" width="19.5" height="14.6" transform="translate(1026.9 116.8) rotate(24.4 9.8 7.3)"/>
<use href="#p18" width="19.5" height="14.6" transform="translate(-13.1 116.8) rotate(24.4 9.8 7.3)"/>
<use href="#p27" width="18.5" height="18.9" transform="translate(195.5 682.7) rotate(-34.5 9.3 9.4)"/>
<use href="#p27" width="18.7" height="19.0" transform="translate(668.0 150.3) rotate(15.5 9.3 9.5)"/>
<use href="#p35" width="25.0" height="14.2" transform="translate(115.9 181.9) rotate(-7.7 12.5 7.1)"/>
<use href="#p21" width="24.7" height="25.7" transform="translate(546.1 604.0) rotate(-12.6 12.4 12.9)"/>
<use href="#p32" width="18.5" height="7.8" transform="translate(277.0 713.5) rotate(-19.7 9.2 3.9)"/>
<use href="#p21" width="17.9" height="18.6" transform="translate(27.6 406.5) rotate(13.1 8.9 9.3)"/>
<use href="#p27" width="18.8" height="19.1" transform="translate(1030.4 692.9) rotate(1.3 9.4 9.6)"/>
<use href="#p27" width="18.8" height="19.1" transform="translate(-9.6 692.9) rotate(1.3 9.4 9.6)"/>
<use href="#p29" width="22.0" height="3.9" transform="translate(972.6 382.3) rotate(31.4 11.0 1.9)"/>
<use href="#p21" width="22.0" height="22.9" transform="translate(446.0 424.4) rotate(23.2 11.0 11.4)"/>
<use href="#p32" width="21.3" height="9.0" transform="translate(533.0 653.5) rotate(4.2 10.7 4.5)"/>
</svg>
