<?xml version="1.0" encoding="UTF-8"?>
<svg id="Layer_1" data-name="Layer 1" xmlns="http://www.w3.org/2000/svg" viewBox="0 0 85.04 85.04">
  <defs>
    <style>
      .cls-1 {
        fill: none;
      }

      .cls-2 {
        fill: #eed78c;
      }

      .cls-3 {
        fill: #2f2a20;
      }
    </style>
  </defs>
  <path class="cls-2" d="M45.16,52.48c-5.68,1.79-12.11.12-15.33-5.08-.04-.14.27-.34.35-.34,2.45,3.11,6.36,4.77,10.32,4.32,3.08-.36,5.64-2.18,6.91-5.02,2.24-4.99.46-11.8-4.66-13.26-3.62-1.04-7.41.17-9.91,2.9-.24-.04-.46-.09-.63-.29l4.66-16,9.98.18c1.11.02,2.14-.1,3.19-.31,1.28-.29,2.41-.81,3.32-1.74.1-.1.46.12.42.25-.42,1.21-.97,2.34-1.76,3.35l-1.32,1.31c-1.44,1.08-3.12,1.55-4.94,1.64-2.8.09-5.54,0-8.45-.1l-2.37,8.38c3.7-2.05,7.95-2.49,11.88-1.15,3.17,1.06,5.53,3.5,6.38,6.75,1.08,4.16-.26,8.64-3.46,11.52-1.34,1.21-2.83,2.14-4.57,2.69Z"/>
  <path class="cls-2" d="M42.87,62.69l-10.66-5.98-11.25-6.28c-.05-.48-.07-.92,0-1.45l21.95,12.13-.03,1.58Z"/>
  <polygon class="cls-3" points="43.65 62.67 43.65 61.13 64.25 49.07 64.19 50.44 43.65 62.67"/>
  <path class="cls-2" d="M58.76,46.16l.02.27c-.34.03-1.37,1.18-1.34,1.4.01.09,1.53.18,1.74.12l.47.18c1.17.09,2.34.13,3.52.13l.09.11c.09.04.22.09.32.06-.06.21-.36.08-.48.11-.44.11-.75.05-1.16.04l-2.43-.03c-.22,0-.46-.27-.77-.12s-.6,0-.93-.07c-.28-.05-.63.21-.91.24-.73.07-1.22.48-1.54,1.1l-1.11,1.3-.59,1.09c.92-.05,1.79-.06,2.59-.42.94-.42,2.12-1.13,2.64-1.11l1.37.07-.41.22c-1.12.23-2.18.65-3.17,1.26-1.04.39-2.13.65-3.27.78-.34.77-.75,1.52-1.23,2.26-.1.12-.23.21-.38.26-.1.18-.19.33-.42.38.14-1.17,1.22-1.82,1.3-2.94l-1.94,1c-.68.35-1.3.65-1.93,1.1s-1.31.99-2.08,1.08-1.52.08-2.31.26l-.79-.24c-.37.26-.78-.06-1.1-.02-.52.06-.98.36-1.49-.03l-2.4.96c-.47.3-.67.73-.8.46.11-.1.28-.16.29-.38-.5.1-.86.15-1.19-.03l1.39-.36,2.12-1.18c.36-.2.51-.49.74-.79.21-.27.56-.41.7-.7.08-.17.37-.15.49-.24.03,0,.16.06.14.08l-.19.13c-.22.31-.64.6-.93.95l-.55.65c.62,0,.97.39,1.66-.08.43.19.83.27,1.28.07.34.26.71.27,1.11.21l1.61-.13c.55-.04,1.11-.41,1.56-.71l.79-.53c.59-.4,1.19-.68,1.83-.98l1.5-.71c1.4-.66,1.22-1.48,1.87-2.17l.92-.99c.3-.59.72-1.06,1.35-1.27l.55-.74c.31-.41.44-.87.95-1.1.15-.07.26-.22.36-.31.16-.14.38-.04.55.03Z"/>
  <path class="cls-2" d="M26.19,50.97c-.06-.02-.18,0-.27-.08.16-.09.2-.24.29-.35.11-.13.28-.2.38-.41-.58.05-1.05.28-1.64.18.6-.27,1.25-.31,1.9-.4.62-.09.99-.57,1.45-.86-.27.55-.8.83-1.42,1.11-.32.14-.5.57-.69.82Z"/>
  <path class="cls-2" d="M45.28,59.3c-.13-.06-.37.06-.45.14.26-.32.35-.71.53-1.1l.62-.67c-.11-.67.48-.72.72-1.31.14.41-.36.7-.39.95-.06.56-.18.71-.65.96-.28.15-.37.7-.39,1.03Z"/>
  <path class="cls-2" d="M34.66,52.65l-1.61.63-1.92.51s-.09-.02-.11-.02c.04-.11.14-.16.3-.2,1.08-.24,2.1-.52,3.02-1,.14-.02.22.05.32.09Z"/>
  <path class="cls-2" d="M55.83,44.87c-.67.48-1.56.18-2.32.68.06-.14.15-.28.3-.37.25-.14.58-.16.89-.26l.5-.17c.19-.06.46.05.64.12Z"/>
  <g>
    <path class="cls-2" d="M27.09,49.95s0,0,0,0c0,0,0,0,0,0Z"/>
    <path class="cls-2" d="M40.27,41.78c-.46-.11-.91-.25-1.34-.43h-.37c.5.07.97.2,1.43.4.09,0,.19.02.28.03Z"/>
    <path class="cls-2" d="M41.56,41.98s.01,0,.02,0c-.02,0-.05,0-.07,0,.02,0,.04,0,.05.01Z"/>
    <polygon class="cls-2" points="33.27 44.23 33.28 44.23 33.27 44.23 33.27 44.23"/>
    <path class="cls-2" d="M40.79,48.43c.55-.47,1.08-.98,1.57-1.52-.5.53-1.02,1.04-1.57,1.52Z"/>
    <path class="cls-2" d="M42.99,45.59s0-.06-.01-.09c-.06-.01-.07.07,0,.08,0,0,.02,0,.02.01Z"/>
    <path class="cls-2" d="M39.81,49.46c-.34.19-.66.38-.96.59l.96-.59Z"/>
    <polygon class="cls-2" points="39.91 49.4 39.93 49.39 40.35 48.83 39.91 49.4"/>
    <path class="cls-2" d="M26.91,50.02s-.08.03-.12.04c.04-.01.08-.02.12-.04Z"/>
    <path class="cls-2" d="M45.6,55.96c.79-.02,1.51-.2,2.17-.54,1.47-1.07,3.11-1.9,4.74-2.66-1.65.71-3.21,1.57-4.68,2.58-.6.35-1.42.57-2.23.63Z"/>
    <path class="cls-2" d="M54.16,50.74s-.03.06-.04.09l1-1.15s.04-.08.06-.12c-.35.39-.69.78-1.02,1.18Z"/>
    <path class="cls-2" d="M31.67,53.58c.39-.1.79-.21,1.17-.33l-1.17.33Z"/>
    <path class="cls-2" d="M64.62,47.98l-7.45-3.31-3.07-1.32-6.53-2.61-4.78-2.14c-.35-.16-.64-.22-1-.06l-4.34,1.91-16.68,7.38c-.53.23-.68.43-.61,1.02.07.64-.06,1.31.09,2.01l8.75,4.89,13.7,7.68c.35.2.63.29.99.07l20.69-12.31c.3-.18.59-.26.6-.65l.03-2.01c0-.28-.16-.44-.4-.55ZM58.76,46.16l4.19,1.89c.19.08.34.09.3.31-.46.17-1.08,0-1.57.04-.78.05-1.99.07-2.34-.19-.25-.18-.8.03-1.08-.04-.5-.14-.86-.14-1.37.04.33-.42.54-.69.74-1.07.31-.57.88-.66,1.13-.97ZM59.5,51.01l-4.17,2.48-3.11,1.84c-.14.08-.33.08-.43.08l.55-.97c.28-.49.65-.88.76-1.46.12-.69,1.79-.2,3.48-1.06l1.13-.57c.28-.14.41-.33.76-.39.46-.08.9-.21,1.37-.12l-.35.17ZM61.55,49.84l-1.3.79c-.64.04-1.27.11-1.9.21-1.44.92-2.97,1.39-4.6,1.44-.22-.09-.21-.33-.12-.59-.28.4-.62.74-1.01,1.03,0,0,0,0-.01,0,.36,0,.24.41.16.66-.46.81-.92,1.62-1.39,2.42l-6.1,3.51c-.13-.12-.27-.08-.45.14-.16.17-.38.35-.64.47-.31.15-.55.51-.96.6l-5.26-2.93c-.12.1-.23-.02-.2-.1.01-.03,0-.02.06-.05.2,0,.37-.15.38-.39.89-.51,1.84-.92,2.84-1.22.43.21.92.22,1.45.01.41.12.78.13,1.13.04.54.16.91.26,1.47.11-.47,0-.92-.06-1.3-.18-.45.13-.85.07-1.28-.07-.5.3-1.41.23-1.76-.19.17-.25.36-.48.55-.71-.24.25-.48.51-.69.78-.27.21-1.9,1.13-2.2,1.23-.41.14-1.04.19-1.47.18l-5.82-3.22.02-.06-.13.04-4.57-2.56c-.12-.07-.2-.16-.26-.23,0-.17.08-.33.2-.49-.06.03-.12.06-.17.06-.03-.14-.11-.08-.13-.04l-.17.26c-.35-.07-.71-.24-1.04-.42l-3.49-1.92,5.37-2.42c.05-.1.15-.21.24-.2l.15.12c.41-.04.81-.07,1.22-.09-.03,0-.06,0-.08,0-.02,0-.05-.04-.07-.09l-.33-.22,4.47-2.01.97.05c.18.13.19.31.11.48.3-.39.65-.74,1.08-1.05.36.32,1.74-1.03,1.72-1.14,0-.02.02-.05.05-.07l1.1-.47c.18-.01.36-.01.54,0l-.03-.09c.05-.22.27-.21.44-.29l3.89-1.76,3.75,1.64c-.06.11-.16.16-.22.23v.12c-.6.12-1.19.24-1.78.36.84-.16,1.67-.31,2.51-.44.33.2.67.37,1.14.4.27,3.79-1.82,7.61-5.52,8.86-1.14.39-2.32.42-3.5.44-.11,0-.19-.08-.23-.12-.03-.03-.05-.08-.06-.14-.08.07-.16.15-.24.23l-.9-.17c-2.51-.57-4.75-1.84-6.33-3.87.3-.38.66-.7,1.04-.98.13-.22.28-.44.46-.64-.23.21-.47.43-.69.64-.13.05-.98.08-1.8.1l.05.08c.37.34.88-.07,1.01.33.02.07-.04.13-.21.18-.68-.23-1.56.37-1.61.97-.03.31.2.45.36.62,1.09,1.92,2.72,3.23,4.64,4.36.1.06.19.22.27.21-.12.1-.25.19-.4.27.14-.06.28-.11.42-.17h.3c2.19.91,4.52,1.38,6.94,1.2.12,0,.23.07.3.12.05.06.06.11.06.16.14-.14.29-.27.44-.39.13-.09.33.05.53.02,1.35-.22,2.65-.56,3.88-1.14,3.1-1.46,5.47-3.95,6.71-7.08.07-.08.14-.16.23-.22.08-.05.23-.11.4-.16-.12.01-.24.02-.34,0-.16-.34-.02-.76.14-1.09.48.26.9.34,1.25.66.04.07.05.15.01.18.05,0,.1-.02.14-.03.16-.03.32-.05.48-.03l2.1.95c.17.08.31.11.28.32l.07.11c-.67.59-1.25,1.3-1.75,2.12l-.53.29s-.07.07-.1.11c.71-.48,1.67-.62,2.49-.43.42-.08.73-.12,1.11.08,1.34.1,2.74.14,4.06,0,.1-.03.23-.04.3.09l-2.33,1.32Z"/>
    <path class="cls-2" d="M27.77,49.56s-.04.03-.06.04c.02-.01.04-.03.06-.04Z"/>
    <path class="cls-2" d="M27.97,49.39s-.06.05-.09.07c.03-.02.06-.05.09-.07Z"/>
    <path class="cls-2" d="M27.55,49.71s-.01,0-.02.01c0,0,.01,0,.02-.01Z"/>
    <path class="cls-2" d="M28.04,49.32s.07-.06.1-.1c-.03.03-.07.06-.1.1Z"/>
  </g>
  <path class="cls-2" d="M30.82,46.68c-.07-.25.33-.52.65-.72-.52-.16-1.07-.11-1.59-.08l-2.25.05c-.24,0-.45.16-.73.05.04-.05.09-.12.11-.18.41.07.81-.05,1.21-.07l3-.13c.45-.02.53-.26.83-.51l1.12-.96c.14-.12.14-.35.05-.45-.15-.15-.65.03-.86-.18l1.21-.08c.55-.04.77-.4,1.01-.88.09.22,0,.37.08.42.14.09.29-.03.39-.12l1.25-1.08c.09-.02.12.09.03.12l-1.27,1.18c-.43.03-.85.21-1.04.59.87.39,1.7.38,2.55.48l1.26.4c-.45.17-.8-.09-1.18-.18-.97-.22-1.92-.23-2.86-.56-.39.89-1.42,1.01-1.73,2.02l-1.2.86Z"/>
  <path class="cls-2" d="M38.36,50.64c-.02.08-.22.1-.3.09l.21-.27c-.29.08-.55.16-.79.05.46-.22.95-.25,1.33-.55.34-.27.9-.49,1.15-.82.3-.4.44-.7.94-.95l.85-.92c.6-.45,1.12-.99,1.23-1.69l-.12-.06-1.3-.06c-.36-.13-.62-.33-1.07-.26.36-.27.69.02,1.04.08.5.08.98.03,1.42.19.02,0,.03.02.04.03l.42.08c.26-.31.5-.69,1.01-.77l-.93.83c-.23.21-.49.24-.52.62-.01.2-.07.42-.23.57l-.89.77c-.33.66-.77.85-1.32,1.26-.23.17-.29.67-.73.78-.35.09-1.38.85-1.41.99Z"/>
  <path class="cls-2" d="M46.47,41.05l-1.14.31c-.72.03-1.32.27-2.01.41l-1.79.34c-.61-.4-1.16-.07-1.95-.43-1.02-.47-1.66-.02-2.22-.39.14-.06.35-.17.51-.1.45.21.84-.2,1.35.14.58.39,1.19.45,1.88.46.29,0,.53.1.86.03l1.44-.27c1.26-.59,1.75-.36,2.33-.55.26-.09.51-.1.73.04Z"/>
  <path class="cls-2" d="M39.16,45.16l-1.61-.53v-.15s1.62.52,1.62.52c0,.07,0,.12-.01.16Z"/>
  <path class="cls-2" d="M29.43,47.98c-.19.53-.71.8-1.13,1.06.25-.42.71-.77,1.13-1.06Z"/>
  <line class="cls-1" x1="54.1" y1="43.35" x2="47.57" y2="40.73"/>
  <path class="cls-2" d="M79.46,23.75c-3.3-7.19-8.63-13.22-15.28-17.47C56.95,1.65,48.46-.47,39.89.09c-5.34.34-10.52,1.69-15.3,4.09C10.83,11.08,1.93,24.92,1.94,40.44c0,9.88,3.54,19.34,10.04,26.8l-1.16,1.45c-.85,1.06-.66,2.27.27,3.19,5.58,5.53,12.46,9.59,20.06,11.65,10.41,2.82,21.46,1.68,31.12-3.23,4.34-2.21,8.23-5.05,11.68-8.4.82-.8,1.17-1.95.45-2.91l-1.31-1.74c1.44-1.76,2.76-3.48,3.94-5.39,7.08-11.48,8.06-25.82,2.43-38.11ZM73.32,69.58c.34.43.22,1.03-.23,1.35-3.77,3.8-8.22,6.83-13.1,9.05-16.48,7.5-35.37,3.58-48.03-9.05-.52-.41-.53-.98-.16-1.45l1.83-2.3C4.1,56.86.82,42.06,5.02,28.74c2.01-6.4,5.64-12.09,10.51-16.69C22.79,5.18,32.08,1.38,42.11,1.27c6.79-.07,13.45,1.57,19.38,4.87,6.39,3.56,11.71,8.84,15.31,15.2,3.37,5.93,5.06,12.57,5,19.39-.07,9.79-3.74,19.21-10.4,26.42l1.91,2.42Z"/>
  <path class="cls-2" d="M49.39,10.27c.49.81,1.02.68.77,1.07l-1.66-.29-1.73-3.04-.34,1.99c-.07.38.45.38.53.55.02.05-.03.25-.1.24l-2.32-.35c-.04-.55.63-.15.73-.73l.64-3.79c.05-.29-.08-.5-.39-.56-.06-.01-.15-.03-.17-.07-.03-.05,0-.23.07-.31l2.32.36s.01.22-.01.25c-.12.17-.62-.02-.69.45l-.28,1.86,2.39-1.79c-.4-.18-.57-.33-.47-.64l1.9.31c.08.01.05.34-.03.35-.42.04-.77.16-1.1.42l-1.58,1.19,1.52,2.52Z"/>
  <path class="cls-2" d="M75.33,35.63c.04.3-.11.38-.26.43-.1.03-.32-.07-.34-.27-.85-6.54-3.67-12.65-8.13-17.51-.14-.15-.13-.31-.06-.41.11-.15.32-.2.5-.02,4.54,4.9,7.41,11.12,8.3,17.79Z"/>
  <path class="cls-2" d="M10.33,35.67c-.04.3-.16.37-.32.38-.17,0-.32-.11-.28-.37.84-6.66,3.72-12.91,8.26-17.83.16-.17.33-.16.43-.11.14.08.19.32.06.47-.85.97-1.65,1.88-2.41,2.95-3.06,4.3-5.02,9.24-5.74,14.51Z"/>
  <path class="cls-2" d="M23.38,69.04c.02.43.47.69.19.88-.09.06-.18,0-.29-.08l-.95-.79-.18-3.17-1.08,1.41c-.29.38.46.72,0,.88-.07.02-.16-.08-.23-.13l-1.47-1.13c-.02-.08.11-.27.24-.23.12.03.34.18.49.13l2.46-3.27c-.23-.17-.43-.46-.19-.68l1.75,1.29s-.05.17-.1.2c-.06.04-.17.07-.28,0-.22-.15-.41-.09-.55.11l-.96,1.32,2.66-.46-.27-.38c-.05-.07.04-.27.16-.3l1.27.92.13.13s-.05.25-.13.23c-.24-.04-.49-.15-.78-.1l-2.04.32.15,2.9Z"/>
  <path class="cls-2" d="M44.03,75.41c-.12-.29.14-.44.47-.48l-.41-3.83c-.05-.47-.73-.21-.64-.63.48-.11,1.02-.16,1.5-.16l2.85,2.92-.28-2.53c-.02-.2-.16-.29-.37-.31l-.24-.02c-.09,0-.13-.27-.04-.28l1.61-.24c.07.02.11.26.06.3l-.38.18c-.12.06-.1.28-.09.45l.44,4.12c-.12.29-.6.05-.78-.14l-3.02-3.14.37,3.24c.34.01.65.05.73.4l-1.77.17Z"/>
  <path class="cls-2" d="M25.95,14.72c-.33,1.69-2.23,2.37-2.67,1.97-.14-.12-.14-.62.02-.77.25-.23,1.41.36,1.84-.53.21-.44-.02-.97-.32-1.26-.67-.65-1.68-.28-2.5.55l-1.42-2.5c.88-.61,1.72-1.11,2.55-1.77l.33,1-1.93,1.32.54,1.03c.53-.6,1.21-1.14,2.07-1.1,1,.05,1.68,1.07,1.49,2.05Z"/>
  <path class="cls-2" d="M40.69,73.5c-.05-.64-.52-.61-1.33-.62l-.1,1.85c.5.12,1.06.19,1.58.09s.48-1.05,1.03-.75l-.33,1.33-4.02-.3c-.13-.46.6-.34.62-.56l.3-3.88c-.07-.17-.39-.25-.51-.32-.03-.07-.02-.17,0-.2.03-.05.14-.06.23-.06l3.6.28.02,1.25c-.52.27-.45-.73-.77-.77l-1.5-.17-.11,1.72c.33.04.91.15,1.21-.01.1-.13.22-.6.5-.42l-.08,1.53c-.04.08-.32.07-.34,0Z"/>
  <path class="cls-2" d="M63.97,12.28l1.42.97c.05.03-.04.21-.09.24-.19.12-.47-.22-.96.1l-3.82,2.52c-.14.09-.27.23-.4.21-.11-.02-.41-.13-.37-.28l1.12-5.13c.1-.44-.36-.53-.25-.78.07-.16.2-.12.33-.03l1.54,1.08c.11.08.16.14.14.23-.04.15-.14.2-.31.12-.1-.05-.21-.05-.29-.03-.06.02-.14.11-.16.21l-.74,3.35,2.75-1.85c.54-.36-.39-.65.1-.94Z"/>
  <path class="cls-2" d="M30.38,67.87l1.46.7c-.08.27-.34.3-.65.17l-1.22,2.5c-.24.5-.65.9-1.07,1.04-.62.21-1.16.04-1.69-.21-1.03-.48-1.41-1.54-.91-2.58l1.2-2.5c-.22-.17-.41-.29-.33-.62l1.84.88c.08.04.19.12.18.18-.05.32-.67,0-.76.18l-1.2,2.42c-.36.72-.08,1.43.58,1.71.72.3,1.34-.04,1.68-.75l1.06-2.25c.15-.32-.3-.39-.36-.6-.02-.07.1-.27.17-.23Z"/>
  <path class="cls-2" d="M19.15,62.84c.21.68.02,1.26-.41,1.66s-1.12.49-1.69.19c-.75-.39-1.24-1.08-1.58-1.88l.89-.88c.12-.12.25-.02.32.07.07.1.08.21-.03.34-.44.51-.34,1.26.21,1.65.28.19.6.22.9.03.23-.15.42-.49.32-.85l-.38-1.32c-.19-.65.05-1.23.56-1.6,1-.74,2.34.22,2.86,1.53l-.68.72c-.11.12-.23.13-.34.03-.3-.27.48-.71.07-1.38-.15-.24-.52-.52-.89-.43-.42.1-.59.54-.47.93l.36,1.2Z"/>
  <path class="cls-2" d="M34.28,74.46c-.85.01-1.6-.3-2.24-.78l.24-1.33c.18-.02.32.02.37.08.15.17-.1,1.3,1.06,1.51.36.06.72-.1.86-.38.16-.34.06-.71-.23-.96l-1.01-.88c-.47-.41-.58-1.02-.38-1.57.45-1.17,2.02-1.09,3.25-.29l-.27,1.22c-.01.06-.25.01-.3-.03-.15-.12.08-.85-.54-1.17-.34-.18-.76-.19-1.05.09s-.21.77.1,1.03l1.04.87c.49.41.69.99.49,1.59-.17.54-.69,1-1.39,1.01Z"/>
  <path class="cls-2" d="M60.3,70.47c-.6.61-1.33.94-2.21.94l-.67-1.14c0-.07.19-.19.26-.17.21.06.84.96,1.75.46.32-.18.52-.5.47-.81-.06-.38-.37-.67-.78-.67h-1.38c-.63.02-1.1-.3-1.31-.8s-.1-1.1.31-1.54c.48-.52,1.18-.77,1.9-.92l.66,1.07c-.46.59-.68-.68-1.67-.25-.37.16-.57.47-.49.86.06.34.4.59.81.56l1.2-.08c.66-.04,1.2.29,1.46.81.27.56.19,1.21-.29,1.69Z"/>
  <path class="cls-2" d="M75.21,43.79c-.36-1.76-1.06-2.5-2.71-2.89,1.81-.53,2.27-1.16,2.75-2.84.23,1.56,1.14,2.54,2.71,2.83-.97.3-1.83.66-2.28,1.58l-.47,1.33Z"/>
  <path class="cls-2" d="M9.8,43.72c-.53-1.76-1.05-2.36-2.71-2.83,1.68-.52,2.27-1.09,2.7-2.81.43,1.78.97,2.33,2.74,2.84-1.55.23-2.46,1.26-2.73,2.8Z"/>
  <path class="cls-2" d="M63.85,68.13s-.17-.09-.18-.14c-.02-.23.35-.46.17-.7l-2.36-3.09c-1.25.53-.36,1.52-.79,1.62-.18.04-.21-.08-.3-.23l-.47-.88c1.16-.79,2.23-1.63,3.28-2.63l.94.99c-.28.55-.66-.25-1.19-.05-.21.07-.57.3-.61.58l2.39,3.01c.13.16.53-.01.64-.12.14.07.19.13.24.27l-1.76,1.38Z"/>
  <path class="cls-2" d="M70.96,57.81c-.13.22-.34.22-.47.17s-.23-.26-.11-.46c2.13-3.47,3.52-7.26,4.22-11.27.04-.22.13-.34.3-.35.11,0,.36.1.32.31-.64,4.12-2.12,8.01-4.27,11.61Z"/>
  <path class="cls-2" d="M14.62,57.46c.14.23.07.4-.01.48-.1.1-.36.12-.46-.04-2.18-3.55-3.63-7.45-4.32-11.57-.04-.22-.02-.33.12-.42.09-.06.4,0,.43.17.71,4.02,2.08,7.86,4.24,11.38Z"/>
  <path class="cls-2" d="M69.36,63.11l-1.54,1.58c-.23-.26-.08-.48.1-.73l-2.87-2.77c-.12-.11-.49.11-.57.19-.12-.04-.17-.09-.24-.22l1.48-1.55c.07-.08.19,0,.22.05.11.18-.15.34-.16.56,0,.13.11.23.22.34l2.64,2.5c.13.12.52-.29.66-.22.04.02.12.18.04.26Z"/>
  <path class="cls-2" d="M67.69,72.39c.13.19.25.29.53.32l-.58.43c.07-.26.04-.39-.11-.58l-.78-1.03c-.07-.01-.21.05-.34-.05.12-.16.3-.28.48-.4l1.42.73-.41-1.54c.16-.18.29-.28.53-.42-.03.34.08.53.27.74l.7.81c.06.07.24.01.33,0-.13.3-.37.39-.61.6-.03-.29-.13-.45-.29-.63l-.52-.61.38,1.6-1.51-.7.51.74Z"/>
  <path class="cls-2" d="M57.89,78.37c.04.1.21.15.34.2-.18.17-.35.21-.64.28.09-.21.11-.33.04-.51l-.35-.97c-.09-.24-.17-.36-.44-.38.07-.16.42-.4.56-.27l1.18,1.02-.02-1.62c.17-.12.34-.18.59-.24-.12.26-.08.39.01.59l.5,1.13c.06.06.23.09.31.25-.26.13-.45.24-.76.31.25-.33-.1-.94-.45-1.47v1.71s-1.27-1.11-1.27-1.11l.38,1.08Z"/>
  <path class="cls-2" d="M48.08,79.82l.1.9c.03.24.08.39.34.55-.29.11-.44.12-.73.13.16-.22.22-.35.19-.55l-.17-1.27c-.1-.08-.21-.11-.29-.28l.65-.07.82,1.27.44-1.42c.04-.13.38-.18.57-.12-.03.1-.14.25-.11.38l.21,1.18c.04.2.13.3.33.47l-.83.13c.16-.26.18-.4.13-.62l-.22-.88-.44,1.62-1-1.4Z"/>
  <path class="cls-2" d="M25.7,78.27c-.39-.68-.26-1.38-.55-2.12l-.48,1.07c-.07.17-.06.29.09.46-.25-.02-.46-.13-.68-.29.05-.1.21-.13.28-.17l.6-1.24c.09-.18.08-.3-.08-.46.8-.1.72.94.94,2.03l.54-1.12s-.07-.14-.1-.17c-.03-.03,0-.14.07-.14s.54.18.53.33c0,.09-.19.09-.24.12l-.92,1.71Z"/>
  <path class="cls-2" d="M62.86,76.3c-.02-.12.03-.22.06-.33l-.74-1.29c-.14-.03-.27-.04-.37-.18.13-.11.38-.3.52-.25l1.56.55c-.19-.43-.39-.83-.75-1.06.21-.19.31-.27.55-.36-.15.3-.07.41.05.64l.78,1.42-1.98-.67.52.95c.07.14.24.17.42.21-.17.18-.3.23-.62.37Z"/>
  <path class="cls-2" d="M42.28,81.72c.15-.12.24-.26.24-.47l-.04-1.31c0-.1-.17-.19-.28-.25.12-.13.5-.14.63.02l1.07,1.28c.1-.68.18-1.15-.24-1.34l.72-.08c.02.18-.18.26-.22.35l-.03,1.93-1.41-1.74v1.02c0,.26.09.43.28.59-.26.06-.44.07-.73,0Z"/>
  <path class="cls-2" d="M52.46,80.51c.04-.09.13-.23.1-.35l-.28-1.22c-.04-.19-.14-.29-.34-.44.23-.12.4-.16.73-.2-.12.34-.1.65.13,1.02l.47-.92c-.07-.06-.14-.08-.22-.21.26-.1.45-.2.78-.18-.36.34-.54.67-.69,1.13l1.32.78c-.24.18-.42.13-.64.16l-.91-.67c-.11.39.03.67.31.88l-.76.21Z"/>
  <path class="cls-2" d="M30.67,79.24c-.1-.21-.15-.29-.26-.36-.12-.08-.32-.1-.38.04-.14.29-.22.58.04.7s.51.21.79-.15c.05.23-.05.37-.18.58l-1.51-.52c.08-.13.19-.16.31-.23l.42-1.31c.05-.16-.04-.32-.1-.49l1.49.44c0,.18-.04.42-.14.5-.14-.05-.07-.15-.08-.19-.01-.08-.12-.14-.21-.17l-.52-.17-.21.7c.27.08.51.12.77,0l-.23.61Z"/>
  <path class="cls-2" d="M16.34,72.16c-.49.04-.94-.35-.99-.78-.02-.17.18-.37.4-.33-.11.25-.11.42-.03.58.1.19.37.38.58.22.44-.32-.6-1.13.01-1.63.42-.35,1.14.15,1.22.51.04.19-.18.47-.37.41,0-.17.08-.41-.03-.54-.09-.1-.33-.31-.48-.21-.4.27.28.81.19,1.31-.03.16-.17.43-.49.46Z"/>
  <path class="cls-2" d="M61.17,77.02l.61-.39c.07-.05.04-.29.11-.43.16.13.2.3.27.52l-1.47.76c.05-.28.06-.43-.05-.65l-.58-1.17c-.09,0-.2.09-.35,0l1.41-.77c.12.14.21.23.19.46-.26-.23-.8-.08-.85.22-.03.19.19.44.26.55.28-.06.41-.26.57-.43.13.16.17.25.15.47-.19-.06-.53,0-.57.19-.03.19.15.41.29.68Z"/>
  <path class="cls-2" d="M22.06,75.87c-.49.42-1.32-.2-1.31-.52,0-.15.08-.33.33-.38-.05.31,0,.47.13.62.12.13.43.24.56.04.27-.41-.77-1.08-.23-1.6.49-.47,1.24.2,1.25.34.02.17-.06.38-.29.49-.02-.23,0-.42-.12-.6-.1-.16-.35-.17-.46-.1-.49.35.82,1.11.12,1.71Z"/>
  <path class="cls-2" d="M38.93,79.45h.28s.06.06.04.12c-.01.06-.15.08-.19.15l-.9,1.73c-.04.08-.24.17-.32.11l-.43-1.56c-.07-.27-.13-.46-.37-.71l.85.07-.19.25.4,1.37c.22-.4.53-.88.66-1.32-.02-.04-.12-.15-.09-.18.03-.03.13-.03.25-.03Z"/>
  <path class="cls-2" d="M27.99,79.13c-.34-.1-.56-.17-.82-.36.22-.06.33-.12.39-.27l.54-1.35c-.31-.23-.5-.18-.79.08-.05-.25.08-.41.22-.59l1.67.68c-.03.22-.02.39-.2.56l-.14-.46c-.03-.1-.37-.19-.4-.1l-.45,1.11c-.09.23-.14.37,0,.7Z"/>
  <path class="cls-2" d="M45.67,81.58c.6-.48,0-1.37-.75-2l.81-.12c-.15.41.12.6.37.87.2-.18.41-.49.23-.86.17-.1.4-.13.63-.07-.66.73-1.06,1.66-.42,2.11-.33.1-.55.13-.88.07Z"/>
  <path class="cls-2" d="M64.49,60.3c-.05.14-.31.25-.42.16-.04-.58-.02-1.23.18-1.81.16-.14.58-.1.79.02l-.54,1.64Z"/>
  <path class="cls-2" d="M31.29,66.88l-1.69.09c-.17,0-.35-.19-.29-.33l1.66-.54c.23.23.31.51.31.78Z"/>
  <path class="cls-2" d="M23.36,76.98l-.74-.41c.24-.09.36-.21.49-.43l.43-.78c.11-.19.12-.34.02-.59l.73.35c-.02.13-.23.15-.28.21l-.66,1.18c-.05.1-.05.21,0,.47Z"/>
  <path class="cls-2" d="M62.6,73.77c-.17.13-.64.03-.81-.22.45-.01.75-.04.92-.51.11.17.09.57-.11.73Z"/>
  <path class="cls-2" d="M46.43,78.79c.05.14-.26.34-.64.47.07-.28.23-.43.45-.53.08-.01.18.02.19.06Z"/>
  <path class="cls-2" d="M35.35,10.9c-.28-.02-.56-.06-.77-.23l-1.72-1.37c.43-.38.67-.83.64-1.33-.03-.48-.28-.96-.79-1.18-.48-.21-1.04-.13-1.54.05l-2.45.86c-.06.02.02.25.07.25l.2.02c.33.04.48.1.57.38l1.2,3.63c.17.5-.43.51-.41.76,0,.07.06.21.16.17l2.22-.78c.06-.02-.03-.26-.09-.26l-.23-.02c-.12,0-.41.01-.47-.19-.16-.53-.46-1.03-.49-1.56-.02-.28.45-.18.61-.02.63.6,1.24,1.14,2,1.58l1.43-.44c.08-.03.03-.29-.13-.3ZM32.06,9.21c-.22.21-.49.26-.84.39l-.65-2.03c.37-.21.83-.34,1.23-.14.64.32.76,1.29.26,1.78Z"/>
  <path class="cls-2" d="M39.53,4.99c-1.59,0-2.88,1.29-2.88,2.88s1.29,2.88,2.88,2.88,2.88-1.29,2.88-2.88-1.29-2.88-2.88-2.88ZM40,10.17c-.58.12-1.17-.09-1.49-.61-.88-1.42-.74-3.85.73-4.01.6-.06,1.13.23,1.42.79.7,1.34.64,3.58-.66,3.84Z"/>
  <path class="cls-2" d="M55.08,7.4c-1.58,0-2.87,1.28-2.87,2.87s1.28,2.87,2.87,2.87,2.87-1.28,2.87-2.87-1.28-2.87-2.87-2.87ZM55.67,12.22c-.42.44-1,.43-1.44.24-1.36-.59-.88-2.72.09-3.93.39-.48.98-.67,1.55-.46,1.41.53,1.04,2.83-.2,4.15Z"/>
  <path class="cls-2" d="M52.92,68.55c-1.44,0-2.61,1.17-2.61,2.61s1.17,2.61,2.61,2.61,2.61-1.17,2.61-2.61-1.17-2.61-2.61-2.61ZM53.7,73.15c-.49.19-.94.03-1.29-.29-1.15-1.06-1.53-3.2-.27-3.71.52-.21,1.06-.02,1.45.42,1.02,1.16,1.21,3.15.11,3.58Z"/>
  <path class="cls-2" d="M33.53,79.16c.08-.61-.68-.79-1.52-.95.22.39.09.66,0,1.01-.11.39-.09.82-.4,1.09l.79.22c-.23-.35-.23-.76.11-1.03.36.7.3,1.37.95,1.22-.27-.35-.33-.75-.48-1.08.23-.08.53-.22.57-.48ZM33.09,79.24c-.11.17-.29.25-.65.16-.04-.25,0-.61.14-.82.18,0,.39.11.47.2.11.12.11.34.03.46Z"/>
  <path class="cls-2" d="M41.64,81.74c-.51-.43-.52-1.52-1.05-2.3l-.82,1.68c-.1.21-.2.34-.38.5l.63.08c-.15-.26-.12-.42-.02-.6.12-.22.86-.13.9.09.03.15,0,.28-.14.53h.88ZM40.18,80.81c.08-.25.14-.47.34-.75l.27.75c-.17.05-.35.03-.61,0Z"/>
  <path class="cls-2" d="M66.53,72.74c-.32-.56-1.03-.7-1.52-.37-.52.35-.59,1-.25,1.52.26.4.72.68,1.23.46.69-.29.87-1.03.53-1.62ZM66.26,73.92c-.17.22-.47.28-.73.13-.56-.32-.85-.98-.51-1.38.13-.15.37-.25.63-.15.58.23.9,1.01.61,1.39Z"/>
  <path class="cls-2" d="M35.37,78.98c-.6,0-1.09.49-1.09,1.09s.49,1.09,1.09,1.09,1.09-.49,1.09-1.09-.49-1.09-1.09-1.09ZM35.87,80.59c-.15.28-.41.37-.64.33-.48-.09-.62-.66-.45-1.25.08-.29.29-.45.53-.47.29-.03.58.1.67.42.08.31.06.67-.11.97Z"/>
  <path class="cls-2" d="M57.01,79.1c-.75-.49-1.78-2.17-1.81-1.61l-.09,1.64c-.01.26-.06.46-.19.68l.7-.25c-.22-.1-.31-.22-.31-.39.01-.28.7-.57.9-.3.09.13.11.26-.01.46.36-.05.57-.14.81-.25ZM55.36,78.76v-.83c.19.17.31.35.49.63-.13.1-.25.16-.49.2Z"/>
  <path class="cls-2" d="M18.47,71.7c-.59,0-1.08.48-1.08,1.08s.48,1.08,1.08,1.08,1.08-.48,1.08-1.08-.48-1.08-1.08-1.08ZM19.18,72.72c-.1.33-.27.66-.64.82-.21.09-.43.05-.57-.05-.32-.22-.3-.79.17-1.31.21-.22.5-.32.78-.16.19.11.35.4.26.69Z"/>
  <path class="cls-2" d="M42.52,13.61c-14.78,0-26.76,11.98-26.76,26.76s11.98,26.76,26.76,26.76,26.76-11.98,26.76-26.76-11.98-26.76-26.76-26.76ZM42.52,66.48c-14.42,0-26.11-11.69-26.11-26.11s11.69-26.11,26.11-26.11,26.11,11.69,26.11,26.11-11.69,26.11-26.11,26.11Z"/>
</svg>