<?xml version="1.0" encoding="UTF-8"?>
<svg xmlns="http://www.w3.org/2000/svg" viewBox="0 0 85.04 85.04">
  <defs>
    <style>
      .cls-1 {
        fill: none;
      }

      .cls-2 {
        fill: #010101;
      }

      .cls-3 {
        fill: #eed78c;
      }
    </style>
  </defs>
  <g id="DIE_CUT" data-name="DIE CUT">
    <circle class="cls-1" cx="42.52" cy="42.52" r="42.52"/>
  </g>
  <g id="Layer_1" data-name="Layer 1" fill="#F9F9F7">
    <circle class="cls-3" cx="42.52" cy="42.49" r="27.05"/>
    <g>
      <path d="M11.28,29.73l.39.86,1.41.59-.66,1.58-5.63-2.36.66-1.57,2.34.98-1.43-3.16.73-1.75,1.53,3.34,4.15-1.11-.77,1.85-2.71.75Z"/>
      <path d="M15.43,23.4l-.54.77,1.32.93-.99,1.41-4.99-3.51,1.6-2.28c.96-1.36,2.27-1.72,3.41-.92.73.52,1.02,1.25.89,2.08l2.32.03-1.06,1.51-1.96-.03ZM12.88,21.59l-.55.78,1.46,1.03.55-.78c.41-.58.35-1.07-.11-1.39-.46-.33-.94-.22-1.35.36Z"/>
      <path d="M17.28,13.93l-.88.79-.02-1.76,1.23-1.1-.33,2.08ZM21.6,17.33l-1.92,1.72.43,1.2-1.31,1.17-2.07-6.33,1.26-1.13,6.08,2.73-1.33,1.2-1.15-.56ZM20.37,16.72l-1.89-.93.72,1.97,1.17-1.05Z"/>
      <path d="M24.26,16l-.14-1.38c.65.04,1.43-.13,2.04-.48.62-.36.76-.67.61-.92-.48-.84-3.13,1.5-4.26-.46-.54-.94-.22-2.16,1.35-3.06.69-.39,1.49-.64,2.18-.64l.18,1.37c-.66.02-1.24.17-1.7.43-.63.36-.73.7-.58.97.46.81,3.11-1.52,4.23.43.53.92.21,2.15-1.36,3.05-.87.5-1.86.76-2.56.7Z"/>
      <path d="M33.51,11.02l-2.45.8-.09,1.27-1.67.55.65-6.63,1.61-.53,4.47,4.95-1.7.56-.83-.98ZM32.64,9.97l-1.35-1.61-.14,2.1,1.49-.49Z"/>
      <path d="M41.57,8.77l-.63.7.03,1.52-1.71.03-.1-6.09,1.71-.03.04,2.53,2.32-2.57,1.9-.03-2.44,2.74,2.68,3.35-2,.03-1.78-2.18Z"/>
      <path d="M50.72,10.8l-2.52-.54-.72,1.06-1.72-.37,3.91-5.39,1.66.36,1.35,6.53-1.75-.38-.22-1.26ZM50.49,9.45l-.35-2.07-1.18,1.74,1.53.33Z"/>
      <path d="M58.37,15.17l1.43-2.9-2.58,1.65-.68-.34-.26-2.97-1.41,2.81-1.42-.71,2.73-5.45,1.27.64.34,4.1,3.44-2.21,1.27.63-2.71,5.46-1.42-.71Z"/>
      <path d="M65.61,18.98l-.86,1.02-3.75-3.15,3.93-4.66,3.66,3.08-.86,1.02-2.35-1.98-.66.79,2.07,1.74-.83.99-2.07-1.75-.72.85,2.44,2.05Z"/>
      <path d="M74.06,21.77l-4.83,3.74-.87-1.12.92-4.12-2.57,1.99-1.04-1.34,4.83-3.74.87,1.12-.92,4.12,2.57-1.99,1.04,1.34ZM72.24,18.61l.35-1.71.67.87-.06,1,.98.19.67.87-1.74-.09-.87-1.13Z"/>
      <path d="M72.79,30.04l-1.07-2.34-1.28.06-.73-1.6,6.66-.09.71,1.54-4.41,4.99-.75-1.63.88-.93ZM73.74,29.05l1.45-1.52-2.1.1.65,1.42Z"/>
    </g>
    <polygon class="cls-2" points="23.82 46.5 37.4 54.4 61.22 40.57 61.22 38.41 47.64 30.59 23.83 44.33 23.82 46.5"/>
    <g>
      <path d="M74.52,46.85l.6.52c-.52.36-.94,1.04-1.1,1.78-.21.96.01,1.69.66,1.83,1.24.27,1.27-2.92,3.18-2.5,1.14.25,1.62,1.43,1.3,2.88-.16.73-.49,1.39-.92,1.81l-.62-.5c.41-.37.7-.91.83-1.51.21-.98-.07-1.69-.7-1.83-1.25-.27-1.33,2.91-3.14,2.51-1.16-.25-1.63-1.44-1.3-2.93.2-.91.71-1.73,1.21-2.07Z"/>
      <path d="M77.73,55.75l-.3.82-5.3-3.25.3-.82,5.3,3.25Z"/>
      <path d="M76.3,59.1l-.4.77-4.24-3.43-1.54,2.94-.6-.48,1.94-3.71,4.84,3.91Z"/>
      <path d="M67.22,64.5l2.05-2.53-.57-1.71.59-.73,2.21,6.94-.54.67-5.7-2.65.54-.67,1.41.68ZM67.87,64.81l2.79,1.33-1.12-3.38-1.67,2.05Z"/>
      <path d="M64.01,72.45l1.69-1.22.33.7-4.08,2.96-.32-.7,1.68-1.22-2.27-4.95.7-.51,2.28,4.94Z"/>
      <path d="M58.96,75.5l-.47-1.85-2.77,1.33-.19-.73,2.77-1.33-.5-1.95-3.21,1.55-.2-.75,4-1.92,1.55,6.03-3.88,1.87-.2-.75,3.1-1.49Z"/>
      <path d="M53.64,74.76c.51,1.97-.49,3.92-2.69,4.49-.98.26-1.85.13-2.41-.36l.47-.68c.46.36,1.07.46,1.8.27,1.68-.44,2.39-1.97,2-3.46-.28-1.07-1.16-1.61-2.5-1.26-.72.19-1.26.58-1.61,1.16l-.63-.43c.39-.74,1.16-1.25,2.1-1.5,1.78-.46,3.08.28,3.46,1.76Z"/>
      <path d="M40.56,80.21l.99-6.14.87-.03-.44,2.72,3.5-.13.44-2.72.87-.03-.99,6.14-.87.03.43-2.63-3.5.13-.43,2.63-.87.03Z"/>
      <path d="M32.09,78.8l2.34-5.75.7.13,1.79,5.12,1.79-4.43.85.16-2.34,5.76-.7-.14-1.8-5.12-1.79,4.43-.85-.16Z"/>
      <path d="M31.36,74.79c-.83,1.85-2.83,2.74-4.88,1.82-1.66-.75-2.19-2.13-1.56-3.52.83-1.85,2.84-2.74,4.89-1.81,1.66.75,2.18,2.13,1.55,3.52ZM25.74,73.4c-.45,1-.11,1.97,1.12,2.53,1.54.7,3.05-.05,3.68-1.45.45-1,.1-1.98-1.13-2.53-1.54-.69-3.04.06-3.67,1.46Z"/>
      <path d="M21.15,73.47l-.7-.51,4.01-3.69-2.68-1.95.57-.53,3.38,2.46-4.58,4.21Z"/>
      <path d="M12.74,68.1l-.74-.8,1.91.39.56.6-1.72-.19ZM19.72,67.94c-1.49,1.38-3.68,1.43-5.21-.22-1.24-1.33-1.19-2.82-.07-3.86,1.49-1.38,3.68-1.42,5.21.22,1.24,1.33,1.18,2.81.07,3.85ZM15.08,64.48c-.8.75-.87,1.78.05,2.77,1.15,1.24,2.84,1.13,3.96.09.8-.75.86-1.79-.06-2.78-1.15-1.24-2.83-1.13-3.95-.08Z"/>
      <path d="M11.47,57.92l-.41-.73,2.32-.77c.71.27,1.35.84,1.76,1.56.9,1.58.54,3.05-.79,3.81-1.77,1.01-3.91.55-5.05-1.45-.53-.92-.63-1.8-.35-2.51l.77.28c-.21.59-.12,1.2.27,1.88.86,1.51,2.51,1.85,3.88,1.07.95-.54,1.25-1.54.55-2.77-.25-.45-.59-.78-1.02-1.01l-1.93.65Z"/>
      <path d="M7.23,55.56l-.31-.81,6.13-1.03.31.81-6.13,1.03Z"/>
      <path d="M6.69,51.21l1.91-.05-.68-2.99.75-.02.68,2.99,2.01-.05-.79-3.47.77-.02.98,4.33-6.22.16-.95-4.2.77-.02.76,3.36Z"/>
    </g>
    <path class="cls-3" d="M8.23,34.42l.65,2.71c.17.7.63,1.29,1.27,1.62l2.48,1.27-2.71.65c-.7.17-1.29.63-1.62,1.27l-1.27,2.48-.65-2.71c-.17-.7-.63-1.29-1.27-1.62l-2.48-1.27,2.71-.65c.7-.17,1.29-.63,1.62-1.27l1.27-2.48Z"/>
    <path class="cls-3" d="M76.47,33.51l-.65,2.71c-.17.7-.63,1.29-1.27,1.62l-2.48,1.27,2.71.65c.7.17,1.29.63,1.62,1.27l1.27,2.48.65-2.71c.17-.7.63-1.29,1.27-1.62l2.48-1.27-2.71-.65c-.7-.17-1.29-.63-1.62-1.27l-1.27-2.48Z"/>
  </g>
</svg>